<svg id="Layer_1" data-name="Layer 1" xmlns="http://www.w3.org/2000/svg" viewBox="0 0 317.22 194.7"><title>Inverted Left copy 4</title><rect width="317.22" height="194.7" style="fill:#3c3c3b;stroke:#3c3c3b;stroke-miterlimit:10;stroke-width:3px"/><line x1="8.68" y1="181.09" x2="309.39" y2="181.09" style="fill:#f6f6f6;stroke:#43858c;stroke-miterlimit:10;stroke-width:3px"/><path d="M296.24,53.18l.05,14.67a39.76,39.76,0,0,1-12,10,28.22,28.22,0,0,1-13.11,3.21,26.64,26.64,0,0,1-11.87-2.69,30.9,30.9,0,0,1-9.55-7.24,33.28,33.28,0,0,1-6.36-10.6,35.86,35.86,0,0,1-2.29-12.81,38.82,38.82,0,0,1,2-12.41A34.06,34.06,0,0,1,249,24.66a28.76,28.76,0,0,1,9.15-7.45,25.58,25.58,0,0,1,12-2.8,29,29,0,0,1,14.29,3.5,26,26,0,0,1,10.27,10.93l6.11-4.08a32.29,32.29,0,0,0-4.74-7,28.06,28.06,0,0,0-6.6-5.45,33.38,33.38,0,0,0-8.59-3.58,41.35,41.35,0,0,0-10.63-1.28,33.34,33.34,0,0,0-14.82,3.31,37.16,37.16,0,0,0-11.68,8.82,41.19,41.19,0,0,0-7.67,12.82,42.41,42.41,0,0,0-2.78,15.22,40.09,40.09,0,0,0,2.84,14.8A43.44,43.44,0,0,0,244,75.37a39.43,39.43,0,0,0,11.82,9.18A32.42,32.42,0,0,0,270.68,88c9.62,0,19.28-2.79,26.74-10.78h0L300.5,74l2.56-3V53.18" style="fill:#fff;stroke:#43858c;stroke-miterlimit:10"/><path d="M267.74,21.1a5.46,5.46,0,0,0,2.08-.2.31.31,0,0,1,.23,0c1.08.55,2.23.19,3.35.22.51,0,.88-.08,1.26.58.56.95,1,1.94,1.46,2.93a7.13,7.13,0,0,1,.31,1.27c.17.56.51,1.07.72,1.62.72,1.83,1.57,3.6,2.34,5.4.88,2,1.79,4,2.71,6,.71,1.53,1.29,3.13,2,4.67a47.59,47.59,0,0,0,2,4.56,12.12,12.12,0,0,1,.57,1.45c.69,1.69,1.47,3.34,2.19,5l3,6.81c.49,1.13,1.11,2.21,1.71,3.29.24.43.35.73-.19,1a.4.4,0,0,0-.17.63c.84,1.46,1.23,3.1,2.05,4.57a25.24,25.24,0,0,1,1,2.45c.48,1.11,1,2.21,1.44,3.33.14.34.33.37.63.22a1.28,1.28,0,0,1,.43-.14c1.06-.12,1.52.3,1.5,1.45a16,16,0,0,1-.17,2.3,5.93,5.93,0,0,0,.21,3,9.72,9.72,0,0,1,.22,2.34c0,.14,0,.34-.19.37s-.28-.12-.35-.26c-1-1.88-2.32-3.56-3.32-5.43a8.42,8.42,0,0,1-1-2.57,3.09,3.09,0,0,0-.34-1c-.53-1-.85-2-1.29-3-1.1-2.45-2.21-4.9-3.2-7.4-.12-.31-.29-.56-.67-.5-.53.07-.74-.24-.94-.66-.57-1.23-.82-2.57-1.39-3.81-.94-2.06-1.85-4.14-2.76-6.21-.6-1.37-1.18-2.76-1.78-4.13-1-2.2-1.95-4.39-2.89-6.6-.52-1.24-1.17-2.42-1.62-3.7-.16-.47-.45-.9-1.09-.83a.26.26,0,0,1-.32-.17c0-.18.11-.24.24-.26.41-.07.35-.3.26-.6a38.47,38.47,0,0,0-1.67-4c-.91-2.14-1.82-4.28-2.81-6.39-.34-.71-.71-1.4-1-2.12a1.18,1.18,0,0,0-1.14-.55,27.86,27.86,0,0,0-2.89,0c-.87,0-1.2.77-1.47,1.44-.73,1.82-1.55,3.6-2.31,5.4-1,2.35-2,4.71-3,7-1.16,2.53-2.2,5.11-3.41,7.62-.45,1-.81,2-1.24,2.93-1.06,2.35-2.07,4.71-3.1,7.07-.48,1.09-.89,2.22-1.42,3.28-.41.83-.77,1.67-1.12,2.52-.25.61-.16,1.29-.52,1.87s-.47.9-1.14.87c-.46,0-.54.5-.74.8a5,5,0,0,0-.41,1c-.69,1.82-1.52,3.58-2.32,5.35-.65,1.43-1.22,2.9-1.88,4.33-.43.91-.58,2-1.06,2.9a24.87,24.87,0,0,1-1.72,2.79,17.69,17.69,0,0,0-1.48,2.52c-.1.24-.28.44-.5.38s-.25-.34-.24-.58a8.93,8.93,0,0,1,.6-3.14,3.22,3.22,0,0,0-.07-2.1,6.71,6.71,0,0,1-.22-2.17c.1-1.28.56-1.71,1.78-1.33.54.18.72,0,.9-.45.6-1.58,1.32-3.12,2-4.66.8-1.77,1.51-3.57,2.35-5.32.16-.34.21-.6-.2-.79a.47.47,0,0,1-.18-.7,12.79,12.79,0,0,1,.88-1.73,23.49,23.49,0,0,0,1.36-2.92c.76-1.64,1.36-3.35,2.2-5a11,11,0,0,0,.46-1.12c.65-1.78,1.51-3.46,2.24-5.19,1-2.41,2.06-4.81,3.15-7.18.54-1.17.89-2.41,1.47-3.56,1.15-2.22,2-4.58,3.06-6.84.83-1.76,1.51-3.57,2.31-5.34.34-.74.42-1.63.82-2.37s.71-1.28,1-1.93c.38-.94,1.05-.73,1.72-.74C267.18,21.09,267.39,21.1,267.74,21.1Zm11.89,17c.31,0,.54-.07.32-.42a36.65,36.65,0,0,1-1.89-4.25c-.89-2-1.83-3.93-2.57-6a4.75,4.75,0,0,0-.58-1.06.48.48,0,0,0-.65-.22c-.22.15,0,.33.09.5s.16.47.26.7c.84,1.91,1.76,3.79,2.52,5.73.59,1.48,1.37,2.87,1.91,4.38C279.13,37.73,279.22,38.08,279.63,38.07ZM265.84,26.32a.22.22,0,0,0-.28-.21.65.65,0,0,0-.51.41c-.76,1.68-1.53,3.35-2.27,5-.46,1.05-.83,2.16-1.34,3.19s-.83,2-1.26,3c-.14.32,0,.36.3.36s.33-.19.44-.39c.86-1.67,1.46-3.46,2.27-5.16.93-1.94,1.7-4,2.55-5.93Z"/><path d="M267.74,21.1a5.46,5.46,0,0,0,2.08-.2.31.31,0,0,1,.23,0c1.08.55,2.23.19,3.35.22.51,0,.88-.08,1.26.58.56.95,1,1.94,1.46,2.93a7.13,7.13,0,0,1,.31,1.27c.17.56.51,1.07.72,1.62.72,1.83,1.57,3.6,2.34,5.4.88,2,1.79,4,2.71,6,.71,1.53,1.29,3.13,2,4.67a47.59,47.59,0,0,0,2,4.56,12.12,12.12,0,0,1,.57,1.45c.69,1.69,1.47,3.34,2.19,5l3,6.81c.49,1.13,1.11,2.21,1.71,3.29.24.43.35.73-.19,1a.4.4,0,0,0-.17.63c.84,1.46,1.23,3.1,2.05,4.57a25.24,25.24,0,0,1,1,2.45c.48,1.11,1,2.21,1.44,3.33.14.34.33.37.63.22a1.28,1.28,0,0,1,.43-.14c1.06-.12,1.52.3,1.5,1.45a16,16,0,0,1-.17,2.3,5.93,5.93,0,0,0,.21,3,9.72,9.72,0,0,1,.22,2.34c0,.14,0,.34-.19.37s-.28-.12-.35-.26c-1-1.88-2.32-3.56-3.32-5.43a8.42,8.42,0,0,1-1-2.57,3.09,3.09,0,0,0-.34-1c-.53-1-.85-2-1.29-3-1.1-2.45-2.21-4.9-3.2-7.4-.12-.31-.29-.56-.67-.5-.53.07-.74-.24-.94-.66-.57-1.23-.82-2.57-1.39-3.81-.94-2.06-1.85-4.14-2.76-6.21-.6-1.37-1.18-2.76-1.78-4.13-1-2.2-1.95-4.39-2.89-6.6-.52-1.24-1.17-2.42-1.62-3.7-.16-.47-.45-.9-1.09-.83a.26.26,0,0,1-.32-.17c0-.18.11-.24.24-.26.41-.07.35-.3.26-.6a38.47,38.47,0,0,0-1.67-4c-.91-2.14-1.82-4.28-2.81-6.39-.34-.71-.71-1.4-1-2.12a1.18,1.18,0,0,0-1.14-.55,27.86,27.86,0,0,0-2.89,0c-.87,0-1.2.77-1.47,1.44-.73,1.82-1.55,3.6-2.31,5.4-1,2.35-2,4.71-3,7-1.16,2.53-2.2,5.11-3.41,7.62-.45,1-.81,2-1.24,2.93-1.06,2.35-2.07,4.71-3.1,7.07-.48,1.09-.89,2.22-1.42,3.28-.41.83-.77,1.67-1.12,2.52-.25.61-.16,1.29-.52,1.87s-.47.9-1.14.87c-.46,0-.54.5-.74.8a5,5,0,0,0-.41,1c-.69,1.82-1.52,3.58-2.32,5.35-.65,1.43-1.22,2.9-1.88,4.33-.43.91-.58,2-1.06,2.9a24.87,24.87,0,0,1-1.72,2.79,17.69,17.69,0,0,0-1.48,2.52c-.1.24-.28.44-.5.38s-.25-.34-.24-.58a8.93,8.93,0,0,1,.6-3.14,3.22,3.22,0,0,0-.07-2.1,6.71,6.71,0,0,1-.22-2.17c.1-1.28.56-1.71,1.78-1.33.54.18.72,0,.9-.45.6-1.58,1.32-3.12,2-4.66.8-1.77,1.51-3.57,2.35-5.32.16-.34.21-.6-.2-.79a.47.47,0,0,1-.18-.7,12.79,12.79,0,0,1,.88-1.73,23.49,23.49,0,0,0,1.36-2.92c.76-1.64,1.36-3.35,2.2-5a11,11,0,0,0,.46-1.12c.65-1.78,1.51-3.46,2.24-5.19,1-2.41,2.06-4.81,3.15-7.18.54-1.17.89-2.41,1.47-3.56,1.15-2.22,2-4.58,3.06-6.84.83-1.76,1.51-3.57,2.31-5.34.34-.74.42-1.63.82-2.37s.71-1.28,1-1.93c.38-.94,1.05-.73,1.72-.74C267.18,21.09,267.39,21.1,267.74,21.1Zm11.89,17c.31,0,.54-.07.32-.42a36.65,36.65,0,0,1-1.89-4.25c-.89-2-1.83-3.93-2.57-6a4.75,4.75,0,0,0-.58-1.06.48.48,0,0,0-.65-.22c-.22.15,0,.33.09.5s.16.47.26.7c.84,1.91,1.76,3.79,2.52,5.73.59,1.48,1.37,2.87,1.91,4.38C279.13,37.73,279.22,38.08,279.63,38.07ZM265.84,26.32a.22.22,0,0,0-.28-.21.65.65,0,0,0-.51.41c-.76,1.68-1.53,3.35-2.27,5-.46,1.05-.83,2.16-1.34,3.19s-.83,2-1.26,3c-.14.32,0,.36.3.36s.33-.19.44-.39c.86-1.67,1.46-3.46,2.27-5.16.93-1.94,1.7-4,2.55-5.93Z" style="fill:none;stroke:#1d1d1b"/><path d="M267.74,21.1a5.46,5.46,0,0,0,2.08-.2.31.31,0,0,1,.23,0c1.08.55,2.23.19,3.35.22.51,0,.88-.08,1.26.58.56.95,1,1.94,1.46,2.93a7.13,7.13,0,0,1,.31,1.27c.17.56.51,1.07.72,1.62.72,1.83,1.57,3.6,2.34,5.4.88,2,1.79,4,2.71,6,.71,1.53,1.29,3.13,2,4.67a47.59,47.59,0,0,0,2,4.56,12.12,12.12,0,0,1,.57,1.45c.69,1.69,1.47,3.34,2.19,5l3,6.81c.49,1.13,1.11,2.21,1.71,3.29.24.43.35.73-.19,1a.4.4,0,0,0-.17.63c.84,1.46,1.23,3.1,2.05,4.57a25.24,25.24,0,0,1,1,2.45c.48,1.11,1,2.21,1.44,3.33.14.34.33.37.63.22a1.28,1.28,0,0,1,.43-.14c1.06-.12,1.52.3,1.5,1.45a16,16,0,0,1-.17,2.3,5.93,5.93,0,0,0,.21,3,9.72,9.72,0,0,1,.22,2.34c0,.14,0,.34-.19.37s-.28-.12-.35-.26c-1-1.88-2.32-3.56-3.32-5.43a8.42,8.42,0,0,1-1-2.57,3.09,3.09,0,0,0-.34-1c-.53-1-.85-2-1.29-3-1.1-2.45-2.21-4.9-3.2-7.4-.12-.31-.29-.56-.67-.5-.53.07-.74-.24-.94-.66-.57-1.23-.82-2.57-1.39-3.81-.94-2.06-1.85-4.14-2.76-6.21-.6-1.37-1.18-2.76-1.78-4.13-1-2.2-1.95-4.39-2.89-6.6-.52-1.24-1.17-2.42-1.62-3.7-.16-.47-.45-.9-1.09-.83a.26.26,0,0,1-.32-.17c0-.18.11-.24.24-.26.41-.07.35-.3.26-.6a38.47,38.47,0,0,0-1.67-4c-.91-2.14-1.82-4.28-2.81-6.39-.34-.71-.71-1.4-1-2.12a1.18,1.18,0,0,0-1.14-.55,27.86,27.86,0,0,0-2.89,0c-.87,0-1.2.77-1.47,1.44-.73,1.82-1.55,3.6-2.31,5.4-1,2.35-2,4.71-3,7-1.16,2.53-2.2,5.11-3.41,7.62-.45,1-.81,2-1.24,2.93-1.06,2.35-2.07,4.71-3.1,7.07-.48,1.09-.89,2.22-1.42,3.28-.41.83-.77,1.67-1.12,2.52-.25.61-.16,1.29-.52,1.87s-.47.9-1.14.87c-.46,0-.54.5-.74.8a5,5,0,0,0-.41,1c-.69,1.82-1.52,3.58-2.32,5.35-.65,1.43-1.22,2.9-1.88,4.33-.43.91-.58,2-1.06,2.9a24.87,24.87,0,0,1-1.72,2.79,17.69,17.69,0,0,0-1.48,2.52c-.1.24-.28.44-.5.38s-.25-.34-.24-.58a8.93,8.93,0,0,1,.6-3.14,3.22,3.22,0,0,0-.07-2.1,6.71,6.71,0,0,1-.22-2.17c.1-1.28.56-1.71,1.78-1.33.54.18.72,0,.9-.45.6-1.58,1.32-3.12,2-4.66.8-1.77,1.51-3.57,2.35-5.32.16-.34.21-.6-.2-.79a.47.47,0,0,1-.18-.7,12.79,12.79,0,0,1,.88-1.73,23.49,23.49,0,0,0,1.36-2.92c.76-1.64,1.36-3.35,2.2-5a11,11,0,0,0,.46-1.12c.65-1.78,1.51-3.46,2.24-5.19,1-2.41,2.06-4.81,3.15-7.18.54-1.17.89-2.41,1.47-3.56,1.15-2.22,2-4.58,3.06-6.84.83-1.76,1.51-3.57,2.31-5.34.34-.74.42-1.63.82-2.37s.71-1.28,1-1.93c.38-.94,1.05-.73,1.72-.74C267.18,21.09,267.39,21.1,267.74,21.1Zm11.89,17c.31,0,.54-.07.32-.42a36.65,36.65,0,0,1-1.89-4.25c-.89-2-1.83-3.93-2.57-6a4.75,4.75,0,0,0-.58-1.06.48.48,0,0,0-.65-.22c-.22.15,0,.33.09.5s.16.47.26.7c.84,1.91,1.76,3.79,2.52,5.73.59,1.48,1.37,2.87,1.91,4.38C279.13,37.73,279.22,38.08,279.63,38.07ZM265.84,26.32a.22.22,0,0,0-.28-.21.65.65,0,0,0-.51.41c-.76,1.68-1.53,3.35-2.27,5-.46,1.05-.83,2.16-1.34,3.19s-.83,2-1.26,3c-.14.32,0,.36.3.36s.33-.19.44-.39c.86-1.67,1.46-3.46,2.27-5.16.93-1.94,1.7-4,2.55-5.93Z" style="fill:#1d1d1b"/><path d="M267.74,21.1a5.46,5.46,0,0,0,2.08-.2.31.31,0,0,1,.23,0c1.08.55,2.23.19,3.35.22.51,0,.88-.08,1.26.58.56.95,1,1.94,1.46,2.93a7.13,7.13,0,0,1,.31,1.27c.17.56.51,1.07.72,1.62.72,1.83,1.57,3.6,2.34,5.4.88,2,1.79,4,2.71,6,.71,1.53,1.29,3.13,2,4.67a47.59,47.59,0,0,0,2,4.56,12.12,12.12,0,0,1,.57,1.45c.69,1.69,1.47,3.34,2.19,5l3,6.81c.49,1.13,1.11,2.21,1.71,3.29.24.43.35.73-.19,1a.4.4,0,0,0-.17.63c.84,1.46,1.23,3.1,2.05,4.57a25.24,25.24,0,0,1,1,2.45c.48,1.11,1,2.21,1.44,3.33.14.34.33.37.63.22a1.28,1.28,0,0,1,.43-.14c1.06-.12,1.52.3,1.5,1.45a16,16,0,0,1-.17,2.3,5.93,5.93,0,0,0,.21,3,9.72,9.72,0,0,1,.22,2.34c0,.14,0,.34-.19.37s-.28-.12-.35-.26c-1-1.88-2.32-3.56-3.32-5.43a8.42,8.42,0,0,1-1-2.57,3.09,3.09,0,0,0-.34-1c-.53-1-.85-2-1.29-3-1.1-2.45-2.21-4.9-3.2-7.4-.12-.31-.29-.56-.67-.5-.53.07-.74-.24-.94-.66-.57-1.23-.82-2.57-1.39-3.81-.94-2.06-1.85-4.14-2.76-6.21-.6-1.37-1.18-2.76-1.78-4.13-1-2.2-1.95-4.39-2.89-6.6-.52-1.24-1.17-2.42-1.62-3.7-.16-.47-.45-.9-1.09-.83a.26.26,0,0,1-.32-.17c0-.18.11-.24.24-.26.41-.07.35-.3.26-.6a38.47,38.47,0,0,0-1.67-4c-.91-2.14-1.82-4.28-2.81-6.39-.34-.71-.71-1.4-1-2.12a1.18,1.18,0,0,0-1.14-.55,27.86,27.86,0,0,0-2.89,0c-.87,0-1.2.77-1.47,1.44-.73,1.82-1.55,3.6-2.31,5.4-1,2.35-2,4.71-3,7-1.16,2.53-2.2,5.11-3.41,7.62-.45,1-.81,2-1.24,2.93-1.06,2.35-2.07,4.71-3.1,7.07-.48,1.09-.89,2.22-1.42,3.28-.41.83-.77,1.67-1.12,2.52-.25.61-.16,1.29-.52,1.87s-.47.9-1.14.87c-.46,0-.54.5-.74.8a5,5,0,0,0-.41,1c-.69,1.82-1.52,3.58-2.32,5.35-.65,1.43-1.22,2.9-1.88,4.33-.43.91-.58,2-1.06,2.9a24.87,24.87,0,0,1-1.72,2.79,17.69,17.69,0,0,0-1.48,2.52c-.1.24-.28.44-.5.38s-.25-.34-.24-.58a8.93,8.93,0,0,1,.6-3.14,3.22,3.22,0,0,0-.07-2.1,6.71,6.71,0,0,1-.22-2.17c.1-1.28.56-1.71,1.78-1.33.54.18.72,0,.9-.45.6-1.58,1.32-3.12,2-4.66.8-1.77,1.51-3.57,2.35-5.32.16-.34.21-.6-.2-.79a.47.47,0,0,1-.18-.7,12.79,12.79,0,0,1,.88-1.73,23.49,23.49,0,0,0,1.36-2.92c.76-1.64,1.36-3.35,2.2-5a11,11,0,0,0,.46-1.12c.65-1.78,1.51-3.46,2.24-5.19,1-2.41,2.06-4.81,3.15-7.18.54-1.17.89-2.41,1.47-3.56,1.15-2.22,2-4.58,3.06-6.84.83-1.76,1.51-3.57,2.31-5.34.34-.74.42-1.63.82-2.37s.71-1.28,1-1.93c.38-.94,1.05-.73,1.72-.74C267.18,21.09,267.39,21.1,267.74,21.1Zm11.89,17c.31,0,.54-.07.32-.42a36.65,36.65,0,0,1-1.89-4.25c-.89-2-1.83-3.93-2.57-6a4.75,4.75,0,0,0-.58-1.06.48.48,0,0,0-.65-.22c-.22.15,0,.33.09.5s.16.47.26.7c.84,1.91,1.76,3.79,2.52,5.73.59,1.48,1.37,2.87,1.91,4.38C279.13,37.73,279.22,38.08,279.63,38.07ZM265.84,26.32a.22.22,0,0,0-.28-.21.65.65,0,0,0-.51.41c-.76,1.68-1.53,3.35-2.27,5-.46,1.05-.83,2.16-1.34,3.19s-.83,2-1.26,3c-.14.32,0,.36.3.36s.33-.19.44-.39c.86-1.67,1.46-3.46,2.27-5.16.93-1.94,1.7-4,2.55-5.93Z" style="fill:none;stroke:#fff;stroke-width:0.75px"/><g id="lkU3AF.tif"><path d="M303.61,53.18H232.84v-3.5h70.77Zm-.17-3.33h-.11c-.54,0-1.08-.06-1.62-.06l-15.83,0-10.87,0h-2.62a1.48,1.48,0,0,1-.37,0,1.58,1.58,0,0,0-.78,0c-.06,0-.12.12-.12.19s0,.34,0,.52-.06.15-.16.17H265.5c-.09,0-.13-.06-.12-.16a3.84,3.84,0,0,0,0-.48c0-.22-.06-.28-.28-.27l-.79,0-1,0H238.52c-1.29,0-2.58,0-3.87,0-.5,0-1,0-1.51,0a1.2,1.2,0,0,0-.2,0V53c.43,0,.84.08,1.25.09l3.72,0h33.55l-.15,0a.28.28,0,0,1,.15,0h2a1.63,1.63,0,0,1,.31,0,1.19,1.19,0,0,0,.77,0s.06,0,.09,0l.86,0h.1c.45,0,.9,0,1.35,0l2.25,0c.11,0,.22,0,.33.06l.22,0H280a2.11,2.11,0,0,0,.25,0c.11,0,.22-.05.32-.06h.58c.58,0,1.16,0,1.73,0a4.47,4.47,0,0,0,.52,0c.1,0,.21.05.31.05l17.54,0c.55,0,1.1,0,1.65,0,.22,0,.45,0,.67-.06,0-.61,0-1.19,0-1.77S303.47,50.33,303.44,49.85Z" style="fill:#fff"/><path d="M303.44,49.85c0,.48.08.94.1,1.4s0,1.16,0,1.77c-.22,0-.45.06-.67.06-.55,0-1.1,0-1.65,0l-17.54,0c-.1,0-.21-.06-.31-.05a4.47,4.47,0,0,1-.52,0c-.57,0-1.15,0-1.73,0h-.58c-.1,0-.21,0-.32.06a2.11,2.11,0,0,1-.25,0h-.28l-.22,0c-.11,0-.22-.06-.33-.06l-2.25,0c-.45,0-.9,0-1.35,0h-.1l-.86,0s-.07,0-.09,0a1.19,1.19,0,0,1-.77,0,1.63,1.63,0,0,0-.31,0h-2a.28.28,0,0,0-.15,0l.15,0H237.91l-3.72,0c-.41,0-.82-.06-1.25-.09V49.84a1.2,1.2,0,0,1,.2,0c.5,0,1,0,1.51,0,1.29,0,2.58,0,3.87,0h24.75l1,0,.79,0c.22,0,.28,0,.28.27a3.84,3.84,0,0,1,0,.48c0,.1,0,.15.12.16H271c.1,0,.17-.07.16-.17s0-.35,0-.52.06-.18.12-.19a1.58,1.58,0,0,1,.78,0,1.48,1.48,0,0,0,.37,0H275l10.87,0,15.83,0c.54,0,1.08,0,1.62.06Zm-8.93,2.79a8.46,8.46,0,0,1-4.06.17v0l.85.13h-1.08a1.26,1.26,0,0,0-.28,0v0h3v0h-2.75v0h3.94v0h-1c.34-.07.76-.15,1.17-.25a.39.39,0,0,0,.16-.1c.25,0,.42-.13.63-.19l0,0Zm-29.88-1.88h0a.52.52,0,0,1-.21-.41c0-.06-.06-.12-.1-.18l-.05-.06.19-.26H244.8c.41.06.81.1,1.2.19a7.26,7.26,0,0,1,1,.32,7.14,7.14,0,0,1,.71.4h0c0,.16.17.11.27.11h16.81v0Zm26.92-.85v0h-.3l-16.4,0h-2.59c-.14,0-.2,0-.19.18a5.72,5.72,0,0,1,0,.6l2.25-.11,0-.07c.18,0,.38.06.5,0s.55,0,.76-.21h0l1.1,0c.13,0,.27.06.4,0s.08,0,.13,0c.47,0,.94,0,1.41,0l1.45,0h.37l.65,0a4.89,4.89,0,0,1,.54,0c.53,0,1.05,0,1.58,0s1,0,1.49,0,1,0,1.46,0h.33a4.81,4.81,0,0,1,.64-.07,2,2,0,0,1,.91.07h0c.12-.09.25,0,.37,0a3,3,0,0,0,1-.07l.07,0-.37.19,0,0c.39-.12.77-.26,1.16-.35S291.14,50,291.55,49.91ZM245.2,52.2v-.05l.51-.06c.06,0,.15,0,.17-.09s.17-.23.32-.18a.36.36,0,0,0,.33-.17c.05-.16-.07-.19-.17-.24l-1.68-.75a1.6,1.6,0,0,0-1.35.05l.24.09a1.58,1.58,0,0,0-.76.24c-.1.06-.2.16-.32,0a.08.08,0,0,0-.07,0,.8.8,0,0,0-.23.1,1.12,1.12,0,0,0-.17.2.61.61,0,0,0,.16.12c.49.21,1,.39,1.46.62a2.07,2.07,0,0,0,1.42.21l.2,0v0Zm-10-1.8h.19c.36,0,.71-.07,1.07-.09l1.2,0c.41,0,.81,0,1.22,0h1.18c.41,0,.81,0,1.22-.06.05,0,.13,0,.14,0s.15.09.24.06c.31-.1.61-.21.92-.28s.78-.11,1.16-.16h-9.39c-.36,0-.3,0-.3.29v.39h.06l.07-.27a.28.28,0,0,0,.36.11.26.26,0,0,1,.15,0,.35.35,0,0,0,.35-.08s.16,0,.25-.08v0Zm56.4,1.33h-.06a.19.19,0,0,1,0-.08c0-.25,0-.5,0-.76a.26.26,0,0,0-.07-.14,1.22,1.22,0,0,0-.34.1,2.71,2.71,0,0,0-.25.19.43.43,0,0,0-.24.32c0,.23,0,.46,0,.68a.16.16,0,0,0,.09.13,4.18,4.18,0,0,0,.58.16c.09,0,.19.05.25-.06s.07,0,.11,0l1.12,0,.09,0a.85.85,0,0,0,.26,0,4.87,4.87,0,0,0,.52-.12.15.15,0,0,0,.13-.18c0-.38,0-.75-.07-1.13,0-.1-.07-.1-.14-.11l-.37-.06-.54-.12c.21,0,.22.19.22.36a.39.39,0,0,0,0,.18l-.09.14c0-.19-.17-.09-.3-.13l.11.09a.31.31,0,0,1,0,.52.9.9,0,0,1-.77,0,.29.29,0,0,1-.09-.42c.05,0,.12-.09.18-.14-.27,0-.29,0-.3.27C291.62,51.55,291.61,51.64,291.61,51.73ZM234.1,53l0,0h14.8l7.42,0c2.48,0,5,0,7.43,0h7.4V53L244.85,53l.41,0,.45-.06.42-.1a9.07,9.07,0,0,1-4.3-.2,6.51,6.51,0,0,0,1.9.4h-9.38Zm60.49-2.86v0a.71.71,0,0,1,.2,0l.78.13a.65.65,0,0,0,.14,0,1.35,1.35,0,0,1,.6,0c.14,0,.31-.07.45,0a2.07,2.07,0,0,0,.55,0q.65,0,1.29,0a1.48,1.48,0,0,1,.29.07c.13-.09.18-.1.42,0l.29,0a2.91,2.91,0,0,1,1.06,0h.06l1.24,0a.8.8,0,0,0,.27,0,.38.38,0,0,0,.19-.16c0-.24,0-.29-.24-.29H292.8a8.72,8.72,0,0,1,2.37.56l0-.06Zm-6,1.83v0a1.09,1.09,0,0,0-.25,0h-8.15l-2.84,0-4.16,0-11.38,0H248l-.16,0v0Zm0-1v-.05l-.19,0H271.91l-.3,0v.05Zm-47.86,0v0h-6.72v0Zm-6.72,1v.07h6.71l-.06-.12v.05Zm58.7-.75s0-.06,0-.09-.13-.14-.25-.17a.76.76,0,0,0-.78.12.27.27,0,0,0-.07.08s.05.06.08.06Zm9.61-.21v0h-6.77a.14.14,0,0,0,.11.08Zm-9.87.68c0-.18,0-.3-.26-.33s-.2,0-.22.1a.6.6,0,0,0,0,.4c0,.06.24,0,.36,0S292.48,51.64,292.52,51.57Zm3.24.33v0h4.72v0ZM265.67,51v0h5v0Zm35.12.87v0h1.14v0Zm1.6-1.52h0v.29h0Zm-55.28,2.07v0l-.37.15v0ZM287,53v0h.33v0Zm8.65-.94,0,0-.25.19,0,0Z"/><path d="M247.71,50.77a7.14,7.14,0,0,0-.71-.4,7.26,7.26,0,0,0-1-.32c-.39-.09-.79-.13-1.2-.19h19.67l-.19.26.05.06c0,.06.11.12.1.18a.52.52,0,0,0,.21.41c-.06,0-.14,0-.18-.09s-.21-.1-.34-.1h-.63c-.13,0-.26,0-.38,0l-.75,0h-.09a.58.58,0,0,1-.5-.1s-.12.07-.14.06-.26,0-.39-.08-.18-.08-.28-.09-.46-.06-.69-.08l-.78,0-1.11,0c-.29,0-.58,0-.86,0h-1.17l-1.24,0-.57,0-1.08,0-1.37,0a1.76,1.76,0,0,0-.56,0,2.22,2.22,0,0,1-.63,0c-.26,0-.53,0-.79,0a9.08,9.08,0,0,0-.91,0,1.78,1.78,0,0,1-.47-.06,8.22,8.22,0,0,0-.86,0,.13.13,0,0,0-.09,0C247.72,50.43,247.62,50.59,247.71,50.77Zm-.62-.55v.05l.23.11a.3.3,0,0,0,.13,0s0-.14-.08-.14A1.22,1.22,0,0,0,247.09,50.22Z" style="fill:#fff"/><path d="M247.71,50.77c-.09-.18,0-.34.07-.5a.13.13,0,0,1,.09,0,8.22,8.22,0,0,1,.86,0,1.78,1.78,0,0,0,.47.06,9.08,9.08,0,0,1,.91,0c.26,0,.53,0,.79,0a2.22,2.22,0,0,0,.63,0,1.76,1.76,0,0,1,.56,0l1.37,0,1.08,0,.57,0,1.24,0h1.17c.28,0,.57,0,.86,0l1.11,0,.78,0c.23,0,.46,0,.69.08s.18.07.28.09.27,0,.39.08.09,0,.14-.06a.58.58,0,0,0,.5.1h.09l.75,0c.12,0,.25,0,.38,0h.63c.13,0,.25,0,.34.1s.12.06.18.09h0a.83.83,0,0,1-.21.06l-5.6,0-1.46,0H248c-.08,0-.17,0-.26,0Z"/><path d="M291.55,49.91c-.41.06-.82.1-1.23.19s-.77.23-1.16.35l0,0,.37-.19-.07,0a3,3,0,0,1-1,.07c-.12,0-.25-.06-.37,0h0a2,2,0,0,0-.91-.07,4.81,4.81,0,0,0-.64.07h-.33c-.48,0-1,0-1.46,0s-1,0-1.49,0-1.05,0-1.58,0a4.89,4.89,0,0,0-.54,0l-.65,0H280l-1.45,0c-.47,0-.94,0-1.41,0-.05,0-.1,0-.13,0s-.27,0-.4,0l-1.1,0h0c-.21.21-.52.08-.76.21s-.32,0-.5,0l0,.07-2.25.11a5.72,5.72,0,0,0,0-.6c0-.16.05-.19.19-.18h2.59l16.4,0h.3Z" style="fill:#fff"/><path d="M245.2,52.2l.07,0v0l-.2,0a2.07,2.07,0,0,1-1.42-.21c-.48-.23-1-.41-1.46-.62a.61.61,0,0,1-.16-.12,1.12,1.12,0,0,1,.17-.2.8.8,0,0,1,.23-.1.08.08,0,0,1,.07,0c.12.14.22,0,.32,0a1.58,1.58,0,0,1,.76-.24l-.24-.09a1.6,1.6,0,0,1,1.35-.05l1.68.75c.1.05.22.08.17.24a.36.36,0,0,1-.33.17c-.15,0-.25,0-.32.18s-.11.08-.17.09l-.51.06Zm-1.43-1h0c-.13.15-.13.19.06.3a1.66,1.66,0,0,0,1.11.21l-.37.17v0l1-.38v0h-.12l-.15,0-1-.43c-.06,0-.11,0-.16,0a.64.64,0,0,0-.19.08l-.61.25v0l.19-.06Z" style="fill:#fff"/><path d="M235.21,50.4l.1-.12v0c-.09,0-.2,0-.25.08a.35.35,0,0,1-.35.08.26.26,0,0,0-.15,0,.28.28,0,0,1-.36-.11l-.07.27h-.06v-.39c0-.32-.06-.29.3-.29h9.39c-.38.05-.78.08-1.16.16s-.61.18-.92.28c-.09,0-.18.09-.24-.06s-.09,0-.14,0c-.41,0-.81,0-1.22.06h-1.18c-.41,0-.81,0-1.22,0l-1.2,0c-.36,0-.71.06-1.07.09Z" style="fill:#fff"/><path d="M291.61,51.73c0-.09,0-.18,0-.28,0-.25,0-.28.3-.27-.06,0-.13.09-.18.14a.29.29,0,0,0,.09.42.9.9,0,0,0,.77,0,.31.31,0,0,0,0-.52l-.11-.09c.13,0,.27-.06.3.13l.09-.14a.39.39,0,0,1,0-.18c0-.17,0-.32-.22-.36l.54.12.37.06c.07,0,.14,0,.14.11,0,.38.05.75.07,1.13a.15.15,0,0,1-.13.18,4.87,4.87,0,0,1-.52.12.85.85,0,0,1-.26,0l-.09,0-1.12,0s-.1,0-.11,0-.16.08-.25.06a4.18,4.18,0,0,1-.58-.16.16.16,0,0,1-.09-.13c0-.22,0-.45,0-.68a.43.43,0,0,1,.24-.32,2.71,2.71,0,0,1,.25-.19,1.22,1.22,0,0,1,.34-.1.26.26,0,0,1,.07.14c0,.26,0,.51,0,.76a.19.19,0,0,0,0,.08Zm-.05.16v0h1.33v0Z" style="fill:#fff"/><path d="M234.1,53l.25,0h9.38a6.51,6.51,0,0,1-1.9-.4,9.07,9.07,0,0,0,4.3.2l-.42.1-.45.06-.41,0,26.28.06v.05h-7.4c-2.47,0-5,0-7.43,0l-7.42,0h-14.8Zm8.53,0v0h2.59v0Z" style="fill:#fff"/><path d="M294.59,50.14l.6.26,0,.06a8.72,8.72,0,0,0-2.37-.56h9.37c.24,0,.29.05.24.29a.38.38,0,0,1-.19.16.8.8,0,0,1-.27,0l-1.24,0h-.06a2.91,2.91,0,0,0-1.06,0l-.29,0c-.24-.05-.29,0-.42,0a1.48,1.48,0,0,0-.29-.07q-.64,0-1.29,0a2.07,2.07,0,0,1-.55,0c-.14,0-.31,0-.45,0a1.35,1.35,0,0,0-.6,0,.65.65,0,0,1-.14,0l-.78-.13a.71.71,0,0,0-.2,0Zm-.34-.09v0l-.41,0v0Z" style="fill:#fff"/><path d="M288.62,52l-40.75-.06v0l.16,0h13.82l11.38,0,4.16,0,2.84,0h8.15a1.09,1.09,0,0,1,.25,0Z" style="fill:#fff"/><path d="M247.73,50.78c.09,0,.18,0,.26,0h9.37l1.46,0,5.6,0a.83.83,0,0,0,.21-.06l.19.08v0H248C247.9,50.89,247.77,50.94,247.73,50.78Z" style="fill:#fff"/><path d="M288.66,50.92H271.61v-.05l.3,0h16.57l.19,0Z" style="fill:#fff"/><ellipse cx="237.44" cy="50.87" rx="4.75" ry="0.03" style="fill:#fff"/><path d="M234.08,51.85h6.64V51.8l.06.12h-6.71Z" style="fill:#fff"/><path d="M294.51,52.64a.39.39,0,0,1-.16.1c-.41.1-.83.18-1.17.25h1v0h-3.94v0H293v0h-3v0a1.26,1.26,0,0,1,.28,0h1.08l-.85-.13v0a8.46,8.46,0,0,0,4.06-.17Z" style="fill:#fff"/><path d="M292.78,51.1h-1s0,0-.08-.06a.27.27,0,0,1,.07-.08.76.76,0,0,1,.78-.12c.12,0,.23,0,.25.17S292.79,51.06,292.78,51.1Z" style="fill:#fff"/><path d="M302.39,50.89l-6.66,0a.14.14,0,0,1-.11-.08h6.77Z" style="fill:#fff"/><path d="M292.52,51.57c0,.07-.07.19-.11.2s-.33,0-.36,0a.6.6,0,0,1,0-.4c0-.11.1-.11.22-.1S292.5,51.39,292.52,51.57Z" style="fill:#fff"/><ellipse cx="298.12" cy="51.92" rx="3.34" ry="0.02" style="fill:#fff"/><ellipse cx="268.19" cy="51.03" rx="3.57" ry="0.01" style="fill:#fff"/><path d="M300.79,51.89h1.14v0h-1.14Z" style="fill:#fff"/><path d="M294.51,52.64l.61-.23,0,0c-.21.06-.38.23-.63.19Z" style="fill:#fff"/><path d="M302.39,50.37v.29h0v-.29Z" style="fill:#fff"/><path d="M247.11,52.44l-.37.14v0l.37-.15Z" style="fill:#fff"/><path d="M287,53h.33v0H287Z" style="fill:#fff"/><path d="M295.66,52.1l-.25.19,0,0,.25-.19Z" style="fill:#fff"/><path d="M247.09,50.22a1.22,1.22,0,0,1,.27,0s0,.09.08.14a.3.3,0,0,1-.13,0l-.23-.11Z"/><path d="M244.94,51.74a1.66,1.66,0,0,1-1.11-.21c-.19-.11-.19-.15-.06-.3a1.67,1.67,0,0,1,1.23.22c.09.06.16.12.08.23Zm-.29,0,0,0,.18,0a.43.43,0,0,0,.1-.09s0-.06-.08-.08c-.24-.09-.47-.19-.71-.27a.67.67,0,0,0-.28,0c-.08,0-.09.11,0,.14C244.12,51.55,244.39,51.65,244.65,51.76Z"/><path d="M245.08,51.68c.08-.11,0-.17-.08-.23a1.67,1.67,0,0,0-1.23-.22h0l.44-.17,1,.43.15,0Z" style="fill:#fff"/><path d="M245.08,51.68l.33-.14h.12v0l-1,.38v0l.37-.17Z"/><path d="M244.21,51.06l-.44.17-.32.11-.19.06v0l.61-.25a.64.64,0,0,1,.19-.08S244.15,51.05,244.21,51.06Z"/><path d="M291.56,51.89h1.33v0h-1.33Z"/><path d="M242.63,53h2.59v0h-2.59Z"/><path d="M294.25,50.05l-.4-.06v0l.41,0Z"/><path d="M244.65,51.76c-.26-.11-.53-.21-.79-.33-.07,0-.06-.11,0-.14a.67.67,0,0,1,.28,0c.24.08.47.18.71.27,0,0,0,.06.08.08a.43.43,0,0,1-.1.09l-.18,0Z" style="fill:#fff"/><path d="M303.61,53.18H232.84v-3.5h70.77Zm-.17-3.33h-.11c-.54,0-1.08-.06-1.62-.06l-15.83,0-10.87,0h-2.62a1.48,1.48,0,0,1-.37,0,1.58,1.58,0,0,0-.78,0c-.06,0-.12.12-.12.19s0,.34,0,.52-.06.15-.16.17H265.5c-.09,0-.13-.06-.12-.16a3.84,3.84,0,0,0,0-.48c0-.22-.06-.28-.28-.27l-.79,0-1,0H238.52c-1.29,0-2.58,0-3.87,0-.5,0-1,0-1.51,0a1.2,1.2,0,0,0-.2,0V53c.43,0,.84.08,1.25.09l3.72,0h33.55l-.15,0a.28.28,0,0,1,.15,0h2a1.63,1.63,0,0,1,.31,0,1.19,1.19,0,0,0,.77,0s.06,0,.09,0l.86,0h.1c.45,0,.9,0,1.35,0l2.25,0c.11,0,.22,0,.33.06l.22,0H280a2.11,2.11,0,0,0,.25,0c.11,0,.22-.05.32-.06h.58c.58,0,1.16,0,1.73,0a4.47,4.47,0,0,0,.52,0c.1,0,.21.05.31.05l17.54,0c.55,0,1.1,0,1.65,0,.22,0,.45,0,.67-.06,0-.61,0-1.19,0-1.77S303.47,50.33,303.44,49.85Z" style="fill:none;stroke:#fff"/><path d="M303.44,49.85c0,.48.08.94.1,1.4s0,1.16,0,1.77c-.22,0-.45.06-.67.06-.55,0-1.1,0-1.65,0l-17.54,0c-.1,0-.21-.06-.31-.05a4.47,4.47,0,0,1-.52,0c-.57,0-1.15,0-1.73,0h-.58c-.1,0-.21,0-.32.06a2.11,2.11,0,0,1-.25,0h-.28l-.22,0c-.11,0-.22-.06-.33-.06l-2.25,0c-.45,0-.9,0-1.35,0h-.1l-.86,0s-.07,0-.09,0a1.19,1.19,0,0,1-.77,0,1.63,1.63,0,0,0-.31,0h-2a.28.28,0,0,0-.15,0l.15,0H237.91l-3.72,0c-.41,0-.82-.06-1.25-.09V49.84a1.2,1.2,0,0,1,.2,0c.5,0,1,0,1.51,0,1.29,0,2.58,0,3.87,0h24.75l1,0,.79,0c.22,0,.28,0,.28.27a3.84,3.84,0,0,1,0,.48c0,.1,0,.15.12.16H271c.1,0,.17-.07.16-.17s0-.35,0-.52.06-.18.12-.19a1.58,1.58,0,0,1,.78,0,1.48,1.48,0,0,0,.37,0H275l10.87,0,15.83,0c.54,0,1.08,0,1.62.06Zm-8.93,2.79a8.46,8.46,0,0,1-4.06.17v0l.85.13h-1.08a1.26,1.26,0,0,0-.28,0v0h3v0h-2.75v0h3.94v0h-1c.34-.07.76-.15,1.17-.25a.39.39,0,0,0,.16-.1c.25,0,.42-.13.63-.19l0,0Zm-29.88-1.88h0a.52.52,0,0,1-.21-.41c0-.06-.06-.12-.1-.18l-.05-.06.19-.26H244.8c.41.06.81.1,1.2.19a7.26,7.26,0,0,1,1,.32,7.14,7.14,0,0,1,.71.4h0c0,.16.17.11.27.11h16.81v0Zm26.92-.85v0h-.3l-16.4,0h-2.59c-.14,0-.2,0-.19.18a5.72,5.72,0,0,1,0,.6l2.25-.11,0-.07c.18,0,.38.06.5,0s.55,0,.76-.21h0l1.1,0c.13,0,.27.06.4,0s.08,0,.13,0c.47,0,.94,0,1.41,0l1.45,0h.37l.65,0a4.89,4.89,0,0,1,.54,0c.53,0,1.05,0,1.58,0s1,0,1.49,0,1,0,1.46,0h.33a4.81,4.81,0,0,1,.64-.07,2,2,0,0,1,.91.07h0c.12-.09.25,0,.37,0a3,3,0,0,0,1-.07l.07,0-.37.19,0,0c.39-.12.77-.26,1.16-.35S291.14,50,291.55,49.91ZM245.2,52.2v-.05l.51-.06c.06,0,.15,0,.17-.09s.17-.23.32-.18a.36.36,0,0,0,.33-.17c.05-.16-.07-.19-.17-.24l-1.68-.75a1.6,1.6,0,0,0-1.35.05l.24.09a1.58,1.58,0,0,0-.76.24c-.1.06-.2.16-.32,0a.08.08,0,0,0-.07,0,.8.8,0,0,0-.23.1,1.12,1.12,0,0,0-.17.2.61.61,0,0,0,.16.12c.49.21,1,.39,1.46.62a2.07,2.07,0,0,0,1.42.21l.2,0v0Zm-10-1.8h.19c.36,0,.71-.07,1.07-.09l1.2,0c.41,0,.81,0,1.22,0h1.18c.41,0,.81,0,1.22-.06.05,0,.13,0,.14,0s.15.09.24.06c.31-.1.61-.21.92-.28s.78-.11,1.16-.16h-9.39c-.36,0-.3,0-.3.29v.39h.06l.07-.27a.28.28,0,0,0,.36.11.26.26,0,0,1,.15,0,.35.35,0,0,0,.35-.08s.16,0,.25-.08v0Zm56.4,1.33h-.06a.19.19,0,0,1,0-.08c0-.25,0-.5,0-.76a.26.26,0,0,0-.07-.14,1.22,1.22,0,0,0-.34.1,2.71,2.71,0,0,0-.25.19.43.43,0,0,0-.24.32c0,.23,0,.46,0,.68a.16.16,0,0,0,.09.13,4.18,4.18,0,0,0,.58.16c.09,0,.19.05.25-.06s.07,0,.11,0l1.12,0,.09,0a.85.85,0,0,0,.26,0,4.87,4.87,0,0,0,.52-.12.15.15,0,0,0,.13-.18c0-.38,0-.75-.07-1.13,0-.1-.07-.1-.14-.11l-.37-.06-.54-.12c.21,0,.22.19.22.36a.39.39,0,0,0,0,.18l-.09.14c0-.19-.17-.09-.3-.13l.11.09a.31.31,0,0,1,0,.52.9.9,0,0,1-.77,0,.29.29,0,0,1-.09-.42c.05,0,.12-.09.18-.14-.27,0-.29,0-.3.27C291.62,51.55,291.61,51.64,291.61,51.73ZM234.1,53l0,0h14.8l7.42,0c2.48,0,5,0,7.43,0h7.4V53L244.85,53l.41,0,.45-.06.42-.1a9.07,9.07,0,0,1-4.3-.2,6.51,6.51,0,0,0,1.9.4h-9.38Zm60.49-2.86v0a.71.71,0,0,1,.2,0l.78.13a.65.65,0,0,0,.14,0,1.35,1.35,0,0,1,.6,0c.14,0,.31-.07.45,0a2.07,2.07,0,0,0,.55,0q.65,0,1.29,0a1.48,1.48,0,0,1,.29.07c.13-.09.18-.1.42,0l.29,0a2.91,2.91,0,0,1,1.06,0h.06l1.24,0a.8.8,0,0,0,.27,0,.38.38,0,0,0,.19-.16c0-.24,0-.29-.24-.29H292.8a8.72,8.72,0,0,1,2.37.56l0-.06Zm-6,1.83v0a1.09,1.09,0,0,0-.25,0h-8.15l-2.84,0-4.16,0-11.38,0H248l-.16,0v0Zm0-1v-.05l-.19,0H271.91l-.3,0v.05Zm-47.86,0v0h-6.72v0Zm-6.72,1v.07h6.71l-.06-.12v.05Zm58.7-.75s0-.06,0-.09-.13-.14-.25-.17a.76.76,0,0,0-.78.12.27.27,0,0,0-.07.08s.05.06.08.06Zm9.61-.21v0h-6.77a.14.14,0,0,0,.11.08Zm-9.87.68c0-.18,0-.3-.26-.33s-.2,0-.22.1a.6.6,0,0,0,0,.4c0,.06.24,0,.36,0S292.48,51.64,292.52,51.57Zm3.24.33v0h4.72v0ZM265.67,51v0h5v0Zm35.12.87v0h1.14v0Zm1.6-1.52h0v.29h0Zm-55.28,2.07v0l-.37.15v0ZM287,53v0h.33v0Zm8.65-.94,0,0-.25.19,0,0Z" style="fill:none;stroke:#fff"/><path d="M247.71,50.77a7.14,7.14,0,0,0-.71-.4,7.26,7.26,0,0,0-1-.32c-.39-.09-.79-.13-1.2-.19h19.67l-.19.26.05.06c0,.06.11.12.1.18a.52.52,0,0,0,.21.41c-.06,0-.14,0-.18-.09s-.21-.1-.34-.1h-.63c-.13,0-.26,0-.38,0l-.75,0h-.09a.58.58,0,0,1-.5-.1s-.12.07-.14.06-.26,0-.39-.08-.18-.08-.28-.09-.46-.06-.69-.08l-.78,0-1.11,0c-.29,0-.58,0-.86,0h-1.17l-1.24,0-.57,0-1.08,0-1.37,0a1.76,1.76,0,0,0-.56,0,2.22,2.22,0,0,1-.63,0c-.26,0-.53,0-.79,0a9.08,9.08,0,0,0-.91,0,1.78,1.78,0,0,1-.47-.06,8.22,8.22,0,0,0-.86,0,.13.13,0,0,0-.09,0C247.72,50.43,247.62,50.59,247.71,50.77Zm-.62-.55v.05l.23.11a.3.3,0,0,0,.13,0s0-.14-.08-.14A1.22,1.22,0,0,0,247.09,50.22Z" style="fill:none;stroke:#fff"/><path d="M247.71,50.77c-.09-.18,0-.34.07-.5a.13.13,0,0,1,.09,0,8.22,8.22,0,0,1,.86,0,1.78,1.78,0,0,0,.47.06,9.08,9.08,0,0,1,.91,0c.26,0,.53,0,.79,0a2.22,2.22,0,0,0,.63,0,1.76,1.76,0,0,1,.56,0l1.37,0,1.08,0,.57,0,1.24,0h1.17c.28,0,.57,0,.86,0l1.11,0,.78,0c.23,0,.46,0,.69.08s.18.07.28.09.27,0,.39.08.09,0,.14-.06a.58.58,0,0,0,.5.1h.09l.75,0c.12,0,.25,0,.38,0h.63c.13,0,.25,0,.34.1s.12.06.18.09h0a.83.83,0,0,1-.21.06l-5.6,0-1.46,0H248c-.08,0-.17,0-.26,0Z" style="fill:none;stroke:#fff"/><path d="M291.55,49.91c-.41.06-.82.1-1.23.19s-.77.23-1.16.35l0,0,.37-.19-.07,0a3,3,0,0,1-1,.07c-.12,0-.25-.06-.37,0h0a2,2,0,0,0-.91-.07,4.81,4.81,0,0,0-.64.07h-.33c-.48,0-1,0-1.46,0s-1,0-1.49,0-1.05,0-1.58,0a4.89,4.89,0,0,0-.54,0l-.65,0H280l-1.45,0c-.47,0-.94,0-1.41,0-.05,0-.1,0-.13,0s-.27,0-.4,0l-1.1,0h0c-.21.21-.52.08-.76.21s-.32,0-.5,0l0,.07-2.25.11a5.72,5.72,0,0,0,0-.6c0-.16.05-.19.19-.18h2.59l16.4,0h.3Z" style="fill:none;stroke:#fff"/><path d="M245.2,52.2l.07,0v0l-.2,0a2.07,2.07,0,0,1-1.42-.21c-.48-.23-1-.41-1.46-.62a.61.61,0,0,1-.16-.12,1.12,1.12,0,0,1,.17-.2.8.8,0,0,1,.23-.1.08.08,0,0,1,.07,0c.12.14.22,0,.32,0a1.58,1.58,0,0,1,.76-.24l-.24-.09a1.6,1.6,0,0,1,1.35-.05l1.68.75c.1.05.22.08.17.24a.36.36,0,0,1-.33.17c-.15,0-.25,0-.32.18s-.11.08-.17.09l-.51.06Zm-1.43-1h0c-.13.15-.13.19.06.3a1.66,1.66,0,0,0,1.11.21l-.37.17v0l1-.38v0h-.12l-.15,0-1-.43c-.06,0-.11,0-.16,0a.64.64,0,0,0-.19.08l-.61.25v0l.19-.06Z" style="fill:none;stroke:#fff"/><path d="M235.21,50.4l.1-.12v0c-.09,0-.2,0-.25.08a.35.35,0,0,1-.35.08.26.26,0,0,0-.15,0,.28.28,0,0,1-.36-.11l-.07.27h-.06v-.39c0-.32-.06-.29.3-.29h9.39c-.38.05-.78.08-1.16.16s-.61.18-.92.28c-.09,0-.18.09-.24-.06s-.09,0-.14,0c-.41,0-.81,0-1.22.06h-1.18c-.41,0-.81,0-1.22,0l-1.2,0c-.36,0-.71.06-1.07.09Z" style="fill:none;stroke:#fff"/><path d="M291.61,51.73c0-.09,0-.18,0-.28,0-.25,0-.28.3-.27-.06,0-.13.09-.18.14a.29.29,0,0,0,.09.42.9.9,0,0,0,.77,0,.31.31,0,0,0,0-.52l-.11-.09c.13,0,.27-.06.3.13l.09-.14a.39.39,0,0,1,0-.18c0-.17,0-.32-.22-.36l.54.12.37.06c.07,0,.14,0,.14.11,0,.38.05.75.07,1.13a.15.15,0,0,1-.13.18,4.87,4.87,0,0,1-.52.12.85.85,0,0,1-.26,0l-.09,0-1.12,0s-.1,0-.11,0-.16.08-.25.06a4.18,4.18,0,0,1-.58-.16.16.16,0,0,1-.09-.13c0-.22,0-.45,0-.68a.43.43,0,0,1,.24-.32,2.71,2.71,0,0,1,.25-.19,1.22,1.22,0,0,1,.34-.1.26.26,0,0,1,.07.14c0,.26,0,.51,0,.76a.19.19,0,0,0,0,.08Zm-.05.16v0h1.33v0Z" style="fill:none;stroke:#fff"/><path d="M234.1,53l.25,0h9.38a6.51,6.51,0,0,1-1.9-.4,9.07,9.07,0,0,0,4.3.2l-.42.1-.45.06-.41,0,26.28.06v.05h-7.4c-2.47,0-5,0-7.43,0l-7.42,0h-14.8Zm8.53,0v0h2.59v0Z" style="fill:none;stroke:#fff"/><path d="M294.59,50.14l.6.26,0,.06a8.72,8.72,0,0,0-2.37-.56h9.37c.24,0,.29.05.24.29a.38.38,0,0,1-.19.16.8.8,0,0,1-.27,0l-1.24,0h-.06a2.91,2.91,0,0,0-1.06,0l-.29,0c-.24-.05-.29,0-.42,0a1.48,1.48,0,0,0-.29-.07q-.64,0-1.29,0a2.07,2.07,0,0,1-.55,0c-.14,0-.31,0-.45,0a1.35,1.35,0,0,0-.6,0,.65.65,0,0,1-.14,0l-.78-.13a.71.71,0,0,0-.2,0Zm-.34-.09v0l-.41,0v0Z" style="fill:none;stroke:#fff"/><path d="M288.62,52l-40.75-.06v0l.16,0h13.82l11.38,0,4.16,0,2.84,0h8.15a1.09,1.09,0,0,1,.25,0Z" style="fill:none;stroke:#fff"/><path d="M247.73,50.78c.09,0,.18,0,.26,0h9.37l1.46,0,5.6,0a.83.83,0,0,0,.21-.06l.19.08v0H248C247.9,50.89,247.77,50.94,247.73,50.78Z" style="fill:none;stroke:#fff"/><path d="M288.66,50.92H271.61v-.05l.3,0h16.57l.19,0Z" style="fill:none;stroke:#fff"/><ellipse cx="237.44" cy="50.87" rx="4.75" ry="0.03" style="fill:none;stroke:#fff"/><path d="M234.08,51.85h6.64V51.8l.06.12h-6.71Z" style="fill:none;stroke:#fff"/><path d="M294.51,52.64a.39.39,0,0,1-.16.1c-.41.1-.83.18-1.17.25h1v0h-3.94v0H293v0h-3v0a1.26,1.26,0,0,1,.28,0h1.08l-.85-.13v0a8.46,8.46,0,0,0,4.06-.17Z" style="fill:none;stroke:#fff"/><path d="M292.78,51.1h-1s0,0-.08-.06a.27.27,0,0,1,.07-.08.76.76,0,0,1,.78-.12c.12,0,.23,0,.25.17S292.79,51.06,292.78,51.1Z" style="fill:none;stroke:#fff"/><path d="M302.39,50.89l-6.66,0a.14.14,0,0,1-.11-.08h6.77Z" style="fill:none;stroke:#fff"/><path d="M292.52,51.57c0,.07-.07.19-.11.2s-.33,0-.36,0a.6.6,0,0,1,0-.4c0-.11.1-.11.22-.1S292.5,51.39,292.52,51.57Z" style="fill:none;stroke:#fff"/><ellipse cx="298.12" cy="51.92" rx="3.34" ry="0.02" style="fill:none;stroke:#fff"/><ellipse cx="268.19" cy="51.03" rx="3.57" ry="0.01" style="fill:none;stroke:#fff"/><path d="M300.79,51.89h1.14v0h-1.14Z" style="fill:none;stroke:#fff"/><path d="M294.51,52.64l.61-.23,0,0c-.21.06-.38.23-.63.19Z" style="fill:none;stroke:#fff"/><path d="M302.39,50.37v.29h0v-.29Z" style="fill:none;stroke:#fff"/><path d="M247.11,52.44l-.37.14v0l.37-.15Z" style="fill:none;stroke:#fff"/><path d="M287,53h.33v0H287Z" style="fill:none;stroke:#fff"/><path d="M295.66,52.1l-.25.19,0,0,.25-.19Z" style="fill:none;stroke:#fff"/><path d="M247.09,50.22a1.22,1.22,0,0,1,.27,0s0,.09.08.14a.3.3,0,0,1-.13,0l-.23-.11Z" style="fill:none;stroke:#fff"/><path d="M244.94,51.74a1.66,1.66,0,0,1-1.11-.21c-.19-.11-.19-.15-.06-.3a1.67,1.67,0,0,1,1.23.22c.09.06.16.12.08.23Zm-.29,0,0,0,.18,0a.43.43,0,0,0,.1-.09s0-.06-.08-.08c-.24-.09-.47-.19-.71-.27a.67.67,0,0,0-.28,0c-.08,0-.09.11,0,.14C244.12,51.55,244.39,51.65,244.65,51.76Z" style="fill:none;stroke:#fff"/><path d="M245.08,51.68c.08-.11,0-.17-.08-.23a1.67,1.67,0,0,0-1.23-.22h0l.44-.17,1,.43.15,0Z" style="fill:none;stroke:#fff"/><path d="M245.08,51.68l.33-.14h.12v0l-1,.38v0l.37-.17Z" style="fill:none;stroke:#fff"/><path d="M244.21,51.06l-.44.17-.32.11-.19.06v0l.61-.25a.64.64,0,0,1,.19-.08S244.15,51.05,244.21,51.06Z" style="fill:none;stroke:#fff"/><path d="M291.56,51.89h1.33v0h-1.33Z" style="fill:none;stroke:#fff"/><path d="M242.63,53h2.59v0h-2.59Z" style="fill:none;stroke:#fff"/><path d="M294.25,50.05l-.4-.06v0l.41,0Z" style="fill:none;stroke:#fff"/><path d="M244.65,51.76c-.26-.11-.53-.21-.79-.33-.07,0-.06-.11,0-.14a.67.67,0,0,1,.28,0c.24.08.47.18.71.27,0,0,0,.06.08.08a.43.43,0,0,1-.1.09l-.18,0Z" style="fill:none;stroke:#fff"/></g><g style="opacity:0.75"><text transform="translate(10.52 57.19)" style="font-size:60px;fill:#fff;font-family:Raleway;letter-spacing:0.002994791666666667em">Gil<tspan x="72.49" y="0" style="letter-spacing:-0.024837239583333334em">l</tspan><tspan x="0" y="54">and</tspan><tspan style="letter-spacing:-0.002864583333333333em"><tspan x="0" y="108">A</tspan><tspan x="40.55" y="108" style="letter-spacing:0.0030110677083333335em">ssoci</tspan><tspan x="181.37" y="108" style="letter-spacing:-0.003841145833333333em">a</tspan><tspan x="214.01" y="108" style="letter-spacing:0.0030110677083333335em">tes</tspan></tspan></text><rect x="58.13" y="13.21" width="4.54" height="6.32" style="fill:#44868d"/><rect x="183.03" y="121.23" width="4.54" height="6.32" style="fill:#44868d"/></g></svg>