<svg version="1.1" id="a490aec1-7357-4117-99e1-a1b181c39b92" xmlns="http://www.w3.org/2000/svg" xmlns:xlink="http://www.w3.org/1999/xlink" x="0" y="0" viewBox="0 0 1920 178.4" xml:space="preserve"><style>.st2{fill:#00506c}.st6{fill:#bae8e2}.st7{fill:#e7ffff}.st8{fill:#88dbd5}.st9{fill:#27bef3}.st10{fill:#00d4ba}.st11{fill:#0047c3}.st12{fill:#0088de}.st17{fill:#00b7b2}.st18{opacity:.63}.st19{fill:#fff}.st20{fill:#00e5d2}.st21{fill:#b41c18}.st22{fill:#2cc9c4}.st23{fill:#56b5b0}.st24{fill:#92c4c4}.st25{opacity:.4}.st28{opacity:.63;fill:#fff;enable-background:new}</style><linearGradient id="SVGID_1_" gradientUnits="userSpaceOnUse" x1="58.924" y1="-154.94" x2="58.924" y2="-187.01" gradientTransform="matrix(1 0 0 -1 0 1.22)"><stop offset="0" stop-color="#58b3ff"/><stop offset="1" stop-color="#9a79ff"/></linearGradient><path d="M91.8 178.6H28.7c-2.2-1.8-4-4-5.3-6.6-1.2-2.5-1-5.5.6-7.8 1.2-1.6 3.1-2.5 4.6-3.8 2.1-1.9 3.2-4.6 4.8-7s3.9-4.6 6.7-4.5c2.2.1 4.2 1.6 6.4 1.8 3.3.3 6.1-2.2 9.1-3.6 5.1-2.4 11.1-1.6 16.5-.1 8.4 2.4 16.8 7 21.2 14.6 3.1 5.3 2.1 12-1.5 17z" fill="url(#SVGID_1_)"/><linearGradient id="SVGID_2_" gradientUnits="userSpaceOnUse" x1="22.307" y1="-113.22" x2="22.307" y2="-157.61" gradientTransform="matrix(1 0 0 -1 0 1.22)"><stop offset="0" stop-color="#58b3ff"/><stop offset="1" stop-color="#9a79ff"/></linearGradient><path d="M19.2 162.7c-4.5 1.2-9.7.6-13.1-2.5-3-2.8-4.2-7.1-4.8-11.2-1.3-8.4-1-18.2 5.3-23.9 4.4-3.9 10.8-5 16.5-3.6s10.7 5 14.5 9.4 6.8 9.8 6.1 15.5c-.8 6.3-5.2 7.9-10.2 9.7s-9.1 5.3-14.3 6.6z" fill="url(#SVGID_2_)"/><path class="st2" d="M40.5 178.6C36.2 164.4 29 151.2 19.4 140l1.5-1.4c9.8 11.5 17.2 24.9 21.5 39.4l-1.9.6z"/><linearGradient id="SVGID_3_" gradientUnits="userSpaceOnUse" x1="97.426" y1="-109.2" x2="97.426" y2="-171.42" gradientTransform="matrix(1 0 0 -1 0 1.22)"><stop offset="0" stop-color="#58b3ff"/><stop offset="1" stop-color="#9a79ff"/></linearGradient><path d="M87.9 159.8c-3.4-1.1-6.6-3.7-7.2-7.3-.5-2.6.5-5.4-.5-7.9-.9-2.2-3.1-3.6-4.7-5.4-4.3-4.9-3-13.6 2.5-17 3-1.8 6.9-2.3 9.3-4.8 2.2-2.3 2.7-5.8 4-8.8 1.8-3.9 5.6-7 9.8-7.3s8.7 2.8 9.4 7c.4 2.1-.2 4.4.1 6.5.6 3.9 3.8 6.8 6.6 9.7s5.4 6.7 4.3 10.5c-.8 2.7-3.3 4.8-3.5 7.6-.1 2.3 1.4 4.4 1.9 6.7 1.1 4.8-2.9 9.6-7.5 11.2-4.4 1.5-8.9.9-13.4.4-3.5-.4-7.5.1-11.1-1.1z" fill="url(#SVGID_3_)"/><path class="st2" d="M106.9 131.7l-1.1-1.1-6.7 6.6v-13.9h-1.5v28.6l-8.2-11.6-1.2.9 9.4 13.4v20.5h1.5v-35.8z"/><linearGradient id="SVGID_4_" gradientUnits="userSpaceOnUse" x1="52.173" y1="-67.05" x2="52.173" y2="-163.19" gradientTransform="matrix(1 0 0 -1 0 1.22)"><stop offset="0" stop-color="#58b3ff"/><stop offset="1" stop-color="#9a79ff"/></linearGradient><path d="M40.8 152.7c-3.5-.5-7-2.2-8.5-5.4-2.6-5.2.8-11.6-.6-17.3-1-3.7-4.1-7.4-2.6-11 1.3-3 5.4-4.2 6.3-7.4s-1.8-6.3-3.3-9.4c-2.2-4.8-1-10.5.3-15.7 1.2-5 2.6-10.1 5.5-14.3 2.5-3.5 6-6.2 8.6-9.7 1.3-2.1 2.7-4 4.2-5.9 1.6-1.8 4-3.2 6.4-2.9 3.2.4 5.3 3.5 6.1 6.6s.5 6.3 1.2 9.4c1.9 8.8 10.4 15.6 10.4 24.6 0 4.8-2.6 9.4-2.5 14.2 0 3.7 1.6 7.1 2.6 10.6s1.4 7.6-.6 10.6c-2.2 3.3-7.1 5.2-7.2 9.2-.1 2.6 1.9 4.8 2.2 7.4.3 3.6-3.3 6.7-6.9 7.2-4 .5-7.1-1.9-10.9-2-3.6.1-7 1.7-10.7 1.2z" fill="url(#SVGID_4_)"/><path class="st2" d="M62.5 103.5l-1.5-1-8.1 12.3V82.3H51v57l-10.4-10.8-1.3 1.3L51 141.9v30.9h1.9v-54.6z"/><defs><path id="SVGID_5_" d="M.7 0h960.1v178.5H.7z"/></defs><clipPath id="SVGID_6_"><use xlink:href="#SVGID_5_" overflow="visible"/></clipPath><g clip-path="url(#SVGID_6_)"><path class="st6" d="M483.4 79.6l-1.5 1.2c-7.7 6.2-15.5 12.6-21.4 20.4 6.2-2.1 16.3-6.9 27.3-13.2 2.7-1.5 5.2-3.1 7.6-4.6 2.6-4.4 4.8-8.9 6.7-13.6-5.4 2.5-11.9 5.8-18.7 9.8z"/><path class="st7" d="M481.9 80.8l1.5-1.2-.3.2c-17.2 9.9-30.1 19.8-28.8 22.1.5.8 2.8.5 6.2-.6 5.9-7.9 13.7-14.3 21.4-20.5z"/><path class="st8" d="M516.6 65.9c-.8-1.3-6.4.3-14.5 4-1.9 4.7-4.2 9.2-6.7 13.6 13.2-8.4 22.3-15.7 21.2-17.6z"/><path class="st7" d="M512.7.6c-2.1 0-3.9 10.6-4.5 25.1 1.8-7.2 4.1-14.2 6.7-21.1-.6-2.6-1.4-4-2.2-4z"/><path class="st6" d="M508.2 25.7c-.1 3.4-.2 7.1-.2 10.9 0 7.1.3 13.7.7 19.3 3.4-5.2 6.3-10.6 8.7-16.3v-3c0-13.9-1-25.9-2.6-31.9-2.5 6.9-4.8 13.9-6.6 21z"/><path class="st8" d="M512.7 72.6c2.5 0 4.5-14.5 4.7-33-2.4 5.7-5.4 11.1-8.7 16.3.9 10 2.3 16.7 4 16.7z"/><path class="st8" d="M508.8 65.9c-1.1 1.9 8 9.3 21.2 17.6-3.5-4.2-6.3-9-8.1-14.2-7.3-3.3-12.3-4.7-13.1-3.4z"/><path class="st7" d="M567.8 97.1c-5.5-.1-11-.7-16.4-1.7 10.8 5.3 18.8 8.1 19.7 6.5.6-.8-.7-2.5-3.3-4.8z"/><path class="st6" d="M542.4 79.8c-6.6-3.9-13.5-7.4-20.5-10.6 1.8 5.2 4.6 10 8.1 14.2 2.4 1.5 4.9 3 7.6 4.6 4.9 2.8 9.6 5.3 13.8 7.4 5.4 1 10.9 1.6 16.4 1.7-4.7-4.4-14.1-10.8-25.4-17.3z"/><path class="st9" d="M514 89.2c-1.8-2.8-3.6-5.5-5.6-8.1l-5.4 96.5c0 1.7 4.3 3.2 9.7 3.2h1.4c2-28.3 1-66.7-.1-91.6z"/><path class="st10" d="M512.8 65.7h-3.5l-.9 15.4c2 2.6 3.9 5.3 5.6 8.1-.5-11.4-1-20-1.2-23.5z"/><path class="st11" d="M517.8 95.5l-1.7-29.8h-3.3c.2 3.6.7 12.2 1.2 23.5 1.3 2 2.6 4.1 3.8 6.3z"/><path class="st12" d="M514 89.2c1.1 24.9 2.1 63.3.1 91.5 4.7-.2 8.3-1.5 8.3-3.1l-4.6-82.1c-1.2-2.2-2.5-4.3-3.8-6.3z"/><path class="st7" d="M519.1 68.1c0 3.5-2.8 6.3-6.3 6.3s-6.3-2.8-6.3-6.3 2.8-6.3 6.3-6.3c3.4 0 6.3 2.8 6.3 6.3z"/><path class="st8" d="M517.1 68.5c0 2.1-1.7 3.7-3.7 3.7s-3.7-1.7-3.7-3.7c0-2.1 1.7-3.7 3.7-3.7 2-.1 3.7 1.6 3.7 3.7z"/><path class="st6" d="M516.5 68.1c0 2.1-1.7 3.7-3.7 3.7s-3.7-1.7-3.7-3.7c0-2.1 1.7-3.7 3.7-3.7s3.7 1.6 3.7 3.7zM542 79.6l-1.5 1.2c-7.7 6.2-15.5 12.6-21.4 20.4 6.2-2.1 16.3-6.9 27.3-13.2 2.7-1.5 5.2-3.1 7.6-4.6 2.6-4.4 4.8-8.9 6.7-13.6-5.4 2.5-11.9 5.8-18.7 9.8z"/><path class="st7" d="M540.4 80.8l1.6-1.2-.3.2c-17.2 9.9-30.1 19.8-28.8 22.1.5.8 2.7.5 6.2-.6 5.8-7.9 13.7-14.3 21.3-20.5z"/><path class="st8" d="M575.2 65.9c-.8-1.3-6.4.3-14.5 4-1.9 4.7-4.2 9.2-6.7 13.6 13.2-8.4 22.3-15.7 21.2-17.6z"/><path class="st7" d="M571.3.6c-2.1 0-3.9 10.6-4.5 25.1 1.8-7.2 4.1-14.2 6.7-21.1-.7-2.6-1.4-4-2.2-4z"/><path class="st6" d="M566.8 25.7c-.2 3.4-.2 7.1-.2 10.9 0 7.1.3 13.7.7 19.3 3.4-5.2 6.3-10.6 8.7-16.3v-3c0-13.9-1-25.9-2.5-31.9-2.7 6.9-4.9 13.9-6.7 21z"/><path class="st8" d="M571.3 72.6c2.5 0 4.5-14.5 4.7-33-2.4 5.7-5.3 11.1-8.7 16.3.8 10 2.3 16.7 4 16.7z"/><path class="st8" d="M567.4 65.9c-1.1 1.9 8 9.3 21.2 17.6-3.5-4.2-6.3-9-8.1-14.2-7.3-3.3-12.3-4.7-13.1-3.4z"/><path class="st7" d="M626.4 97.1c-5.5-.1-11-.7-16.4-1.7 10.8 5.3 18.8 8.1 19.7 6.5.5-.8-.7-2.5-3.3-4.8z"/><path class="st6" d="M601 79.8c-6.6-3.9-13.5-7.4-20.5-10.6 1.8 5.2 4.6 10 8.1 14.2 2.4 1.5 5 3 7.6 4.6 4.9 2.8 9.6 5.3 13.8 7.4 5.4 1 10.9 1.6 16.4 1.7-4.8-4.4-14.2-10.8-25.4-17.3z"/><path class="st9" d="M572.6 89.2c-1.8-2.8-3.6-5.5-5.6-8.1l-5.4 96.5c0 1.7 4.3 3.2 9.7 3.2h1.4c2-28.3 1-66.7-.1-91.6z"/><path class="st10" d="M571.4 65.7h-3.5l-.9 15.4c2 2.6 3.9 5.3 5.6 8.1-.5-11.4-1-20-1.2-23.5z"/><path class="st11" d="M576.4 95.5l-1.7-29.8h-3.3c.2 3.6.7 12.2 1.2 23.5 1.3 2 2.6 4.1 3.8 6.3z"/><path class="st12" d="M572.6 89.2c1.1 24.9 2.1 63.3.1 91.5 4.7-.2 8.3-1.5 8.3-3.1l-4.6-82.1c-1.2-2.2-2.5-4.3-3.8-6.3z"/><path class="st7" d="M577.6 68.1c0 3.5-2.8 6.3-6.3 6.3s-6.3-2.8-6.3-6.3 2.8-6.3 6.3-6.3 6.3 2.8 6.3 6.3z"/><path class="st8" d="M575.7 68.5c0 2.1-1.7 3.7-3.7 3.7s-3.7-1.7-3.7-3.7c0-2.1 1.7-3.7 3.7-3.7 2-.1 3.7 1.6 3.7 3.7z"/><path class="st6" d="M575 68.1c0 2.1-1.7 3.7-3.7 3.7s-3.7-1.7-3.7-3.7c0-2.1 1.7-3.7 3.7-3.7s3.7 1.6 3.7 3.7zM691.1 92l-1.3 1.1c-6.7 5.4-13.6 11-18.7 17.9 5.4-1.8 14.3-6 24-11.6 2.3-1.3 4.6-2.7 6.7-4 2.3-3.8 4.2-7.8 5.9-11.9-4.9 2.1-10.6 5-16.6 8.5z"/><path class="st7" d="M689.8 93.1l1.3-1.1-.3.2c-15.1 8.7-26.4 17.4-25.3 19.4.4.7 2.4.5 5.5-.6 5.2-6.9 12-12.5 18.8-17.9z"/><path class="st8" d="M720.3 79.9c-.7-1.2-5.6.3-12.7 3.5-1.7 4.1-3.6 8.1-5.9 11.9 11.6-7.2 19.5-13.7 18.6-15.4z"/><path class="st7" d="M716.9 22.6c-1.9 0-3.4 9.3-4 22.1 1.6-6.3 3.6-12.4 5.9-18.5-.6-2.3-1.3-3.6-1.9-3.6z"/><path class="st6" d="M712.9 44.7c-.1 3-.2 6.2-.2 9.5 0 6.2.2 12.1.7 16.9 3-4.5 5.5-9.3 7.7-14.3v-2.7c0-12.2-.9-22.7-2.2-28-2.5 6.2-4.4 12.3-6 18.6z"/><path class="st8" d="M716.9 85.8c2.2 0 4-12.7 4.2-28.9-2.1 5-4.7 9.7-7.7 14.3.7 8.8 2 14.6 3.5 14.6z"/><path class="st8" d="M713.5 79.9c-1 1.7 7 8.2 18.6 15.4-3.1-3.7-5.5-7.9-7.1-12.5-6.5-2.8-10.9-4-11.5-2.9z"/><path class="st7" d="M765.2 107.3c-4.8-.1-9.6-.6-14.4-1.5 9.5 4.7 16.5 7.1 17.3 5.7.5-.7-.6-2.2-2.9-4.2z"/><path class="st6" d="M742.9 92.1c-5.8-3.4-11.8-6.5-18-9.2 1.6 4.5 4 8.8 7.1 12.5 2.1 1.3 4.3 2.7 6.7 4 4.3 2.5 8.4 4.7 12.1 6.5 4.7.9 9.5 1.4 14.4 1.5-4.2-3.9-12.4-9.6-22.3-15.3z"/><path class="st9" d="M718 100.4c-1.5-2.4-3.2-4.8-4.9-7.1l-4.7 84.7c0 1.5 3.8 2.8 8.5 2.8h1.2c1.7-24.9.8-58.5-.1-80.4z"/><path class="st10" d="M717 79.8h-3.1l-.8 13.5c1.7 2.3 3.4 4.7 4.9 7.1-.4-10-.9-17.5-1-20.6z"/><path class="st11" d="M721.3 105.9l-1.5-26.2H717c.2 3.1.6 10.7 1 20.6 1.2 1.9 2.3 3.8 3.3 5.6z"/><path class="st12" d="M718 100.4c.9 21.9 1.8 55.5.1 80.3 4.1-.2 7.3-1.4 7.3-2.8l-4-72c-1.1-1.8-2.2-3.7-3.4-5.5z"/><path class="st7" d="M722.4 81.9c0 3.1-2.5 5.6-5.5 5.6-3.1 0-5.6-2.5-5.6-5.5 0-3.1 2.5-5.6 5.5-5.6 3.1 0 5.6 2.4 5.6 5.5z"/><path class="st8" d="M720.7 82.2c0 1.8-1.5 3.3-3.3 3.3-1.8 0-3.3-1.5-3.3-3.3s1.5-3.3 3.3-3.3c1.8 0 3.3 1.5 3.3 3.3z"/><path class="st6" d="M720.1 81.9c0 1.8-1.5 3.3-3.3 3.3-1.8 0-3.3-1.5-3.3-3.3s1.5-3.3 3.3-3.3c1.9 0 3.3 1.5 3.3 3.3z"/><linearGradient id="SVGID_7_" gradientUnits="userSpaceOnUse" x1="350.101" y1="-112.58" x2="350.101" y2="-174.76" gradientTransform="matrix(1 0 0 -1 0 1.22)"><stop offset="0" stop-color="#58b3ff"/><stop offset="1" stop-color="#9a79ff"/></linearGradient><path d="M340.6 163.2c-3.4-1.1-6.5-3.7-7.2-7.3-.5-2.6.5-5.4-.5-7.9-.9-2.2-3.1-3.6-4.7-5.4-4.3-4.9-3-13.6 2.5-17 3-1.8 6.9-2.3 9.3-4.8 2.2-2.3 2.6-5.8 4-8.8 1.8-3.9 5.6-7 9.8-7.3s8.7 2.8 9.4 7c.4 2.1-.2 4.4.1 6.5.6 3.9 3.9 6.8 6.6 9.7s5.4 6.7 4.3 10.5c-.8 2.7-3.3 4.8-3.5 7.6-.1 2.3 1.4 4.4 1.9 6.7 1.1 4.8-2.9 9.6-7.5 11.2-4.4 1.5-8.9.9-13.4.4-3.5-.4-7.5 0-11.1-1.1z" fill="url(#SVGID_7_)"/><path class="st2" d="M359.6 135.1l-1.1-1.1-6.7 6.5v-13.8h-1.6v28.6l-8.1-11.6-1.3.9 9.4 13.3v20.6h1.6v-35.8z"/><linearGradient id="SVGID_8_" gradientUnits="userSpaceOnUse" x1="472.865" y1="-90.74" x2="472.865" y2="-170.38" gradientTransform="matrix(1 0 0 -1 0 1.22)"><stop offset="0" stop-color="#58b3ff"/><stop offset="1" stop-color="#9a79ff"/></linearGradient><path d="M463.5 161.9c-2.9-.4-5.8-1.9-7.1-4.4-2.2-4.3.7-9.6-.5-14.3-.8-3.1-3.4-6.1-2.1-9.1 1-2.5 4.5-3.5 5.3-6.1s-1.5-5.2-2.7-7.8c-1.9-4-.8-8.7.3-13 1-4.1 2.1-8.4 4.6-11.8 2.1-2.9 5-5.2 7.1-8.1 1.1-1.7 2.2-3.3 3.5-4.9 1.3-1.6 3.2-2.5 5.3-2.4 2.6.3 4.4 2.9 5 5.5s.5 5.2 1 7.8c1.5 7.3 8.6 12.9 8.6 20.4 0 4-2.1 7.8-2.1 11.8 0 3 1.3 5.9 2.1 8.8s1.2 6.3-.5 8.8c-1.8 2.8-5.8 4.3-6 7.6-.1 2.1 1.6 4 1.8 6.1.3 3-2.7 5.5-5.7 5.9-3.3.4-5.9-1.6-9-1.7-3 0-5.8 1.3-8.9.9z" fill="url(#SVGID_8_)"/><path class="st2" d="M481.5 121.2l-1.3-.9-6.7 10.2v-26.9h-1.6v47.2l-8.6-8.9-1.1 1 9.7 10.1v25.6h1.6v-45.3z"/><linearGradient id="SVGID_9_" gradientUnits="userSpaceOnUse" x1="531.36" y1="-155.97" x2="531.36" y2="-186.56" gradientTransform="matrix(1 0 0 -1 0 1.22)"><stop offset="0" stop-color="#58b3ff"/><stop offset="1" stop-color="#9a79ff"/></linearGradient><path d="M562.7 178.6h-60.1c-2.1-1.7-3.8-3.8-5-6.3-1.1-2.4-.9-5.2.6-7.4 1.2-1.5 3-2.4 4.4-3.6 2-1.8 3.1-4.4 4.5-6.6s3.7-4.4 6.4-4.3c2.1.1 4 1.5 6.1 1.7 3.2.3 5.8-2.1 8.7-3.4 4.8-2.3 10.5-1.6 15.7-.1 8.1 2.3 16 6.7 20.2 13.9 2.9 4.9 1.9 11.4-1.5 16.1z" fill="url(#SVGID_9_)"/><linearGradient id="SVGID_10_" gradientUnits="userSpaceOnUse" x1="610.781" y1="-125.5" x2="610.781" y2="-176.72" gradientTransform="matrix(1 0 0 -1 0 1.22)"><stop offset="0" stop-color="#58b3ff"/><stop offset="1" stop-color="#9a79ff"/></linearGradient><path d="M605.8 168.5c-3.1-.2-6.2-1.5-7.9-4-2.1-3-2-7.2-4.3-10-3.3-4-10.8-4.4-11.7-9.5-.5-2.7 1.4-5.2 3.5-6.9s4.7-2.8 6.7-4.5c3.9-3.5 5.3-9.1 9.4-12.3 5.7-4.3 13.8-2.1 20.6.4 4.3 1.6 8.8 3.2 12.2 6.3s5.7 8 4.3 12.4c-.6 2-2 4-1.8 6.1.2 1.9 1.6 3.4 2.3 5.1 2.3 5.2-1.7 11.5-7 13.8-4.8 2-9.3.8-14.3 1.2-4 .2-7.6 2.2-12 1.9z" fill="url(#SVGID_10_)"/><path class="st2" d="M622.5 151.4l-1-.9-6.8 8.1v-30.3h-1.4v18.3l-6.1-8.4-1 .8 7.1 9.9v29.7h1.4v-17.9z"/><path class="st10" d="M674.7 173.2c-1.1-2-3.2-3.2-5.2-4.1-2.5-1.1-5.1-1.9-7.8-2.4-7.3 1.8-12.5 6-12.5 8.9v1.4c0 .9.7 1.6 1.6 1.6h24.5c.4-1.9.2-3.8-.6-5.4z"/><path class="st17" d="M668.4 165.8c-2.3 0-4.5.3-6.7.8 2.7.5 5.3 1.3 7.8 2.4 2.1.9 4.1 2.1 5.2 4.1.8 1.7 1.1 3.6.6 5.4H686c.9 0 1.6-.7 1.6-1.6v-1.4c0-3.7-8.6-9.7-19.2-9.7z"/><path class="st12" d="M730.2 104.7h-92.5l-26.9 47.2h92.6z"/><path class="st11" d="M730.2 104.7l-26.8 47.2h-92.6l1.3 2.6h92.6l26.8-47.2z"/><path class="st6" d="M655.9 127l4.8-8.4 4.8-8.4h-24L632 127zm-25.4 2.7l-9.6 16.7h24l4.7-8.4 4.8-8.3zm38-19.5L659 127h25.4l4.8-8.4 4.7-8.4zm28.5 0l-9.5 16.8h24.4l9.5-16.8z"/><path class="st7" d="M726 107.5h-86.1l-11.7 20.6-11.9 21h86.1L715 127l11-19.5zm-52.7 38.9H648l9.5-16.8h25.4l-9.6 16.8zm-28.5 0h-23.9l9.5-16.8h23.9l-4.8 8.4-4.7 8.4zm20.6-36.2l-4.7 8.4-4.8 8.4H632l9.5-16.8h23.9zm23.8 8.4l-4.8 8.4H659l9.5-16.8h25.4l-4.7 8.4zm-1.7 8.4l9.5-16.8h24.4l-9.5 16.8h-24.4zm-6.3 11.1l4.8-8.4h24.4l-9.5 16.8h-24.4l4.7-8.4z"/><path class="st6" d="M710.4 129.7H686l-4.8 8.3-4.8 8.4h24.4zm-52.9 0l-9.5 16.7h25.3l9.6-16.7z"/><g class="st18"><path class="st19" d="M663 110.2l4.5-2.7h-12.7l-4.5 2.7-13.3 8-4.7 2.8-4.1 7.1-2.4 4.3 9.1-5.4zm45.1 19.5L680 146.4l-4.5 2.7h26.9l7.3-12.8 5.3-9.3 1.2-2.1zm-68.2 0l4.5-2.7 17.4-10.4 4.7-2.8 6-3.6 4.5-2.7h-4.2l-8.8 5.3-23.8 14.2-4.5 2.7-7.9 4.7-4.7 2.8-2.2 3.8 4.7-2.8zm21.3-2.7l28.1-16.8 4.5-2.7h-2.7l-4.5 2.7-27.4 16.4-5.2 3.1-28 16.7-4.5 2.7h2.6l4.5-2.7 24.6-14.6zm19.5 0l5.6-3.4 4.7-2.8 17.8-10.6 4.5-2.7h-4.2l-4.5 2.7-11.5 6.9-4.6 2.7-12 7.2-4.5 2.7-22 13.1-4.7 2.8-1.4.8-4.5 2.7h4.2l4.5-2.7 28.1-16.7z"/></g><path class="st17" d="M674.8 154.5H662v1.5c4.3 1.5 8.6 3.1 12.8 4.9v-6.4z"/><path class="st20" d="M662 155.9v12.2c0 1.7 2.9 3.1 6.4 3.1s6.4-1.4 6.4-3.1v-7.3c-4.2-1.7-8.5-3.4-12.8-4.9z"/><path class="st10" d="M904.3 173.2c-1.1-2-3.2-3.2-5.2-4.1-2.5-1.1-5.1-1.9-7.8-2.4-7.3 1.8-12.5 6-12.5 8.9v1.4c0 .9.7 1.6 1.6 1.6H905c.4-1.9.2-3.8-.7-5.4z"/><path class="st17" d="M898.1 165.8c-2.3 0-4.5.3-6.7.8 2.7.5 5.3 1.3 7.8 2.4 2.1.9 4.2 2.1 5.2 4.1.8 1.7 1.1 3.6.6 5.4h10.7c.9 0 1.6-.7 1.6-1.6v-1.4c-.1-3.7-8.6-9.7-19.2-9.7z"/><path class="st12" d="M959.9 104.7h-92.6l-26.8 47.2h92.6z"/><path class="st11" d="M959.9 104.7l-26.8 47.2h-92.6l1.3 2.6h92.6l26.8-47.2z"/><path class="st6" d="M885.6 127l4.8-8.4 4.7-8.4h-23.9l-9.5 16.8zm-25.5 2.7l-9.5 16.7h23.9l4.8-8.4 4.8-8.3zm38.1-19.5l-9.5 16.8h25.4l4.7-8.4 4.8-8.4zm28.5 0l-9.5 16.8h24.4l9.5-16.8z"/><path class="st7" d="M955.7 107.5h-86.1l-11.7 20.6-11.9 21h86.1l12.6-22.1 11-19.5zM903 146.4h-25.4l9.5-16.8h25.4l-9.5 16.8zm-28.5 0h-23.9l9.5-16.8H884l-4.8 8.4-4.7 8.4zm20.6-36.2l-4.8 8.4-4.8 8.4h-23.9l9.5-16.8h24zm23.7 8.4L914 127h-25.4l9.5-16.8h25.4l-4.7 8.4zm-1.6 8.4l9.5-16.8h24.4l-9.5 16.8h-24.4zm-6.3 11.1l4.8-8.4H940l-9.5 16.8h-24.4l4.8-8.4z"/><path class="st6" d="M940 129.7h-24.4l-4.7 8.3-4.8 8.4h24.4zm-52.8 0l-9.6 16.7H903l9.5-16.7z"/><g class="st18"><path class="st19" d="M892.7 110.2l4.5-2.7h-12.7l-4.5 2.7-13.4 8-4.6 2.8-4.1 7.1-2.4 4.3 9.1-5.4zm45.1 19.5l-28.1 16.7-4.5 2.7h26.9l7.3-12.8 5.3-9.3 1.2-2.1zm-68.2 0l4.5-2.7 17.4-10.4 4.7-2.8 6-3.6 4.5-2.7h-4.2l-8.8 5.3-23.8 14.2-4.5 2.7-8 4.7-4.6 2.8-2.2 3.8 4.7-2.8zm21.3-2.7l28.1-16.8 4.5-2.7h-2.7l-4.5 2.7-27.4 16.4-5.2 3.1-28.1 16.7-4.5 2.7h2.7l4.5-2.7 24.6-14.6zm19.5 0l5.6-3.4 4.7-2.8 17.8-10.6 4.5-2.7h-4.2l-4.5 2.7-11.5 6.9-4.7 2.7-11.9 7.2-4.5 2.7-22 13.1-4.7 2.8-1.4.8-4.5 2.7h4.2l4.5-2.7 28.1-16.7z"/></g><path class="st17" d="M904.5 154.5h-12.8v1.5c4.3 1.5 8.6 3.1 12.8 4.9v-6.4z"/><path class="st20" d="M891.7 155.9v12.2c0 1.7 2.9 3.1 6.4 3.1s6.4-1.4 6.4-3.1v-7.3c-4.2-1.7-8.5-3.4-12.8-4.9z"/><path class="st10" d="M766.4 174.4c-1-1.5-2.4-2.6-4.1-3.2-1.9-.8-3.9-1.5-6-1.9-5.6 1.4-9.7 4.6-9.7 6.9v1.1c0 .7.5 1.2 1.2 1.2h19c.5-1.4.3-2.8-.4-4.1z"/><path class="st17" d="M761.5 168.7c-1.8 0-3.5.2-5.2.6 2.1.4 4.1 1 6 1.9 1.7.6 3.1 1.7 4.1 3.2.7 1.3.8 2.8.5 4.2h8.3c.7 0 1.2-.5 1.2-1.2v-1.1c0-3-6.6-7.6-14.9-7.6z"/><path class="st12" d="M809.5 121.3h-71.8l-20.8 36.6h71.8z"/><path class="st11" d="M809.5 121.3l-20.8 36.6h-71.8l1 2h71.8l20.8-36.7z"/><path class="st6" d="M751.9 138.5l3.7-6.5 3.7-6.5h-18.6l-7.4 13zm-19.8 2.1l-7.4 13h18.6l3.7-6.5 3.7-6.5zm29.6-15.1l-7.4 13H774l3.7-6.5 3.7-6.5zm22.1 0l-7.4 13h18.9l7.4-13z"/><path class="st7" d="M806.3 123.4h-66.8l-9.1 16-9.3 16.3h66.8l9.8-17.2 8.6-15.1zm-40.9 30.2h-19.7l7.4-13h19.7l-7.4 13zm-22.1 0h-18.6l7.4-13h18.6l-3.7 6.5-3.7 6.5zm16-28.1l-3.7 6.5-3.7 6.5h-18.6l7.4-13h18.6zm18.4 6.5l-3.7 6.5h-19.7l7.4-13h19.7l-3.7 6.5zm-1.3 6.5l7.4-13h18.9l-7.4 13h-18.9zm-4.9 8.6l3.7-6.5h18.9l-7.4 13h-19l3.8-6.5z"/><path class="st6" d="M794.1 140.6h-18.9l-3.7 6.5-3.7 6.5h18.9zm-41 0l-7.4 13h19.7l7.4-13z"/><g class="st18"><path class="st19" d="M757.3 125.5l3.5-2.1H751l-3.5 2.1-10.3 6.2-3.7 2.2-3.1 5.5-1.9 3.3 7-4.2zm35.1 15.1l-21.8 13-3.5 2.1h20.8l5.7-9.9 4.1-7.3.9-1.6zm-53 0l3.5-2.1 13.6-8 3.6-2.2 4.6-2.8 3.5-2.1H765l-6.9 4.1-18.4 11-3.5 2.1-6.2 3.7-3.6 2.2-1.7 2.9 3.6-2.2zm16.6-2.1l21.8-13 3.5-2.1h-2.1l-3.5 2.1-21.3 12.7-4 2.4-21.8 13-3.5 2.1h2.1l3.5-2.1 19.1-11.4zm15.1 0l4.4-2.6 3.6-2.1 13.8-8.3 3.5-2.1h-3.3l-3.4 2.1-9 5.3-3.6 2.2-9.3 5.5-3.4 2.1-17.1 10.2-3.6 2.2-1.1.6-3.5 2.1h3.2l3.5-2.1 21.8-13z"/></g><path class="st17" d="M766.5 159.9h-9.9v1.1c3.3 1.2 6.6 2.4 9.9 3.8v-4.9z"/><path class="st20" d="M756.6 161v9.5c0 1.3 2.2 2.4 5 2.4s5-1.1 5-2.4v-5.7c-3.3-1.4-6.7-2.6-10-3.8z"/><path class="st11" d="M417.3 178.5h16.1v-28.2h-16.1v28.2z"/><path class="st12" d="M407.5 126.8c2.7 8 5.9 15.9 9.7 23.4h16.1c-3.8-7.6-7.1-15.4-9.7-23.4h-16.1z"/><path class="st17" d="M407.5 126.8c-3.4-10.7-3.3-15.7-3.3-15.7h-34.3c-.1 2.2-.4 4.4-.9 6.6l38.5 9.1z"/><path class="st10" d="M407.5 126.8l-38.5-9.1c-1.3 6.2-4.4 16.9-12.2 32.5v28.2h60.4v-28.2c-3.7-7.5-7-15.3-9.7-23.4z"/><path class="st11" d="M407.5 126.8h16.1c-3.4-10.7-3.3-15.7-3.3-15.7h-16.1s-.1 5.1 3.3 15.7z"/><path class="st17" d="M387.1 152c4.5 1.8 7.8 5.7 8.7 10.4l3.3 16.1h-5.9l-6.1-26.5z"/><path class="st7" d="M382.6 150.9c-5.9 0-10.7 4.8-10.7 10.7v16.9h21.4v-16.9c0-5.9-4.8-10.7-10.7-10.7z"/><path class="st12" d="M387.1 154.1c-4.3-2.5-9.9-1-12.4 3.3-.8 1.4-1.2 2.9-1.2 4.5v16.5h9.1v-16.5c0-3.2 1.7-6.2 4.5-7.8z"/><path class="st11" d="M387.1 154.1c-2.8 1.6-4.5 4.6-4.5 7.8v16.5h9.1v-16.5c0-3.2-1.7-6.2-4.6-7.8zm8-90.7c-1.5 0-3 .2-4.5.4 12 2.2 20.7 12.6 20.7 24.8v13.5h9.1V88.6c0-13.9-11.3-25.2-25.3-25.2z"/><path class="st12" d="M390.6 63.8c-12 2.2-20.7 12.6-20.7 24.8v13.5h41.4V88.6c0-12.2-8.7-22.6-20.7-24.8z"/><path class="st20" d="M367.9 102.1h39.6v9h-39.6z"/><path class="st21" d="M407.5 102.1h14.8v9h-14.8z"/><path class="st8" d="M451.1 34.7l-9.4-12.6-2.8 2 7.8 10.6-46.5 34.4 1.6 2.1z"/><path transform="rotate(-36.448 419.57 46.628)" class="st6" d="M390.6 40h57.8v13.2h-57.8z"/><path class="st11" d="M392.2 73.3c-6-.9-11.5 3.2-12.4 9.2-.9 6 3.2 11.5 9.2 12.4.2 0 .4 0 .6.1 6 .5 11.3-3.9 11.8-9.9.5-5.8-3.5-10.9-9.2-11.8z"/><path class="st8" d="M381.9 110l2.3-1.7-9.3-12.7-49.4 36.4 1.5 2 47-34.7z"/><path transform="rotate(-36.448 354.473 122.056)" class="st6" d="M325.3 115.4h58.4v13.3h-58.4z"/><path class="st7" d="M390.8 83.8l62.4-46.1c.8-.6 1-1.8.4-2.6s-1.8-1-2.6-.4l-62.4 46.1-46.1-62.4c-.6-.8-1.8-1-2.6-.4s-1 1.8-.4 2.6L385.6 83l-62.4 46.1c-.8.6-1 1.8-.4 2.6s1.8 1 2.6.4L387.8 86l46.2 62.5c.6.8 1.8 1 2.6.4s1-1.8.4-2.6l-46.2-62.5z"/><path class="st8" d="M414.2 89l-1-1.4-12.7 9.4 36.4 49.3 1.9-1.4L403.4 97z"/><path transform="rotate(-36.448 426.524 116.95)" class="st6" d="M419.8 87.2h13.5v59.6h-13.5z"/><path class="st8" d="M374.5 71.2l1.6-1.1-36.5-49.3-12.7 9.3 1.6 2.2 11.1-8.2z"/><path transform="rotate(-36.448 351.528 51.8)" class="st6" d="M344.6 22.5h13.8v58.6h-13.8z"/><path class="st22" d="M389.9 72.6c-.9-.1-1.8-.2-2.7-.1.2 0 .4 0 .5.1 6 .9 10.1 6.5 9.2 12.4-.7 4.9-4.7 8.7-9.7 9.2 6 .5 11.3-3.9 11.8-9.9.5-5.7-3.5-10.8-9.1-11.7z"/><path class="st6" d="M396.9 85.1c.9-5.9-3.2-11.5-9.1-12.4h-.1c-.2 0-.4 0-.5-.1-6 .6-10.4 6-9.7 12 .5 5 4.3 8.9 9.2 9.7l.6.1c4.8-.6 8.8-4.4 9.6-9.3z"/><path class="st12" d="M391.5 84.5c-.4 2.6-2.8 4.4-5.4 4s-4.4-2.8-4-5.4c.4-2.6 2.8-4.4 5.4-4 2.6.4 4.4 2.8 4 5.4z"/><path class="st22" d="M390.8 84.2c-.4 2.6-2.8 4.4-5.4 4s-4.4-2.8-4-5.4c.4-2.6 2.8-4.4 5.4-4 2.6.3 4.4 2.7 4 5.4z"/><path class="st17" d="M780.2 135v1.8l54.2 5.9V135z"/><path class="st20" d="M780.2 178.6h54.2v-35.9l-54.2-5.9z"/><path class="st10" d="M843.6 88.1h17.1v7.6h-17.1z"/><path class="st17" d="M854.5 88.1h6.2v7.6h-6.2z"/><path class="st11" d="M789.6 95.5h77.5l23.4 39.5H813z"/><path class="st12" d="M881.9 135l-18.6-32.8-18.7 32.8h-10.2v7.7l47.5 26.5z"/><path class="st22" d="M834.4 142.7v35.9h47.5v-9.4z"/><path class="st11" d="M861 149.8h17.4v28.8H861zm-19.7-4.5h16.6v18.4h-16.6z"/><path class="st9" d="M867.1 95.5h-77.5L767.2 135h77.4z"/><path class="st6" d="M785.7 145.1h43.8v15.7h-43.8z"/><path class="st7" d="M784.4 143.7v18.4h46.5v-18.4h-46.5zm45.1 17h-43.8V145h43.8v15.7z"/><path class="st11" d="M871.8 130c0-4.2-3.4-7.5-7.5-7.5-4.2 0-7.5 3.4-7.5 7.5 0 4.2 3.4 7.5 7.5 7.5s7.5-3.4 7.5-7.5z"/><path class="st11" d="M864.3 121.3c-4.8 0-8.7 3.9-8.7 8.7 0 4.8 3.9 8.7 8.7 8.7s8.7-3.9 8.7-8.7c0-4.8-3.9-8.7-8.7-8.7zm-7.5 8.7c0-4.2 3.4-7.5 7.5-7.5 4.2 0 7.5 3.4 7.5 7.5 0 4.2-3.4 7.5-7.5 7.5s-7.5-3.4-7.5-7.5z"/><path class="st23" d="M841.3 145.1h13.9v15.7h-13.9z"/><path class="st24" d="M840 143.7v18.4h16.6v-18.4H840zm15.3 17h-14V145h13.9l.1 15.7z"/><path class="st23" d="M870.2 128.4c0-4.2-3.4-7.5-7.5-7.5-4.2 0-7.5 3.4-7.5 7.5s3.4 7.5 7.5 7.5c4.2.1 7.5-3.3 7.5-7.5z"/><path class="st24" d="M862.7 119.7c-4.8 0-8.7 3.9-8.7 8.7 0 4.8 3.9 8.7 8.7 8.7s8.7-3.9 8.7-8.7c0-4.8-3.9-8.7-8.7-8.7zm-7.5 8.7c0-4.2 3.4-7.5 7.5-7.5 4.2 0 7.5 3.4 7.5 7.5s-3.4 7.5-7.5 7.5c-4.1.1-7.5-3.3-7.5-7.5z"/><path class="st17" d="M855.3 100.4l-3.3 1.3h-54.6l-8 14.1-6.9 12.2-2.3.9 1.1 1.2h58.9l8.6-15.1 7.6-13.3z"/><path class="st6" d="M807.3 113.7l3.3-5.7 3.2-5.7h-16.3l-6.6 11.4zm-17.4 1.9l-6.5 11.4h16.4l3.2-5.7 3.3-5.7zm26.1-13.3l-6.6 11.4h17.4l3.3-5.7 3.2-5.7zm19.5 0l-6.6 11.4h16.7l6.6-11.4z"/><path class="st7" d="M855.3 100.4h-58.9l-8 14.1-8.2 14.4h58.9l8.6-15.1 7.6-13.4zM819.2 127h-17.4l6.5-11.4h17.4l-6.5 11.4zm-19.4 0h-16.4l6.5-11.4h16.4l-3.3 5.7-3.2 5.7zm14-24.7l-3.3 5.7-3.3 5.7h-16.4l6.5-11.5h16.5zm16.3 5.7l-3.3 5.7h-17.4l6.6-11.5h17.4l-3.3 5.8zm-1.2 5.7l6.5-11.5h16.7l-6.5 11.5h-16.7zm-4.3 7.6l3.3-5.7h16.7l-6.5 11.5h-16.7l3.2-5.8z"/><path class="st6" d="M844.6 115.6h-16.7l-3.3 5.7-3.2 5.7h16.7zm-36.2 0l-6.5 11.4h17.3l6.6-11.4z"/><g class="st18"><path class="st19" d="M812.2 102.3l3-1.9h-8.6l-3.1 1.9-9.2 5.4-3.1 1.9-2.8 4.9-1.7 2.9 6.2-3.7zm30.8 13.3L823.8 127l-3.1 1.9h18.4l5-8.8 3.6-6.4.9-1.4zm-46.6 0l3-1.9 12-7.1 3.2-1.9 4.1-2.4 3-1.9h-2.8l-6.1 3.6-16.2 9.7-3.1 1.9-5.5 3.2-3.2 1.9-1.4 2.6 3.2-1.9zm14.5-1.9l19.3-11.4 3-1.9h-1.8l-3.1 1.9-18.7 11.1-3.6 2.2-19.2 11.4-3.1 1.9h1.9l3-1.9 16.9-10zm13.4 0l3.8-2.3 3.2-1.9 12.2-7.2 3.1-1.9h-2.9l-3.1 1.9-7.8 4.6-3.2 2-8.2 4.8-3.1 1.9-15 9-3.2 1.9-1 .5-3.1 1.9h2.9l3.1-1.9 19.2-11.4z"/></g><g class="st18"><path class="st19" d="M797.8 145.1l2.3-1.4h-6.9l-2.2 1.4-5.3 3.1-1.3.8v4l1.3-.8zm6.3 0l2.3-1.4h-2.7l-2.3 1.4-15.7 9.3-1.3.8v1.6l1.3-.8zm13.3-1.4h-1.5l-2.2 1.4-26.4 15.7-2.3 1.3h1.5l2.3-1.3 26.4-15.7zm12.1 4.5l-21 12.6-2.3 1.3h12.3l2.3-1.3 8.7-5.3 1.4-.8v-7.3z"/></g><g class="st25"><path class="st19" d="M867.1 122.3l1.1-.6c-.9-.8-2-1.3-3.2-1.6l-1.5.9-7.6 4.5-1.5.9c-.2.7-.3 1.4-.3 2.1 0 .5.1 1 .2 1.6l1.1-.6 11.7-7.2zm2.3.5l-1 .6-12.7 7.5-1 .6c.1.4.3.7.5 1.1l1-.6 12.9-7.7 1-.6c-.2-.2-.5-.6-.7-.9z"/></g><g class="st25"><path class="st19" d="M855.2 145.9l-13.9 8.3-1.3.8v1.6l1.3-.8 13.9-8.3 1.4-.8v-1.6zm-12.6 14.9l-2.3 1.3h1.5l2.3-1.3 11.1-6.7 1.4-.8v-.9l-1.4.8z"/></g><path class="st11" d="M870.2 158.8c1.3 2.4 2.5 4.9 3.6 7.3 1.4 3.2 2.7 6.4 3.7 9.7v-15.1c-2.5-.7-4.9-1.3-7.3-1.9z"/><path class="st11" d="M877.4 160.7V151h-11.5c1.5 2.6 2.9 5.1 4.2 7.8 2.5.6 4.9 1.2 7.3 1.9z"/><path class="st11" d="M865.9 151h-4v5.9c2.8.6 5.5 1.2 8.2 1.9-1.3-2.6-2.7-5.2-4.2-7.8z"/><path class="st12" d="M870.2 158.8c-2.7-.7-5.5-1.3-8.2-1.9v21.6h15.5v-2.7c-1-3.3-2.3-6.6-3.7-9.7-1.2-2.5-2.4-4.9-3.6-7.3z"/><linearGradient id="SVGID_11_" gradientUnits="userSpaceOnUse" x1="561.937" y1="-109.48" x2="556.847" y2="-165.51" gradientTransform="matrix(1 0 0 -1 0 1.22)"><stop offset="0" stop-color="#58b3ff"/><stop offset="1" stop-color="#9a79ff"/></linearGradient><path d="M540.8 120.2c1.2-4 3.6-7.8 7.3-9.7 5.3-2.8 12-1.1 17.3 1.9 6.8 4 12.5 10.4 14.3 18s-.8 16.5-7.2 21.1c-18.2 12.8-36.5-15.6-31.7-31.3z" fill="url(#SVGID_11_)"/><path class="st2" d="M546.7 178.6l-1.7-.3c2.8-20.7 7.8-41 15-60.5l1.6.6c-6.8 18.7-11.7 38-14.5 57.7h.1l-.5 2.5z"/><linearGradient id="SVGID_12_" gradientUnits="userSpaceOnUse" x1="438.572" y1="-138.58" x2="438.572" y2="-167.28" gradientTransform="matrix(1 0 0 -1 0 1.22)"><stop offset="0" stop-color="#58b3ff"/><stop offset="1" stop-color="#9a79ff"/></linearGradient><path d="M427.3 163.4c-3.5-2.6-4.8-7.3-5-11.6-.2-7.7 2.7-15.1 8.1-20.6 1.8-1.8 4-3.5 6.5-3.8 3.6-.4 6.9 2 9.3 4.8 3.8 4.5 6 10.1 7.5 15.8.9 3.6 1.6 7.4.7 11s-3.5 7-7.1 7.8c-4.4 1-6.2-3.3-9.7-3.5-3.8-.2-6 3.4-10.3.1z" fill="url(#SVGID_12_)"/><path transform="matrix(.9987 -.05007 .05007 .9987 -7.57 22.159)" class="st2" d="M437.7 145.8h1.7v32.8h-1.7z"/><path class="st9" d="M95.6 95.4h79.5v83.1H95.6z"/><path class="st12" d="M175.1 95.4h32.6v83.1h-32.6z"/><path class="st11" d="M101.6 104.5h73.5v7.8h-73.5zm73.5 0h26.1v7.8h-26.1zm-73.5 17.9h73.5v7.8h-73.5zm73.5 0h26.1v7.8h-26.1zm-73.5 17.9h73.5v7.8h-73.5zm73.5 0h26.1v7.8h-26.1z"/><path class="st7" d="M101.6 103h73.5v7.8h-73.5z"/><path class="st6" d="M175.1 103h26.1v7.8h-26.1z"/><path class="st7" d="M101.6 120.9h73.5v7.8h-73.5z"/><path class="st6" d="M175.1 120.9h26.1v7.8h-26.1z"/><path class="st7" d="M101.6 138.8h73.5v7.8h-73.5z"/><path class="st6" d="M175.1 138.8h26.1v7.8h-26.1z"/><path class="st11" d="M188.3 156.4c-1.9 0-3.5 1.5-3.5 3.4v18.7h6.9v-18.7c.1-1.8-1.5-3.4-3.4-3.4zm10.7 0c-1.9 0-3.5 1.5-3.5 3.5v18.7h6.9v-18.7c.1-1.9-1.5-3.5-3.4-3.5z"/><path class="st17" d="M187.1 156.4c-1.9 0-3.5 1.5-3.5 3.5v18.7h6.9v-18.7c0-1.9-1.5-3.5-3.4-3.5zm10.7 0c-1.9 0-3.5 1.5-3.5 3.4v18.7h6.9v-18.7c.1-1.8-1.5-3.4-3.4-3.4z"/><path class="st7" d="M105.6 81.8h25.8v13.6h-25.8z"/><path class="st12" d="M131.4 81.8h9.1v13.6h-9.1z"/><path class="st7" d="M154.7 81.8h25.8v13.6h-25.8z"/><path class="st12" d="M180.5 81.8h9.1v13.6h-9.1z"/><path class="st17" d="M109.2 163.8h11.9v14.7h-11.9z"/><path class="st20" d="M121.1 163.8v-4.9h-18.2v19.7h6.3v-14.8zm0-4.9v19.7h6.2v-14.8h11.8v-4.9z"/><path class="st17" d="M116.2 163.8h23v14.7h-23z"/><g class="st18"><path class="st19" d="M135.8 110.9l5.5-7.9h-7.2l-5.6 7.9zm-7.1 10h-7.3l-5.5 7.8h7.3zm-19.9 17.9l-5.5 7.8h7.3l5.5-7.8zm92.5-27.9v-6l-4.3 6zm-16.9 17.8h7.3l5.5-7.8h-7.3zm-9.3 13.2l-3.3 4.7h3.3zm2.2-3.1l-2.2 3.1v4.7h4l5.5-7.8zm-33.8-27.9l5.6-7.9h-1.6l-5.5 7.9zm-8.6 10l-5.6 7.8h1.6l5.5-7.8zm-12.7 17.9l-5.5 7.8h1.6l5.5-7.8zm76.4 0l-5.5 7.8h1.6l5.5-7.8zm-35.3-27.9l5.6-7.9h-9.8l-5.5 7.9zm-16.8 10l-5.5 7.8h9.7l5.5-7.8zm-12.6 17.9l-5.5 7.8h9.7l5.5-7.8zm36.4-27.9l4.8-6.9v-1h-1.2l-5.5 7.9z"/><path class="st19" d="M175.1 104l.7-1h-.7zm-13.8 16.9l-5.5 7.8h1.9l5.5-7.8zm-12.6 17.9l-5.6 7.8h1.9l5.6-7.8zm25.9-27.9l.5-.7v-2.7l-2.4 3.4zm.5-.7l5.1-7.2h-2l-3.1 4.5zm-9.5 10.7l-5.5 7.8h1.9l5.5-7.8zM153 138.8l-5.5 7.8h1.9l5.5-7.8zm31.4-27.9l5.5-7.9H188l-5.6 7.9zm-9.3 10.4l-5.3 7.4h1.9l3.4-4.8z"/><path class="st19" d="M175.1 123.9l2.2-3h-1.9l-.3.4zm-12.4 14.9l-5.5 7.8h1.9l5.5-7.8zm-46.1-27.9l5.6-7.9h-1.9l-5.5 7.9zm-8.9 10l-5.5 7.8h1.8l5.5-7.8zm9.9-17.9h-9.8l-5.5 7.9h9.8zm-16 17.9v4.8l3.4-4.8z"/></g><path class="st7" d="M156.1 158.9l-5.9 8.3h6l5.9-8.3zm8.3 0l-5.9 8.3h2.9l5.8-8.3zm4.7.6l-5.5 7.7h5.5z"/><path class="st19" d="M148.1 158.9v8.3h2.1l5.9-8.3zm14 0l-5.9 8.3h2.3l5.9-8.3zm7 0h-1.9l-5.8 8.3h2.2l5.5-7.7z"/><path class="st10" d="M197.9 66.9h45.8v111.7h-45.8z"/><path class="st11" d="M243.7 66.9H264v111.7h-20.3z"/><path class="st10" d="M202.2 39.8h38.2v27h-38.2z"/><path class="st11" d="M240.4 39.8h19.1v27h-19.1zm-36.5 122.7h13.5v16.1h-13.5z"/><path class="st6" d="M220.8 162.5h8.4v9.5h-8.4z"/><path class="st6" d="M229.2 162.5h8.4v9.5h-8.4zm18 0h6.7v9.5h-6.7zm6.7 0h6.7v9.5h-6.7z"/><path class="st9" d="M226.1 20.2c-10.3.6-18.4 9.2-18.4 19.5h36.8c0-10.3-8.1-18.9-18.4-19.5z"/><path class="st6" d="M215.1 46.5h5.5v5.7h-5.5zm6.9 0h5.5v5.7H222zm-13.7 7h5.5v5.7h-5.5zm20.5-7h5.5v5.7h-5.5zm-20.5 0h5.5v5.7h-5.5zm0 14h5.5v5.7h-5.5zm6.8-7h5.5v5.7h-5.5zm6.9 0h5.5v5.7H222zm6.8 7h5.5v5.7h-5.5zm-6.8 0h5.5v5.7H222zm6.8-7h5.5v5.7h-5.5zm-13.7 7h5.5v5.7h-5.5z"/><path class="st7" d="M215.1 67.5h20.5V45.2H207v22.3h8.1zm-6.8-21h5.5v5.7h-5.5v-5.7zm6.8 0h5.5v5.7h-5.5v-5.7zm6.9 0h5.5v5.7H222v-5.7zm6.8 0h5.5v5.7h-5.5v-5.7zm5.5 19.7h-5.5v-5.7h5.5v5.7zm-6.8 0H222v-5.7h5.5v5.7zm-6.8 0h-5.5v-5.7h5.5v5.7zm-5.5-12.7h5.5v5.7h-5.5v-5.7zm12.3 5.7H222v-5.7h5.5v5.7zm6.8 0h-5.5v-5.7h5.5v5.7zm-26-5.7h5.5v5.7h-5.5v-5.7zm0 7h5.5v5.7h-5.5v-5.7z"/><path class="st6" d="M204.6 105.2h7.1v6.3h-7.1zm0-22.8h7.1v6.3h-7.1zm16.9-7.5h7.1v6.3h-7.1zM204.6 90h7.1v6.3h-7.1zm0-15.1h7.1v6.3h-7.1zm8.4 0h7.1v6.3H213zm-8.4 22.7h7.1v6.3h-7.1zm0 15.2h7.1v6.3h-7.1zm0 22.7h7.1v6.3h-7.1zm0 15.1h7.1v6.3h-7.1zm0-7.5h7.1v6.3h-7.1zm0-15.2h7.1v6.3h-7.1zm0-7.6h7.1v6.3h-7.1zm16.9 15.2h7.1v6.3h-7.1zm-8.5 7.6h7.1v6.3H213zm0-7.6h7.1v6.3H213zm8.5 7.6h7.1v6.3h-7.1zm-8.5-22.8h7.1v6.3H213zm0 7.6h7.1v6.3H213zm0 22.7h7.1v6.3H213zm8.5-22.7h7.1v6.3h-7.1zm0-45.5h7.1v6.3h-7.1zm0 7.6h7.1v6.3h-7.1zm0 15.2h7.1v6.3h-7.1zm0-7.6h7.1v6.3h-7.1zm0 22.7h7.1v6.3h-7.1zm0-7.5h7.1v6.3h-7.1zm8.4 7.5h7.1v6.3h-7.1zm0-22.7h7.1v6.3h-7.1zm-16.9 7.6h7.1v6.3H213zm16.9-22.8h7.1v6.3h-7.1zm0 7.6h7.1v6.3h-7.1zm-8.4 60.6h7.1v6.3h-7.1zm-8.5-53h7.1v6.3H213zm0-15.2h7.1v6.3H213zm0 7.6h7.1v6.3H213zm16.9-15.1h7.1v6.3h-7.1z"/><path class="st7" d="M228.6 73.6h-25.3v84.6h35V73.6h-9.7zm8.4 83.3h-7.1v-6.3h7.1v6.3zm-8.4 0h-7.1v-6.3h7.1v6.3zm-8.5 0H213v-6.3h7.1v6.3zm-8.4 0h-7.1v-6.3h7.1v6.3zm-7.1-82h7.1v6.3h-7.1v-6.3zm8.4 0h7.1v6.3H213v-6.3zm8.4 0h7.1v6.3h-7.1v-6.3zm7.2 13.9h-7.1v-6.3h7.1v6.3zm0 7.5h-7.1V90h7.1v6.3zm0 7.6h-7.1v-6.3h7.1v6.3zm0 7.6h-7.1v-6.3h7.1v6.3zm0 7.6h-7.1v-6.3h7.1v6.3zm0 7.5h-7.1v-6.3h7.1v6.3zm0 7.6h-7.1v-6.3h7.1v6.3zm0 7.6h-7.1v-6.3h7.1v6.3zm0 7.6h-7.1v-6.3h7.1v6.3zm-15.6-6.3h7.1v6.3H213v-6.3zm0-7.6h7.1v6.3H213v-6.3zm0-7.6h7.1v6.3H213v-6.3zm0-7.6h7.1v6.3H213v-6.3zm0-7.5h7.1v6.3H213v-6.3zm0-7.6h7.1v6.3H213v-6.3zm0-7.6h7.1v6.3H213v-6.3zm0-7.6h7.1v6.3H213V90zm0-7.5h7.1v6.3H213v-6.3zm-8.4 0h7.1v6.3h-7.1v-6.3zm0 7.5h7.1v6.3h-7.1V90zm0 7.6h7.1v6.3h-7.1v-6.3zm0 7.6h7.1v6.3h-7.1v-6.3zm0 7.6h7.1v6.3h-7.1v-6.3zm0 7.5h7.1v6.3h-7.1v-6.3zm0 7.6h7.1v6.3h-7.1v-6.3zm0 7.6h7.1v6.3h-7.1v-6.3zm0 7.6h7.1v6.3h-7.1v-6.3zm32.4 6.2h-7.1V143h7.1v6.3zm0-7.5h-7.1v-6.3h7.1v6.3zm0-7.6h-7.1v-6.3h7.1v6.3zm0-7.6h-7.1v-6.3h7.1v6.3zm0-7.6h-7.1v-6.3h7.1v6.3zm0-7.5h-7.1v-6.3h7.1v6.3zm0-7.6h-7.1v-6.3h7.1v6.3zm0-7.6h-7.1V90h7.1v6.3zm0-7.6h-7.1v-6.3h7.1v6.3zm0-7.5h-7.1v-6.3h7.1v6.3z"/><path class="st6" d="M229.9 143.1h7.1v6.3h-7.1zm0-7.6h7.1v6.3h-7.1zm0 15.1h7.1v6.3h-7.1zm0-45.4h7.1v6.3h-7.1zm-16.9 7.6h7.1v6.3H213zm16.9 0h7.1v6.3h-7.1zm0 15.1h7.1v6.3h-7.1zm24.6-22.7h5.4v6.3h-5.4zm0-15.2h5.4v6.3h-5.4zm0 7.6h5.4v6.3h-5.4zm0-15.2h5.4v6.3h-5.4zm0-7.5h5.4v6.3h-5.4z"/><path class="st7" d="M254.5 73.6h-8v84.6h14.7V73.6h-6.7zm5.4 83.3h-5.4v-6.3h5.4v6.3zm-6.7 0h-5.4v-6.3h5.4v6.3zm-5.4-82h5.4v6.3h-5.4v-6.3zm0 7.6h5.4v6.3h-5.4v-6.3zm0 7.6h5.4v6.3h-5.4v-6.3zm0 7.6h5.4v6.3h-5.4v-6.3zm0 7.5h5.4v6.3h-5.4v-6.3zm0 7.6h5.4v6.3h-5.4v-6.3zm0 7.6h5.4v6.2h-5.4v-6.2zm0 7.6h5.4v6.3h-5.4V128zm0 7.6h5.4v6.3h-5.4v-6.3zm0 7.5h5.4v6.3h-5.4v-6.3zm12.1 6.3h-5.4v-6.3h5.4v6.3zm0-7.6h-5.4v-6.3h5.4v6.3zm0-7.5h-5.4V128h5.4v6.3zm0-7.6h-5.4v-6.3h5.4v6.3zm0-7.6h-5.4v-6.3h5.4v6.3zm0-7.6h-5.4v-6.3h5.4v6.3zm0-7.5h-5.4v-6.3h5.4v6.3zm0-7.6h-5.4v-6.3h5.4v6.3zm0-7.6h-5.4v-6.3h5.4v6.3zm0-7.6h-5.4v-6.3h5.4v6.3z"/><path class="st6" d="M254.5 112.8h5.4v6.3h-5.4zm0 37.8h5.4v6.3h-5.4zm-6.7 0h5.4v6.3h-5.4zm6.7-7.5h5.4v6.3h-5.4zm0-7.6h5.4v6.3h-5.4zm0-7.6h5.4v6.3h-5.4zm0-7.6h5.4v6.3h-5.4zm-6.7-15.1h5.4v6.3h-5.4zm0 15.1h5.4v6.3h-5.4zm0-30.3h5.4v6.3h-5.4zm0 7.6h5.4v6.3h-5.4zm0 15.2h5.4v6.3h-5.4zm0 30.3h5.4v6.3h-5.4zm0-15.2h5.4v6.3h-5.4zm0 7.6h5.4v6.3h-5.4zm0-53.1h5.4v6.3h-5.4zm0-7.5h5.4v6.3h-5.4zm3.3-28.4h4.2v5.7h-4.2zm-5.5 0h4.2v5.7h-4.2zm5.5 13.9h4.2v5.7h-4.2zm0-6.9h4.2v5.7h-4.2zm-5.5 6.9h4.2v5.7h-4.2z"/><path class="st7" d="M251.1 67.4h5.5V45.2h-12.2v22.2h6.7zm-5.5-20.9h4.2v5.7h-4.2v-5.7zm5.5 0h4.2v5.7h-4.2v-5.7zm4.1 19.6H251v-5.7h4.2v5.7zm0-7H251v-5.7h4.2v5.7zm-9.6-5.7h4.2v5.7h-4.2v-5.7zm0 7h4.2v5.7h-4.2v-5.7z"/><path class="st6" d="M245.6 53.5h4.2v5.7h-4.2zm-16.4 109h-2.7l-5.7 7.8v1.7h4.3l4.1-5.7zm-7.7 0l-.7.9v4.1l3.7-5zm5.1 9.5h2.6v-3.6zm2.6 0h8.5v-9.5h-4.1l-4.4 5.9z"/><path class="st6" d="M232.1 162.5h-2.9v3.8zm15.1 0v1.4l1-1.4zm13.4 9.5v-.7l-.5.7zm0-7.8l-5.8 7.8h4l1.8-2.4z"/><path class="st28" d="M220.8 162.5v.9l.7-.9zm3.7 0l-3.7 5v2.8l5.7-7.8zm4.7 5.9v-2.1l-4.1 5.7h1.5zm0 0l4.4-5.9h-1.5l-2.9 3.8zm24.7 3.6v-9.5h-5.7l-1 1.4v8.1zm6.7-9.5h-6.7v9.5h.9l5.8-7.8zm0 8.8v-1.7l-1.8 2.4h1.3z"/><g class="st18"><path class="st19" d="M212.8 60.5l-4.2 5.7-1 1.3h9l1-1.3 3.1-4.2 2-2.8 4.2-5.7 1.9-2.6 3.2-4.4 1-1.3h-9.1l-.9 1.3-1 1.4-1.3 1.8-1.9 2.5-.9 1.3-2.8 3.7-1.2 1.8-.2.2zm-7.1 21.9l.9-1.2 4.6-6.3 1-1.3h-8.9v12.1l1.3-1.8zm7.1-35.9l.9-1.3H207v9.2l1.6-2.2zm18.9 7l-2.9 3.9-1.3 1.8-.9 1.3-4.2 5.7-1 1.3h1.5l.9-1.3 3.7-5 1.4-2 4.2-5.7 1-1.3.2-.3 1.3-1.8v-2l-1.3 1.8-1.7 2.3zM206.3 90l1-1.3 4.4-6 1.3-1.8 4.4-6 1-1.3H217l-1 1.3-3 4-1.3 1.8-.3.5-.9 1.2-4.6 6.3-1 1.3-.3.4-1.3 1.8v2l1.3-1.8zm41.5 50.6l3.8-5.1.9-1.3.7-1 1.3-1.7 2.6-3.6 1-1.3 1.8-2.5 1.3-1.8v-1.9l-1.3 1.7-3.2 4.5-1 1.3-1.2 1.6-1.3 1.8-2.1 2.9-.9 1.3-2.4 3.2-1.3 1.7v2zM237 153.4l-2.6 3.5-.9 1.3h1.4l1-1.3 1.1-1.6 1.3-1.7v-2zm10.8-8.3l1.5-2 1-1.3 2.9-4.1 1.3-1.8.4-.4.9-1.3 4.1-5.6 1.3-1.8v-2l-1.3 1.8-.9 1.3-4.5 6.1-1.3 1.8-4.4 6-.9 1.3h-.1l-1.3 1.8v1.9zm-11 13.1h1.4l.1-.2v-1.9zM234 67.5h1.5l.1-.2v-1.9zm11.6-13.8l.2-.2.9-1.3 3.1-4.2 2-2.8h-1.4l-1 1.3-3.8 5.2-1.3 1.8v2zm-37.7 51.5l.9-1.3 2.9-4 1.3-1.8.4-.5 1-1.3L219 90l.9-1.3.3-.3 1.3-1.8 3-4.2 1-1.2 3.1-4.3 1.3-1.8.2-.2.9-1.3h-1.4l-1 1.3-4.6 6.3-.9 1.2-1.6 2.3-1.3 1.7-1.7 2.3-1 1.3-4.5 6.2-1.3 1.7-4.3 6-1 1.3-1.8 2.5-1.3 1.7v2l1.3-1.8zm-3.1 15.1l.9-1.3 4.6-6.2 1-1.4.4-.6 1.3-1.7 2.9-3.9 1-1.3 3.3-4.6 2.2-3L227 90l1-1.3.6-.9 1.3-1.7 2.7-3.7.9-1.2 3.5-4.9 1.3-1.7v-1h-3.1l-.9 1.3-4.4 5.9-1.3 1.8-4.5 6.1-1 1.3-1.6 2.3-1.3 1.8-1.6 2.2-1 1.3-4.6 6.2-1.3 1.8-4.3 5.8-.9 1.4-1.9 2.5-1.3 1.8v5.2l1.3-1.7zm39.5-53.9l1.3-1.7 3.1-4.3.9-1.2.2-.2 1.3-1.8 2.7-3.7.9-1.3.5-.7 1.3-1.8v-4.5h-.5l-1 1.3-3.9 5.4-1.3 1.8-4 5.5-1.5 2v4.4zm12 7.2l-1 1.3-.8 1.1-1.3 1.7-2.5 3.5-.9 1.2-2 2.7-1.3 1.8v16.2l1.3-1.8 2.8-3.7.9-1.3 1.7-2.4 1.3-1.7 1.6-2.2 1-1.3 2.8-3.9 1.3-1.8v-9.4zM237 99.8l-2.9 4.1-1 1.3-3.2 4.4-1.3 1.7-.1.1-.9 1.4-4.6 6.2-1 1.3-.5.8-1.3 1.7-2.8 3.8-.9 1.3-3.5 4.7-2.1 2.9-4.6 6.3-.9 1.3-.8 1-1.3 1.7v12.4h2.8l1-1.3 4.6-6.3 1.3-1.8 4.2-5.7 1-1.3 2-2.8 1.3-1.7 1.3-1.8.9-1.3 4.6-6.3 1.6-2.1 4-5.5.9-1.3 2.2-3 1.3-1.7V98.1zm0 24.2l-1.9 2.6-.9 1.3-4.3 5.9-1.3 1.7-4.6 6.3-.9 1.3-1.6 2.2-1.3 1.7-1.7 2.3-1 1.3-4.5 6.2-1 1.4h3.1l.9-1.3 4.2-5.6 1.4-2 4.6-6.2.9-1.3 1.5-2 1.3-1.8 1.9-2.5.9-1.3 4.3-5.9 1.3-1.8v-4.3zm10.8-10.4l.6-.8 1-1.4 3.8-5.2 1.7-2.3 4.6-6.3 1.7-2.3V91l-1.3 1.8-2.5 3.5-1 1.3-1.9 2.6-1.3 1.7-1.4 2-.9 1.3-3.1 4.1-1.3 1.8v4.2zm11.7 28.2l-1 1.3-4 5.4-1.6 2.1-4.6 6.3-.9 1.3h3.1l1-1.3 1.7-2.4 1.3-1.8 1.6-2.1.9-1.3 2.9-4 1.3-1.7v-4.3l-1.3 1.8z"/></g><path class="st11" d="M235.4 20.2h-8.2c-.4 0-.8 0-1.2.1 5.5.3 10.5 2.9 14 7.2h10.6c-3.6-4.7-9.2-7.3-15.2-7.3z"/><path class="st12" d="M240.1 27.4c2.9 3.5 4.4 7.8 4.4 12.4h10.6c0-4.5-1.5-8.9-4.4-12.4h-10.6z"/><linearGradient id="SVGID_13_" gradientUnits="userSpaceOnUse" x1="277.417" y1="-155.86" x2="277.417" y2="-186.62" gradientTransform="matrix(1 0 0 -1 0 1.22)"><stop offset="0" stop-color="#58b3ff"/><stop offset="1" stop-color="#9a79ff"/></linearGradient><path d="M308.9 178.6h-60.5c-2.2-1.7-3.9-3.8-5.1-6.3-1.1-2.4-.9-5.3.6-7.5 1.2-1.5 3-2.4 4.4-3.6 2-1.8 3.1-4.4 4.6-6.7s3.8-4.4 6.5-4.3c2.1.1 4 1.5 6.2 1.7 3.2.3 5.9-2.1 8.8-3.5 4.9-2.3 10.6-1.6 15.8-.1 8.1 2.3 16.1 6.7 20.3 14 2.9 5.1 1.9 11.5-1.6 16.3z" fill="url(#SVGID_13_)"/><linearGradient id="SVGID_14_" gradientUnits="userSpaceOnUse" x1="316.335" y1="-117.94" x2="316.335" y2="-176.63" gradientTransform="matrix(1 0 0 -1 0 1.22)"><stop offset="0" stop-color="#58b3ff"/><stop offset="1" stop-color="#9a79ff"/></linearGradient><path d="M310.6 167c-3.5-.3-7.1-1.8-9.1-4.6-2.4-3.4-2.3-8.2-4.9-11.5-3.8-4.6-12.4-5-13.4-10.8-.5-3 1.6-6 4-7.9s5.4-3.1 7.7-5.1c4.4-4 6-10.5 10.8-14.1 6.5-5 15.9-2.4 23.6.4 5 1.8 10.1 3.7 14 7.2s6.5 9.1 5 14.2c-.7 2.3-2.3 4.5-2 7 .2 2.2 1.8 3.9 2.7 5.9 2.7 6-1.9 13.2-8 15.8-5.6 2.3-10.6 1-16.4 1.4-4.9.2-9 2.5-14 2.1z" fill="url(#SVGID_14_)"/><path class="st2" d="M329.8 147.4l-1.2-1-7.8 9.3v-34.8h-1.6V142l-6.9-9.7-1.3 1 8.2 11.3v34h1.6v-20.5z"/></g><linearGradient id="SVGID_15_" gradientUnits="userSpaceOnUse" x1="1010.086" y1="-158.38" x2="1010.086" y2="-185.53" gradientTransform="matrix(1 0 0 -1 0 1.22)"><stop offset="0" stop-color="#58b3ff"/><stop offset="1" stop-color="#9a79ff"/></linearGradient><path d="M1037.9 178.6h-53.4c-1.9-1.5-3.4-3.4-4.5-5.6-1-2.1-.8-4.6.5-6.6 1-1.4 2.7-2.1 3.9-3.2 1.8-1.6 2.7-3.9 4-5.9s3.3-3.9 5.7-3.8c1.9.1 3.6 1.3 5.5 1.5 2.8.3 5.2-1.9 7.7-3 4.3-2 9.4-1.4 13.9-.1 7.1 2 14.2 5.9 17.9 12.4 2.7 4.4 1.9 10.1-1.2 14.3z" fill="url(#SVGID_15_)"/><linearGradient id="SVGID_16_" gradientUnits="userSpaceOnUse" x1="979.094" y1="-123.08" x2="979.094" y2="-160.65" gradientTransform="matrix(1 0 0 -1 0 1.22)"><stop offset="0" stop-color="#58b3ff"/><stop offset="1" stop-color="#9a79ff"/></linearGradient><path d="M976.5 165.2c-3.8 1-8.2.5-11.1-2.1-2.6-2.4-3.5-6-4.1-9.5-1.2-7.1-.8-15.4 4.5-20.2 3.7-3.3 9.2-4.2 14-3.1 4.8 1.4 9.1 4.2 12.3 8 3.2 3.6 5.7 8.3 5.2 13.1-.6 5.3-4.4 6.7-8.6 8.2s-7.9 4.4-12.2 5.6z" fill="url(#SVGID_16_)"/><path class="st2" d="M994.5 178.6c-3.6-12-9.7-23.2-17.9-32.7l1.3-1.1c8.3 9.7 14.5 21.1 18.2 33.3l-1.6.5z"/><linearGradient id="SVGID_17_" gradientUnits="userSpaceOnUse" x1="1042.65" y1="-119.67" x2="1042.65" y2="-172.33" gradientTransform="matrix(1 0 0 -1 0 1.22)"><stop offset="0" stop-color="#58b3ff"/><stop offset="1" stop-color="#9a79ff"/></linearGradient><path d="M1034.6 162.7c-2.9-.9-5.6-3.2-6.1-6.1-.4-2.2.4-4.6-.4-6.7-.8-1.9-2.6-3-4-4.5-3.7-4.1-2.6-11.5 2.1-14.4 2.6-1.5 5.8-1.9 7.9-4.1 1.9-2 2.2-4.9 3.4-7.4 1.5-3.4 4.6-5.8 8.3-6.2 3.6-.2 7.4 2.3 8 5.9.3 1.8-.2 3.7.1 5.5.5 3.3 3.3 5.8 5.6 8.2s4.6 5.7 3.7 8.9c-.7 2.3-2.8 4.1-3 6.4-.1 2 1.2 3.7 1.6 5.7.9 4.1-2.4 8.1-6.3 9.5-3.7 1.3-7.5.8-11.3.3-3.1-.4-6.5 0-9.6-1z" fill="url(#SVGID_17_)"/><path class="st2" d="M1050.7 138.9l-.9-.9-5.7 5.5v-11.7h-1.3V156l-6.9-9.8-1.1.8 8 11.3v17.4h1.3v-30.4z"/><linearGradient id="SVGID_18_" gradientUnits="userSpaceOnUse" x1="1004.361" y1="-84" x2="1004.361" y2="-165.36" gradientTransform="matrix(1 0 0 -1 0 1.22)"><stop offset="0" stop-color="#58b3ff"/><stop offset="1" stop-color="#9a79ff"/></linearGradient><path d="M994.8 156.7c-2.9-.4-5.9-1.9-7.2-4.5-2.2-4.4.7-9.8-.5-14.6-.8-3.1-3.4-6.2-2.2-9.3 1.1-2.6 4.5-3.6 5.4-6.2s-1.6-5.3-2.8-7.9c-1.9-4.1-.8-8.9.3-13.3 1.1-4.2 2.2-8.5 4.7-12.1 2.1-3 5.1-5.3 7.2-8.2 1.1-1.7 2.3-3.4 3.6-5 1.3-1.6 3.3-2.5 5.4-2.5 2.7.3 4.5 2.9 5.2 5.6s.5 5.4 1 8c1.6 7.5 8.8 13.2 8.8 20.8 0 4.1-2.2 7.9-2.1 12 0 3.1 1.3 6 2.2 9 .9 3 1.2 6.4-.5 9-1.9 2.8-6 4.4-6.1 7.8-.1 2.2 1.7 4.1 1.8 6.2.3 3.1-2.8 5.7-5.8 6.1-3.4.4-6-1.6-9.2-1.7-3.2-.2-6.1 1.2-9.2.8z" fill="url(#SVGID_18_)"/><path class="st2" d="M1013.1 115l-1.3-.8-6.8 10.4V97.1h-1.6v48.2l-8.8-9.1-1.1 1.1 9.9 10.3v26.1h1.6v-46.2z"/><defs><path id="SVGID_19_" d="M960.8 0h960.1v178.5H960.8z"/></defs><clipPath id="SVGID_20_"><use xlink:href="#SVGID_19_" overflow="visible"/></clipPath><g clip-path="url(#SVGID_20_)"><path class="st6" d="M1443.5 79.6l-1.5 1.2c-7.7 6.2-15.5 12.6-21.4 20.4 6.2-2.1 16.3-6.9 27.3-13.2 2.7-1.5 5.2-3.1 7.6-4.6 2.6-4.4 4.8-8.9 6.7-13.6-5.4 2.5-11.8 5.8-18.7 9.8z"/><path class="st7" d="M1442 80.8l1.5-1.2-.3.2c-17.2 9.9-30.1 19.8-28.8 22.1.5.8 2.8.5 6.2-.6 5.9-7.9 13.7-14.3 21.4-20.5z"/><path class="st8" d="M1476.7 65.9c-.8-1.3-6.4.3-14.5 4-1.9 4.7-4.2 9.2-6.7 13.6 13.3-8.4 22.3-15.7 21.2-17.6z"/><path class="st7" d="M1472.8.6c-2.1 0-3.9 10.6-4.5 25.1 1.8-7.2 4-14.2 6.7-21.1-.6-2.6-1.4-4-2.2-4z"/><path class="st6" d="M1468.3 25.7c-.1 3.4-.2 7.1-.2 10.9 0 7.1.3 13.7.7 19.3 3.4-5.2 6.3-10.6 8.7-16.3v-3c0-13.9-1-25.9-2.6-31.9-2.5 6.9-4.8 13.9-6.6 21z"/><path class="st8" d="M1472.8 72.6c2.5 0 4.5-14.5 4.7-33-2.4 5.7-5.4 11.1-8.7 16.3.9 10 2.4 16.7 4 16.7z"/><path class="st8" d="M1469 65.9c-1.1 1.9 8 9.3 21.2 17.6-3.5-4.2-6.3-9-8.1-14.2-7.4-3.3-12.4-4.7-13.1-3.4z"/><path class="st7" d="M1528 97.1c-5.5-.1-11-.7-16.4-1.7 10.8 5.3 18.8 8.1 19.7 6.5.5-.8-.8-2.5-3.3-4.8z"/><path class="st6" d="M1502.5 79.8c-6.6-3.9-13.5-7.4-20.5-10.6 1.8 5.2 4.6 10 8.1 14.2 2.4 1.5 4.9 3 7.6 4.6 4.9 2.8 9.6 5.3 13.8 7.4 5.4 1 10.9 1.6 16.4 1.7-4.7-4.4-14.1-10.8-25.4-17.3z"/><path class="st9" d="M1474.1 89.2c-1.8-2.8-3.6-5.5-5.6-8.1l-5.4 96.5c0 1.7 4.3 3.2 9.7 3.2h1.4c2-28.3 1-66.7-.1-91.6z"/><path class="st10" d="M1473 65.7h-3.5l-.9 15.4c2 2.6 3.9 5.3 5.6 8.1-.5-11.4-1-20-1.2-23.5z"/><path class="st11" d="M1477.9 95.5l-1.7-29.8h-3.3c.2 3.6.7 12.2 1.2 23.5 1.4 2 2.6 4.1 3.8 6.3z"/><path class="st12" d="M1474.1 89.2c1.1 24.9 2.1 63.3.1 91.5 4.7-.2 8.3-1.5 8.3-3.1l-4.6-82.1c-1.2-2.2-2.4-4.3-3.8-6.3z"/><path class="st7" d="M1479.2 68.1c0 3.5-2.8 6.3-6.3 6.3s-6.3-2.8-6.3-6.3 2.8-6.3 6.3-6.3c3.4 0 6.3 2.8 6.3 6.3z"/><path class="st8" d="M1477.2 68.5c0 2.1-1.7 3.7-3.7 3.7s-3.7-1.7-3.7-3.7c0-2.1 1.7-3.7 3.7-3.7 2-.1 3.7 1.6 3.7 3.7z"/><path class="st6" d="M1476.6 68.1c0 2.1-1.7 3.7-3.7 3.7-2.1 0-3.7-1.7-3.7-3.7 0-2.1 1.7-3.7 3.7-3.7s3.7 1.6 3.7 3.7zm25.5 11.5l-1.5 1.2c-7.7 6.2-15.5 12.6-21.4 20.4 6.2-2.1 16.3-6.9 27.3-13.2 2.7-1.5 5.2-3.1 7.6-4.6 2.6-4.4 4.8-8.9 6.7-13.6-5.4 2.5-11.9 5.8-18.7 9.8z"/><path class="st7" d="M1500.5 80.8l1.5-1.2-.3.2c-17.2 9.9-30.1 19.8-28.8 22.1.5.8 2.7.5 6.2-.6 5.9-7.9 13.8-14.3 21.4-20.5z"/><path class="st8" d="M1535.3 65.9c-.8-1.3-6.4.3-14.5 4-1.9 4.7-4.2 9.2-6.7 13.6 13.2-8.4 22.3-15.7 21.2-17.6z"/><path class="st7" d="M1531.4.6c-2.1 0-3.9 10.6-4.5 25.1 1.8-7.1 4.1-14.2 6.7-21.1-.6-2.6-1.4-4-2.2-4z"/><path class="st6" d="M1526.9 25.7c-.2 3.4-.2 7.1-.2 10.9 0 7.1.3 13.7.7 19.3 3.4-5.2 6.3-10.6 8.7-16.3v-3c0-13.9-1-25.9-2.6-31.9-2.6 6.9-4.8 13.9-6.6 21z"/><path class="st8" d="M1531.4 72.6c2.5 0 4.5-14.5 4.7-33-2.4 5.7-5.3 11.1-8.7 16.3.8 10 2.3 16.7 4 16.7z"/><path class="st8" d="M1527.5 65.9c-1.1 1.9 8 9.3 21.2 17.6-3.5-4.2-6.3-9-8.1-14.2-7.3-3.3-12.3-4.7-13.1-3.4z"/><path class="st7" d="M1586.5 97.1c-5.5-.1-11-.7-16.4-1.7 10.8 5.3 18.8 8.1 19.7 6.5.5-.8-.7-2.5-3.3-4.8z"/><path class="st6" d="M1561.1 79.8c-6.6-3.9-13.5-7.4-20.5-10.6 1.8 5.2 4.6 10 8.1 14.2 2.4 1.5 5 3 7.6 4.6 4.9 2.8 9.6 5.3 13.8 7.4 5.4 1 10.9 1.6 16.4 1.7-4.8-4.4-14.1-10.8-25.4-17.3z"/><path class="st9" d="M1532.7 89.2c-1.8-2.8-3.6-5.5-5.6-8.1l-5.4 96.5c0 1.7 4.3 3.2 9.7 3.2h1.4c2-28.3 1-66.7-.1-91.6z"/><path class="st10" d="M1531.5 65.7h-3.5l-.9 15.4c2 2.6 3.9 5.3 5.6 8.1-.5-11.4-1-20-1.2-23.5z"/><path class="st11" d="M1536.5 95.5l-1.7-29.8h-3.3c.2 3.6.7 12.2 1.2 23.5 1.3 2 2.6 4.1 3.8 6.3z"/><path class="st12" d="M1532.7 89.2c1.1 24.9 2.1 63.3.1 91.5 4.7-.2 8.3-1.5 8.3-3.1l-4.6-82.1c-1.2-2.2-2.5-4.3-3.8-6.3z"/><path class="st7" d="M1537.7 68.1c0 3.5-2.8 6.3-6.3 6.3s-6.3-2.8-6.3-6.3 2.8-6.3 6.3-6.3 6.3 2.8 6.3 6.3z"/><path class="st8" d="M1535.8 68.5c0 2.1-1.7 3.7-3.7 3.7-2.1 0-3.7-1.7-3.7-3.7 0-2.1 1.7-3.7 3.7-3.7 2-.1 3.7 1.6 3.7 3.7z"/><path class="st6" d="M1535.2 68.1c0 2.1-1.7 3.7-3.7 3.7s-3.7-1.7-3.7-3.7c0-2.1 1.7-3.7 3.7-3.7s3.6 1.6 3.7 3.7zm116 23.9l-1.3 1.1c-6.7 5.4-13.6 11-18.8 17.9 5.4-1.8 14.3-6 24-11.6 2.3-1.3 4.6-2.7 6.7-4 2.3-3.8 4.2-7.8 5.9-11.9-4.8 2.1-10.5 5-16.5 8.5z"/><path class="st7" d="M1649.9 93.1l1.3-1.1-.3.2c-15.1 8.7-26.4 17.4-25.3 19.4.4.7 2.4.5 5.5-.6 5.2-6.9 12-12.5 18.8-17.9z"/><path class="st8" d="M1680.4 79.9c-.7-1.2-5.6.3-12.7 3.5-1.7 4.1-3.6 8.1-5.9 11.9 11.6-7.2 19.5-13.7 18.6-15.4z"/><path class="st7" d="M1677 22.6c-1.9 0-3.4 9.3-4 22.1 1.6-6.3 3.6-12.4 5.9-18.5-.6-2.3-1.2-3.6-1.9-3.6z"/><path class="st6" d="M1673 44.7c-.1 3-.2 6.2-.2 9.5 0 6.2.2 12.1.7 16.9 3-4.5 5.5-9.3 7.7-14.3v-2.7c0-12.2-.9-22.7-2.2-28-2.4 6.2-4.4 12.3-6 18.6z"/><path class="st8" d="M1677 85.8c2.2 0 4-12.7 4.2-28.9-2.1 5-4.7 9.7-7.7 14.3.7 8.8 2 14.6 3.5 14.6z"/><path class="st8" d="M1673.6 79.9c-1 1.7 7 8.2 18.6 15.4-3.1-3.7-5.5-7.9-7.1-12.5-6.5-2.8-10.9-4-11.5-2.9z"/><path class="st7" d="M1725.3 107.3c-4.8-.1-9.6-.6-14.4-1.5 9.5 4.7 16.5 7.1 17.3 5.7.5-.7-.6-2.2-2.9-4.2z"/><path class="st6" d="M1703 92.1c-5.8-3.4-11.8-6.5-18-9.2 1.6 4.5 4 8.8 7.1 12.5 2.1 1.3 4.3 2.7 6.7 4 4.3 2.5 8.4 4.7 12.1 6.5 4.7.9 9.5 1.4 14.4 1.5-4.2-3.9-12.4-9.6-22.3-15.3z"/><path class="st9" d="M1678.1 100.4c-1.6-2.4-3.2-4.8-4.9-7.1l-4.7 84.7c0 1.5 3.8 2.8 8.5 2.8h1.2c1.7-24.9.8-58.5-.1-80.4z"/><path class="st10" d="M1677.1 79.8h-3.1l-.8 13.5c1.7 2.3 3.4 4.7 4.9 7.1-.4-10-.9-17.5-1-20.6z"/><path class="st11" d="M1681.4 105.9l-1.4-26.2h-2.9c.2 3.1.6 10.7 1 20.6 1.2 1.9 2.3 3.8 3.3 5.6z"/><path class="st12" d="M1678.1 100.4c.9 21.9 1.8 55.5.1 80.3 4.1-.2 7.3-1.4 7.3-2.8l-4-72c-1.1-1.8-2.2-3.7-3.4-5.5z"/><path class="st7" d="M1682.5 81.9c0 3.1-2.5 5.6-5.6 5.6-3.1 0-5.6-2.5-5.6-5.5 0-3.1 2.5-5.6 5.6-5.6 3.1-.1 5.6 2.4 5.6 5.5z"/><path class="st8" d="M1680.8 82.2c0 1.8-1.5 3.3-3.3 3.3s-3.3-1.5-3.3-3.3 1.5-3.3 3.3-3.3 3.3 1.5 3.3 3.3z"/><path class="st6" d="M1680.2 81.9c0 1.8-1.5 3.3-3.3 3.3-1.8 0-3.3-1.5-3.3-3.3s1.5-3.3 3.3-3.3c1.9 0 3.4 1.5 3.3 3.3z"/><linearGradient id="SVGID_21_" gradientUnits="userSpaceOnUse" x1="1310.211" y1="-112.58" x2="1310.211" y2="-174.76" gradientTransform="matrix(1 0 0 -1 0 1.22)"><stop offset="0" stop-color="#58b3ff"/><stop offset="1" stop-color="#9a79ff"/></linearGradient><path d="M1300.7 163.2c-3.4-1.1-6.5-3.7-7.2-7.3-.5-2.6.5-5.4-.5-7.9-.9-2.2-3.1-3.6-4.7-5.4-4.3-4.9-3-13.6 2.5-17 3-1.8 6.9-2.3 9.3-4.8 2.2-2.3 2.7-5.8 4-8.8 1.8-3.9 5.6-7 9.8-7.3s8.7 2.8 9.4 7c.4 2.1-.2 4.4.1 6.5.6 3.9 3.8 6.8 6.6 9.7s5.4 6.7 4.3 10.5c-.8 2.7-3.3 4.8-3.5 7.6-.1 2.3 1.4 4.4 1.9 6.7 1.1 4.8-2.9 9.6-7.5 11.2-4.4 1.5-8.9.9-13.4.4-3.5-.4-7.5 0-11.1-1.1z" fill="url(#SVGID_21_)"/><path class="st2" d="M1319.7 135.1l-1.1-1.1-6.7 6.5v-13.8h-1.5v28.6l-8.2-11.6-1.3.9 9.5 13.3v20.6h1.5v-35.8z"/><linearGradient id="SVGID_22_" gradientUnits="userSpaceOnUse" x1="1432.975" y1="-90.74" x2="1432.975" y2="-170.38" gradientTransform="matrix(1 0 0 -1 0 1.22)"><stop offset="0" stop-color="#58b3ff"/><stop offset="1" stop-color="#9a79ff"/></linearGradient><path d="M1423.6 161.9c-2.9-.4-5.8-1.9-7.1-4.4-2.2-4.3.7-9.6-.5-14.3-.8-3.1-3.4-6.1-2.1-9.1 1-2.5 4.4-3.5 5.3-6.1s-1.5-5.2-2.7-7.8c-1.9-4-.8-8.7.3-13 1-4.1 2.1-8.4 4.6-11.8 2.1-2.9 5-5.2 7.1-8.1 1.1-1.7 2.2-3.3 3.5-4.9 1.3-1.6 3.2-2.5 5.3-2.4 2.6.3 4.4 2.9 5 5.5s.5 5.2 1 7.8c1.5 7.3 8.6 12.9 8.6 20.4 0 4-2.1 7.8-2.1 11.8 0 3 1.3 5.9 2.2 8.8s1.2 6.3-.5 8.8c-1.8 2.8-5.8 4.3-6 7.6-.1 2.1 1.6 4 1.8 6.1.3 3-2.7 5.5-5.7 5.9-3.3.4-5.9-1.6-9-1.7-3.1 0-5.9 1.3-9 .9z" fill="url(#SVGID_22_)"/><path class="st2" d="M1441.6 121.2l-1.3-.9-6.7 10.2v-26.9h-1.5v47.2l-8.7-8.9-1.1 1 9.8 10.1v25.6h1.5v-45.3z"/><linearGradient id="SVGID_23_" gradientUnits="userSpaceOnUse" x1="1491.468" y1="-155.97" x2="1491.468" y2="-186.56" gradientTransform="matrix(1 0 0 -1 0 1.22)"><stop offset="0" stop-color="#58b3ff"/><stop offset="1" stop-color="#9a79ff"/></linearGradient><path d="M1522.8 178.6h-60.1c-2.1-1.7-3.8-3.8-5-6.3-1.1-2.4-.9-5.2.6-7.4 1.2-1.5 3-2.4 4.4-3.6 2-1.8 3.1-4.4 4.6-6.6s3.7-4.4 6.4-4.3c2.1.1 4 1.5 6.1 1.7 3.2.3 5.8-2.1 8.7-3.4 4.8-2.3 10.6-1.6 15.7-.1 8.1 2.3 16 6.7 20.2 13.9 2.8 4.9 1.8 11.4-1.6 16.1z" fill="url(#SVGID_23_)"/><linearGradient id="SVGID_24_" gradientUnits="userSpaceOnUse" x1="1570.911" y1="-125.5" x2="1570.911" y2="-176.72" gradientTransform="matrix(1 0 0 -1 0 1.22)"><stop offset="0" stop-color="#58b3ff"/><stop offset="1" stop-color="#9a79ff"/></linearGradient><path d="M1565.9 168.5c-3.1-.2-6.2-1.5-7.9-4-2.1-3-2-7.2-4.3-10-3.3-4-10.8-4.4-11.7-9.5-.5-2.7 1.4-5.2 3.5-6.9s4.7-2.7 6.7-4.5c3.9-3.5 5.3-9.1 9.4-12.3 5.7-4.3 13.8-2.1 20.6.4 4.3 1.6 8.8 3.2 12.2 6.3s5.7 8 4.3 12.4c-.6 2-2 4-1.8 6.1.2 1.9 1.6 3.4 2.3 5.1 2.3 5.2-1.7 11.5-7 13.8-4.8 2-9.3.8-14.3 1.2-4 .2-7.6 2.2-12 1.9z" fill="url(#SVGID_24_)"/><path class="st2" d="M1582.6 151.4l-1-.9-6.8 8.1v-30.3h-1.4v18.3l-6-8.4-1.1.8 7.1 9.9v29.7h1.4v-17.9z"/><path class="st10" d="M1634.8 173.2c-1.1-2-3.2-3.2-5.2-4.1-2.5-1.1-5.1-1.9-7.8-2.4-7.3 1.8-12.5 6-12.5 8.9v1.4c0 .9.7 1.6 1.6 1.6h24.5c.5-1.9.2-3.8-.6-5.4z"/><path class="st17" d="M1628.5 165.8c-2.3 0-4.5.3-6.7.8 2.7.5 5.3 1.3 7.8 2.4 2.1.9 4.1 2.1 5.2 4.1.8 1.7 1.1 3.6.6 5.4h10.7c.9 0 1.6-.7 1.6-1.6v-1.4c0-3.7-8.6-9.7-19.2-9.7z"/><path class="st12" d="M1690.3 104.7h-92.5l-26.9 47.2h92.6z"/><path class="st11" d="M1690.3 104.7l-26.8 47.2h-92.6l1.3 2.6h92.6l26.9-47.2z"/><path class="st6" d="M1616 127l4.8-8.4 4.8-8.4h-24l-9.5 16.8zm-25.4 2.7l-9.6 16.7h24l4.7-8.4 4.8-8.3zm38-19.5l-9.5 16.8h25.4l4.8-8.4 4.8-8.4zm28.5 0l-9.5 16.8h24.4l9.5-16.8z"/><path class="st7" d="M1686.1 107.5H1600l-11.7 20.6-11.9 21h86.1l12.6-22.1 11-19.5zm-52.6 38.9h-25.4l9.5-16.8h25.4l-9.5 16.8zm-28.5 0h-24l9.5-16.8h23.9l-4.8 8.4-4.6 8.4zm20.6-36.2l-4.8 8.4-4.8 8.4h-24l9.5-16.8h24.1zm23.7 8.4l-4.8 8.4h-25.4l9.5-16.8h25.4l-4.7 8.4zm-1.7 8.4l9.5-16.8h24.4L1672 127h-24.4zm-6.3 11l4.8-8.4h24.4l-9.5 16.8h-24.4l4.7-8.4z"/><path class="st6" d="M1670.5 129.7h-24.4l-4.8 8.3-4.7 8.4h24.3zm-52.9 0l-9.5 16.7h25.4l9.5-16.7z"/><g class="st18"><path class="st19" d="M1623.1 110.2l4.5-2.7h-12.7l-4.5 2.7-13.3 8-4.7 2.8-4.1 7.1-2.4 4.3 9.1-5.4zm45.1 19.5l-28.1 16.7-4.5 2.7h26.9l7.3-12.8 5.3-9.3 1.2-2.1zm-68.2 0l4.5-2.7 17.4-10.4 4.7-2.8 6-3.6 4.5-2.7h-4.2l-8.8 5.3-23.8 14.2-4.5 2.7-7.9 4.7-4.7 2.8-2.2 3.8 4.7-2.8zm21.3-2.7l28.1-16.8 4.5-2.7h-2.7l-4.4 2.7-27.5 16.4-5.1 3.1-28.1 16.7-4.5 2.7h2.6l4.5-2.7 24.6-14.6zm19.5 0l5.6-3.4 4.7-2.8 17.8-10.6 4.5-2.7h-4.2l-4.5 2.7-11.5 6.9-4.6 2.7-12 7.2-4.5 2.7-22 13.1-4.7 2.8-1.4.8-4.5 2.7h4.2l4.5-2.7 28.1-16.7z"/></g><path class="st17" d="M1634.9 154.5h-12.8v1.5c4.3 1.5 8.6 3.1 12.8 4.9v-6.4z"/><path class="st20" d="M1622.1 155.9v12.2c0 1.7 2.9 3.1 6.4 3.1s6.4-1.4 6.4-3.1v-7.3c-4.2-1.7-8.5-3.4-12.8-4.9z"/><path class="st10" d="M1864.5 173.2c-1.1-2-3.2-3.2-5.2-4.1-2.5-1.1-5.1-1.9-7.8-2.4-7.3 1.8-12.4 6-12.4 8.9v1.4c0 .9.7 1.6 1.6 1.6h24.5c.3-1.9.1-3.8-.7-5.4z"/><path class="st17" d="M1858.2 165.8c-2.3 0-4.5.3-6.7.8 2.7.5 5.3 1.3 7.8 2.4 2.1.9 4.1 2.1 5.2 4.1.8 1.7 1.1 3.6.6 5.4h10.7c.9 0 1.6-.7 1.6-1.6v-1.4c-.1-3.7-8.6-9.7-19.2-9.7z"/><path class="st12" d="M1920 104.7h-92.6l-26.8 47.2h92.6z"/><path class="st11" d="M1920 104.7l-26.8 47.2h-92.6l1.3 2.6h92.6l26.8-47.2z"/><path class="st6" d="M1845.7 127l4.8-8.4 4.7-8.4h-23.9l-9.5 16.8zm-25.5 2.7l-9.5 16.7h23.9l4.8-8.4 4.8-8.3zm38.1-19.5l-9.5 16.8h25.4l4.7-8.4 4.8-8.4zm28.5 0l-9.5 16.8h24.4l9.5-16.8z"/><path class="st7" d="M1915.8 107.5h-86.1l-11.7 20.6-11.9 21h86.1l12.6-22.1 11-19.5zm-52.7 38.9h-25.4l9.5-16.8h25.4l-9.5 16.8zm-28.5 0h-23.9l9.5-16.8h23.9l-4.8 8.4-4.7 8.4zm20.6-36.2l-4.8 8.4-4.8 8.4h-23.9l9.5-16.8h24zm23.8 8.4l-4.8 8.4h-25.4l9.5-16.8h25.4l-4.7 8.4zm-1.7 8.4l9.5-16.8h24.4l-9.5 16.8h-24.4zm-6.3 11l4.8-8.4h24.4l-9.5 16.8h-24.4l4.7-8.4z"/><path class="st6" d="M1900.2 129.7h-24.4l-4.8 8.3-4.8 8.4h24.4zm-52.9 0l-9.6 16.7h25.4l9.6-16.7z"/><g class="st18"><path class="st19" d="M1852.8 110.2l4.5-2.7h-12.7l-4.5 2.7-13.3 8-4.7 2.8-4.1 7.1-2.4 4.3 9.1-5.4zm45.1 19.5l-28.1 16.7-4.5 2.7h26.9l7.3-12.8 5.3-9.3 1.2-2.1zm-68.2 0l4.5-2.7 17.4-10.4 4.7-2.8 6-3.6 4.5-2.7h-4.2l-8.8 5.3L1830 127l-4.5 2.7-8 4.7-4.6 2.8-2.2 3.8 4.7-2.8zm21.3-2.7l28.1-16.8 4.5-2.7h-2.7l-4.5 2.7-27.4 16.4-5.2 3.1-28.1 16.7-4.5 2.7h2.7l4.5-2.7 24.6-14.6zm19.5 0l5.6-3.4 4.7-2.8 17.8-10.6 4.5-2.7h-4.2l-4.5 2.7-11.5 6.9-4.7 2.7-11.9 7.2-4.5 2.7-22 13.1-4.7 2.8-1.4.8-4.5 2.7h4.2l4.5-2.7 28.1-16.7z"/></g><path class="st17" d="M1864.6 154.5h-12.8v1.5c4.3 1.5 8.6 3.1 12.8 4.9v-6.4z"/><path class="st20" d="M1851.8 155.9v12.2c0 1.7 2.9 3.1 6.4 3.1s6.4-1.4 6.4-3.1v-7.3c-4.2-1.7-8.5-3.4-12.8-4.9z"/><path class="st10" d="M1726.5 174.4c-1-1.5-2.4-2.6-4.1-3.2-1.9-.8-3.9-1.5-6-1.9-5.6 1.4-9.7 4.6-9.7 6.9v1.1c0 .7.6 1.2 1.2 1.2h19c.5-1.4.3-2.8-.4-4.1z"/><path class="st17" d="M1721.7 168.7c-1.8 0-3.5.2-5.2.6 2.1.4 4.1 1 6 1.9 1.7.6 3.1 1.7 4.1 3.2.7 1.3.8 2.8.5 4.2h8.3c.7 0 1.2-.5 1.2-1.2v-1.1c-.1-3-6.7-7.6-14.9-7.6z"/><path class="st12" d="M1769.7 121.3h-71.9l-20.8 36.6h71.8z"/><path class="st11" d="M1769.7 121.3l-20.9 36.6H1677l1 2h71.8l20.9-36.7z"/><path class="st6" d="M1712 138.5l3.7-6.5 3.7-6.5h-18.6l-7.4 13zm-19.8 2.1l-7.4 13h18.6l3.7-6.5 3.7-6.5zm29.6-15.1l-7.4 13h19.7l3.7-6.5 3.7-6.5zm22.1 0l-7.4 13h18.9l7.4-13z"/><path class="st7" d="M1766.4 123.4h-66.8l-9.1 16-9.3 16.3h66.8l9.8-17.2 8.6-15.1zm-40.9 30.2h-19.7l7.4-13h19.7l-7.4 13zm-22.1 0h-18.6l7.4-13h18.6l-3.7 6.5-3.7 6.5zm16-28.1l-3.7 6.5-3.7 6.5h-18.6l7.4-13h18.6zm18.4 6.5l-3.7 6.5h-19.7l7.4-13h19.7l-3.7 6.5zm-1.3 6.5l7.4-13h18.9l-7.4 13h-18.9zm-4.9 8.6l3.7-6.5h18.9l-7.4 13h-19l3.8-6.5z"/><path class="st6" d="M1754.2 140.6h-18.9l-3.7 6.5-3.7 6.5h18.9zm-41 0l-7.4 13h19.7l7.4-13z"/><g class="st18"><path class="st19" d="M1717.5 125.5l3.4-2.1h-9.8l-3.5 2.1-10.3 6.2-3.6 2.2-3.2 5.5-1.9 3.3 7.1-4.2zm35 15.1l-21.8 13-3.5 2.1h20.8l5.7-9.9 4.1-7.3.9-1.6zm-52.9 0l3.4-2.1 13.6-8 3.6-2.2 4.6-2.8 3.5-2.1h-3.2l-6.9 4.1-18.4 11-3.5 2.1-6.2 3.7-3.6 2.2-1.7 2.9 3.6-2.2zm16.5-2.1l21.8-13 3.5-2.1h-2.1l-3.5 2.1-21.2 12.7-4.1 2.4-21.8 13-3.5 2.1h2.1l3.5-2.1 19.1-11.4zm15.1 0l4.4-2.6 3.6-2.1 13.8-8.3 3.5-2.1h-3.3l-3.4 2.1-9 5.3-3.6 2.2-9.2 5.5-3.5 2.1-17.1 10.2-3.6 2.2-1.1.6-3.5 2.1h3.2l3.5-2.1 21.8-13z"/></g><path class="st17" d="M1726.6 159.9h-9.9v1.1c3.3 1.2 6.6 2.4 9.9 3.8v-4.9z"/><path class="st20" d="M1716.7 161v9.5c0 1.3 2.2 2.4 5 2.4s5-1.1 5-2.4v-5.7c-3.3-1.4-6.7-2.6-10-3.8z"/><path class="st11" d="M1377.4 178.5h16.1v-28.2h-16.1v28.2z"/><path class="st12" d="M1367.7 126.8c2.7 8 5.9 15.9 9.7 23.4h16.1c-3.8-7.6-7.1-15.4-9.7-23.4h-16.1z"/><path class="st17" d="M1367.7 126.8c-3.4-10.7-3.3-15.7-3.3-15.7H1330c-.1 2.2-.4 4.4-.9 6.6l38.6 9.1z"/><path class="st10" d="M1367.7 126.8l-38.5-9.1c-1.3 6.2-4.4 16.9-12.2 32.5v28.2h60.4v-28.2c-3.8-7.5-7.1-15.3-9.7-23.4z"/><path class="st11" d="M1367.7 126.8h16.1c-3.4-10.7-3.3-15.7-3.3-15.7h-16.1s-.2 5.1 3.3 15.7z"/><path class="st17" d="M1347.3 152c4.5 1.8 7.8 5.7 8.7 10.4l3.3 16.1h-5.9l-6.1-26.5z"/><path class="st7" d="M1342.7 150.9c-5.9 0-10.7 4.8-10.7 10.7v16.9h21.4v-16.9c0-5.9-4.8-10.7-10.7-10.7z"/><path class="st12" d="M1347.3 154.1c-4.3-2.5-9.9-1-12.4 3.3-.8 1.4-1.2 2.9-1.2 4.5v16.5h9.1v-16.5c-.1-3.2 1.7-6.2 4.5-7.8z"/><path class="st11" d="M1347.3 154.1c-2.8 1.6-4.5 4.6-4.5 7.8v16.5h9.1v-16.5c-.1-3.2-1.8-6.2-4.6-7.8zm7.9-90.7c-1.5 0-3 .2-4.5.4 12 2.2 20.7 12.6 20.7 24.8v13.5h9.1V88.6c0-13.9-11.3-25.2-25.3-25.2z"/><path class="st12" d="M1350.7 63.8c-12 2.2-20.7 12.6-20.7 24.8v13.5h41.4V88.6c0-12.2-8.7-22.6-20.7-24.8z"/><path class="st20" d="M1328.1 102.1h39.6v9h-39.6z"/><path class="st21" d="M1367.6 102.1h14.8v9h-14.8z"/><path class="st8" d="M1411.2 34.7l-9.4-12.6-2.8 2 7.8 10.6-46.5 34.4 1.6 2.1z"/><path transform="rotate(-36.448 1379.761 46.651)" class="st6" d="M1350.8 40.1h57.8v13.2h-57.8z"/><path class="st11" d="M1352.3 73.3c-6-.9-11.5 3.2-12.4 9.2-.9 6 3.2 11.5 9.2 12.4.2 0 .4 0 .6.1 6 .5 11.3-3.9 11.8-9.9.5-5.8-3.5-10.9-9.2-11.8z"/><path class="st8" d="M1342 110l2.3-1.7-9.3-12.7-49.3 36.4 1.4 2 47-34.7z"/><path transform="rotate(-36.448 1314.654 122.07)" class="st6" d="M1285.4 115.4h58.4v13.3h-58.4z"/><path class="st7" d="M1350.9 83.8l62.4-46.1c.8-.6 1-1.8.4-2.6s-1.8-1-2.6-.4l-62.4 46.1-46.1-62.4c-.6-.8-1.8-1-2.6-.4s-1 1.8-.4 2.6l46.1 62.5-62.4 46.1c-.8.7-.9 1.8-.2 2.6.6.7 1.6.9 2.4.4L1348 86l46.1 62.5c.6.8 1.8 1 2.6.4s1-1.8.4-2.6l-46.2-62.5z"/><path class="st8" d="M1374.3 89l-1-1.4-12.7 9.4 36.4 49.3 1.9-1.4-35.4-47.9z"/><path transform="rotate(-36.448 1386.706 116.972)" class="st6" d="M1379.9 87.2h13.5v59.6h-13.5z"/><path class="st8" d="M1334.6 71.2l1.6-1.1-36.4-49.3-12.7 9.3 1.6 2.2 11.1-8.2z"/><path transform="rotate(-36.407 1305.063 56.236)" class="st6" d="M1298.1 27.1h13.7v58.3h-13.7z"/><path class="st22" d="M1350 72.6c-.9-.1-1.8-.2-2.7-.1.2 0 .4 0 .6.1 6 .9 10.1 6.5 9.2 12.4-.7 4.9-4.7 8.7-9.7 9.2 6 .5 11.3-3.9 11.8-9.9.4-5.7-3.6-10.8-9.2-11.7z"/><path class="st6" d="M1357 85.1c.9-5.9-3.2-11.5-9.1-12.4h-.1c-.2 0-.4 0-.6-.1-6 .6-10.4 6-9.7 12 .5 5 4.3 8.9 9.2 9.7.2 0 .4 0 .6.1 4.9-.6 8.9-4.4 9.7-9.3z"/><path class="st12" d="M1351.6 84.5c-.4 2.6-2.8 4.4-5.4 4s-4.4-2.8-4-5.4c.4-2.6 2.8-4.4 5.4-4 2.6.4 4.4 2.8 4 5.4z"/><path class="st22" d="M1350.9 84.2c-.4 2.6-2.8 4.4-5.4 4s-4.4-2.8-4-5.4c.4-2.6 2.8-4.4 5.4-4 2.6.3 4.4 2.7 4 5.4z"/><path class="st17" d="M1740.3 135v1.8l54.2 5.9V135z"/><path class="st20" d="M1740.3 178.6h54.2v-35.9l-54.2-5.9z"/><path class="st10" d="M1803.7 88.1h17.1v7.6h-17.1z"/><path class="st17" d="M1814.6 88.1h6.2v7.6h-6.2z"/><path class="st11" d="M1749.7 95.5h77.5l23.4 39.5h-77.4z"/><path class="st12" d="M1842 135l-18.6-32.8-18.7 32.8h-10.2v7.7l47.5 26.5z"/><path class="st22" d="M1794.5 142.7v35.9h47.5v-9.4z"/><path class="st11" d="M1821.1 149.8h17.4v28.8h-17.4zm-19.7-4.5h16.6v18.4h-16.6z"/><path class="st9" d="M1827.2 95.5h-77.5l-22.4 39.5h77.4z"/><path class="st6" d="M1745.8 145.1h43.8v15.7h-43.8z"/><path class="st7" d="M1744.5 143.7v18.4h46.5v-18.4h-46.5zm45.2 17h-43.8V145h43.8v15.7z"/><path class="st11" d="M1832 130c0-4.2-3.4-7.5-7.5-7.5s-7.5 3.4-7.5 7.5c0 4.2 3.4 7.5 7.5 7.5s7.5-3.4 7.5-7.5z"/><path class="st11" d="M1824.4 121.3c-4.8 0-8.7 3.9-8.7 8.7s3.9 8.7 8.7 8.7c4.8 0 8.7-3.9 8.7-8.7 0-4.8-3.9-8.7-8.7-8.7zm-7.5 8.7c0-4.2 3.4-7.5 7.5-7.5s7.5 3.4 7.5 7.5c0 4.2-3.4 7.5-7.5 7.5s-7.5-3.4-7.5-7.5z"/><path class="st23" d="M1801.4 145.1h13.9v15.7h-13.9z"/><path class="st24" d="M1800.1 143.7v18.4h16.6v-18.4h-16.6zm15.2 17h-13.9V145h13.9v15.7z"/><path class="st23" d="M1830.4 128.4c0-4.2-3.4-7.5-7.5-7.5-4.2 0-7.5 3.4-7.5 7.5s3.4 7.5 7.5 7.5c4.1.1 7.5-3.3 7.5-7.5z"/><path class="st24" d="M1822.8 119.7c-4.8 0-8.7 3.9-8.7 8.7s3.9 8.7 8.7 8.7c4.8 0 8.7-3.9 8.7-8.7 0-4.8-3.9-8.7-8.7-8.7zm-7.5 8.7c0-4.2 3.4-7.5 7.5-7.5 4.2 0 7.5 3.4 7.5 7.5s-3.4 7.5-7.5 7.5c-4.1.1-7.5-3.3-7.5-7.5z"/><path class="st17" d="M1815.4 100.4l-3.3 1.3h-54.5l-8.1 14.1-6.9 12.2-2.3.9 1.1 1.2h58.9l8.6-15.1 7.6-13.3z"/><path class="st6" d="M1767.4 113.7l3.3-5.7 3.2-5.7h-16.3l-6.6 11.4zm-17.4 1.9l-6.5 11.4h16.4l3.2-5.7 3.3-5.7zm26.1-13.3l-6.6 11.4h17.4l3.3-5.7 3.2-5.7zm19.5 0l-6.6 11.4h16.7l6.6-11.4z"/><path class="st7" d="M1815.4 100.4h-58.9l-8 14.1-8.2 14.4h58.9l8.6-15.1 7.6-13.4zm-36 26.6H1762l6.5-11.4h17.4l-6.5 11.4zm-19.5 0h-16.4l6.5-11.4h16.4l-3.3 5.7-3.2 5.7zm14.1-24.7l-3.3 5.7-3.3 5.7H1751l6.5-11.5h16.5zm16.2 5.7l-3.3 5.7h-17.4l6.5-11.5h17.4l-3.2 5.8zm-1.1 5.7l6.5-11.5h16.7l-6.5 11.5h-16.7zm-4.3 7.6l3.2-5.7h16.7l-6.5 11.5h-16.7l3.3-5.8z"/><path class="st6" d="M1804.7 115.6H1788l-3.3 5.7-3.2 5.7h16.7zm-36.2 0L1762 127h17.4l6.5-11.4z"/><g class="st18"><path class="st19" d="M1772.3 102.3l3-1.9h-8.6l-3.1 1.9-9.1 5.4-3.2 1.9-2.8 4.9-1.7 2.9 6.2-3.7zm30.9 13.3l-19.3 11.4-3.1 1.9h18.4l5-8.8 3.6-6.4.9-1.4zm-46.7 0l3.1-1.9 11.9-7.1 3.2-1.9 4.1-2.4 3-1.9h-2.8l-6.1 3.6-16.2 9.7-3.1 1.9-5.4 3.2-3.3 1.9-1.4 2.6 3.2-1.9zm14.6-1.9l19.2-11.4 3.1-1.9h-1.9l-3.1 1.9-18.7 11.1-3.5 2.2-19.3 11.4-3.1 1.9h1.9l3-1.9 16.9-10zm13.3 0l3.8-2.3 3.2-1.9 12.2-7.2 3.1-1.9h-2.9l-3 1.9-7.9 4.6-3.2 2-8.2 4.8-3.1 1.9-15 9-3.2 1.9-1 .5-3.1 1.9h2.9l3.1-1.9 19.2-11.4z"/></g><g class="st18"><path class="st19" d="M1757.9 145.1l2.3-1.4h-6.8l-2.3 1.4-5.3 3.1-1.3.8v4l1.3-.8zm6.3 0l2.3-1.4h-2.7l-2.3 1.4-15.7 9.3-1.3.8v1.6l1.3-.8zm13.3-1.4h-1.5l-2.2 1.4-26.4 15.7-2.3 1.3h1.5l2.3-1.3 26.4-15.7zm12.2 4.5l-21.1 12.6-2.2 1.3h12.2l2.3-1.3 8.8-5.3 1.3-.8v-7.3z"/></g><g class="st25"><path class="st19" d="M1827.2 122.3l1.1-.6c-.9-.8-2-1.3-3.2-1.6l-1.5.9-7.6 4.5-1.5.9c-.2.7-.3 1.4-.3 2.1 0 .5.1 1 .2 1.6l1.1-.6 11.7-7.2zm2.3.5l-1 .6-12.7 7.5-1 .6c.1.4.3.7.5 1.1l1-.6 12.9-7.7 1-.6c-.2-.2-.4-.6-.7-.9z"/></g><g class="st25"><path class="st19" d="M1815.3 145.9l-13.9 8.3-1.3.8v1.6l1.3-.8 13.9-8.3 1.4-.8v-1.6zm-12.6 14.9l-2.3 1.3h1.5l2.3-1.3 11.1-6.7 1.4-.8v-.9l-1.4.8z"/></g><path class="st11" d="M1830.3 158.8c1.3 2.4 2.5 4.9 3.6 7.3 1.4 3.2 2.7 6.4 3.7 9.7v-15.1c-2.5-.7-4.9-1.3-7.3-1.9z"/><path class="st11" d="M1837.5 160.7V151H1826c1.5 2.6 2.9 5.1 4.2 7.8 2.5.6 4.9 1.2 7.3 1.9z"/><path class="st11" d="M1826 151h-4v5.9c2.8.6 5.5 1.2 8.2 1.9-1.3-2.6-2.7-5.2-4.2-7.8z"/><path class="st12" d="M1830.3 158.8c-2.7-.7-5.5-1.3-8.2-1.9v21.6h15.5v-2.7c-1-3.3-2.3-6.6-3.7-9.7-1.2-2.5-2.4-4.9-3.6-7.3z"/><linearGradient id="SVGID_25_" gradientUnits="userSpaceOnUse" x1="1522.095" y1="-109.484" x2="1517.005" y2="-165.514" gradientTransform="matrix(1 0 0 -1 0 1.22)"><stop offset="0" stop-color="#58b3ff"/><stop offset="1" stop-color="#9a79ff"/></linearGradient><path d="M1501 120.2c1.2-4 3.6-7.8 7.3-9.7 5.3-2.8 12-1.1 17.3 1.9 6.8 4 12.5 10.4 14.3 18s-.8 16.5-7.2 21.1c-18.3 12.8-36.5-15.6-31.7-31.3z" fill="url(#SVGID_25_)"/><path class="st2" d="M1506.8 178.6l-1.7-.3c2.8-20.7 7.8-41 14.9-60.5l1.6.6c-6.8 18.7-11.7 38-14.5 57.7h.1l-.4 2.5z"/><linearGradient id="SVGID_26_" gradientUnits="userSpaceOnUse" x1="1398.632" y1="-138.58" x2="1398.632" y2="-167.28" gradientTransform="matrix(1 0 0 -1 0 1.22)"><stop offset="0" stop-color="#58b3ff"/><stop offset="1" stop-color="#9a79ff"/></linearGradient><path d="M1387.4 163.4c-3.5-2.6-4.8-7.3-5-11.6-.2-7.7 2.7-15.1 8.1-20.6 1.8-1.8 4-3.5 6.5-3.8 3.6-.4 6.9 2 9.3 4.8 3.8 4.5 6 10.1 7.5 15.8.9 3.6 1.6 7.4.7 11s-3.4 7-7.1 7.8c-4.4 1-6.2-3.3-9.7-3.5-3.8-.2-6 3.4-10.3.1z" fill="url(#SVGID_26_)"/><path transform="matrix(.9987 -.05007 .05007 .9987 -6.37 70.231)" class="st2" d="M1397.8 145.9h1.7v32.8h-1.7z"/><path class="st9" d="M1055.7 95.4h79.5v83.1h-79.5z"/><path class="st12" d="M1135.2 95.4h32.6v83.1h-32.6z"/><path class="st11" d="M1061.7 104.5h73.5v7.8h-73.5zm73.5 0h26.1v7.8h-26.1zm-73.5 17.9h73.5v7.8h-73.5zm73.5 0h26.1v7.8h-26.1zm-73.5 17.9h73.5v7.8h-73.5zm73.5 0h26.1v7.8h-26.1z"/><path class="st7" d="M1061.7 103h73.5v7.8h-73.5z"/><path class="st6" d="M1135.2 103h26.1v7.8h-26.1z"/><path class="st7" d="M1061.7 120.9h73.5v7.8h-73.5z"/><path class="st6" d="M1135.2 120.9h26.1v7.8h-26.1z"/><path class="st7" d="M1061.7 138.8h73.5v7.8h-73.5z"/><path class="st6" d="M1135.2 138.8h26.1v7.8h-26.1z"/><path class="st11" d="M1148.4 156.4c-1.9 0-3.5 1.5-3.5 3.5v18.7h6.9v-18.7c.1-1.9-1.5-3.5-3.4-3.5zm10.7 0c-1.9 0-3.5 1.5-3.5 3.5v18.7h6.9v-18.7c.1-1.9-1.5-3.5-3.4-3.5z"/><path class="st17" d="M1147.2 156.4c-1.9 0-3.5 1.5-3.5 3.5v18.7h6.9v-18.7c0-1.9-1.5-3.5-3.4-3.5zm10.7 0c-1.9 0-3.5 1.5-3.5 3.5v18.7h6.9v-18.7c.1-1.9-1.5-3.5-3.4-3.5z"/><path class="st7" d="M1065.8 81.8h25.8v13.6h-25.8z"/><path class="st12" d="M1091.6 81.8h9.1v13.6h-9.1z"/><path class="st7" d="M1114.8 81.8h25.8v13.6h-25.8z"/><path class="st12" d="M1140.6 81.8h9.1v13.6h-9.1z"/><path class="st17" d="M1069.3 163.8h11.9v14.7h-11.9z"/><path class="st20" d="M1081.2 163.8v-4.9h-18.1v19.7h6.2v-14.8zm0-4.9v19.7h6.2v-14.8h11.9v-4.9z"/><path class="st17" d="M1076.3 163.8h23v14.7h-23z"/><g class="st18"><path class="st19" d="M1095.9 110.9l5.5-7.9h-7.2l-5.6 7.9zm-7.1 10h-7.3l-5.5 7.8h7.3zm-19.9 17.9l-5.5 7.8h7.3l5.5-7.8zm92.5-27.9v-6l-4.3 6zm-16.9 17.8h7.3l5.5-7.8h-7.3zm-9.3 13.2l-3.3 4.7h3.3zm2.2-3.1l-2.2 3.1v4.7h4l5.5-7.8zm-33.8-27.9l5.6-7.9h-1.6l-5.5 7.9zm-8.6 10l-5.6 7.8h1.6l5.5-7.8zm-12.7 17.9l-5.5 7.8h1.6l5.5-7.8zm76.4 0l-5.5 7.8h1.6l5.5-7.8zm-35.3-27.9l5.6-7.9h-9.8l-5.5 7.9zm-16.8 10l-5.5 7.8h9.7l5.5-7.8zm-12.6 17.9l-5.5 7.8h9.7l5.5-7.8zm36.4-27.9l4.8-6.9v-1h-1.2l-5.5 7.9zm4.8-6.9l.7-1h-.7zm-13.8 16.9l-5.5 7.8h1.9l5.5-7.8zm-12.6 17.9l-5.6 7.8h2l5.5-7.8zm25.9-27.9l.5-.7v-2.7l-2.4 3.4z"/><path class="st19" d="M1135.2 110.2l5.1-7.2h-1.9l-3.2 4.5zm-9.5 10.7l-5.5 7.8h1.9l5.5-7.8zm-12.6 17.9l-5.5 7.8h1.9l5.5-7.8zm31.4-27.9l5.5-7.9h-1.9l-5.5 7.9zm-9.3 10.4l-5.3 7.4h1.9l3.4-4.8z"/><path class="st19" d="M1135.2 123.9l2.2-3h-1.9l-.3.4zm-12.4 14.9l-5.5 7.8h1.9l5.5-7.8zm-46.1-27.9l5.6-7.9h-1.9l-5.5 7.9zm-8.9 10l-5.5 7.8h1.8l5.5-7.8zm9.9-17.9h-9.8l-5.5 7.9h9.8zm-16 17.9v4.8l3.4-4.8z"/></g><path class="st7" d="M1116.2 158.9l-5.8 8.3h5.9l5.9-8.3zm8.3 0l-5.9 8.3h2.9l5.9-8.3zm4.7.6l-5.5 7.7h5.5z"/><path class="st19" d="M1108.2 158.9v8.3h2.2l5.8-8.3zm14 0l-5.9 8.3h2.3l5.9-8.3zm7 0h-1.8l-5.9 8.3h2.2l5.5-7.7z"/><path class="st10" d="M1158 66.9h45.8v111.7H1158z"/><path class="st11" d="M1203.8 66.9h20.3v111.7h-20.3z"/><path class="st10" d="M1162.3 39.8h38.2v27h-38.2z"/><path class="st11" d="M1200.5 39.8h19.1v27h-19.1zm-36.4 122.7h13.5v16.1h-13.5z"/><path class="st6" d="M1180.9 162.5h8.4v9.5h-8.4zm8.5 0h8.4v9.5h-8.4zm17.9 0h6.7v9.5h-6.7zm6.7 0h6.7v9.5h-6.7z"/><path class="st9" d="M1186.2 20.2c-10.3.6-18.4 9.2-18.4 19.5h36.8c0-10.3-8.1-18.9-18.4-19.5z"/><path class="st6" d="M1175.3 46.5h5.5v5.7h-5.5zm6.8 0h5.5v5.7h-5.5zm-13.7 7h5.5v5.7h-5.5zm20.5-7h5.5v5.7h-5.5zm-20.5 0h5.5v5.7h-5.5zm0 14h5.5v5.7h-5.5zm6.9-7h5.5v5.7h-5.5zm6.8 0h5.5v5.7h-5.5zm6.8 7h5.5v5.7h-5.5zm-6.8 0h5.5v5.7h-5.5zm6.8-7h5.5v5.7h-5.5zm-13.6 7h5.5v5.7h-5.5z"/><path class="st7" d="M1175.3 67.5h20.5V45.2h-28.6v22.3h8.1zm-6.9-21h5.6v5.7h-5.5l-.1-5.7zm6.9 0h5.5v5.7h-5.5v-5.7zm6.8 0h5.5v5.7h-5.5v-5.7zm6.8 0h5.5v5.7h-5.5v-5.7zm5.5 19.7h-5.5v-5.7h5.5v5.7zm-6.8 0h-5.5v-5.7h5.5v5.7zm-6.8 0h-5.5v-5.7h5.5v5.7zm-5.5-12.7h5.5v5.7h-5.5v-5.7zm12.3 5.7h-5.5v-5.7h5.5v5.7zm6.8 0h-5.5v-5.7h5.5v5.7zm-26-5.7h5.6v5.7h-5.5l-.1-5.7zm0 7h5.6v5.7h-5.5l-.1-5.7z"/><path class="st6" d="M1164.7 105.2h7.1v6.3h-7.1zm0-22.8h7.1v6.3h-7.1zm16.9-7.5h7.1v6.3h-7.1zM1164.7 90h7.1v6.3h-7.1zm0-15.1h7.1v6.3h-7.1zm8.4 0h7.1v6.3h-7.1zm-8.4 22.7h7.1v6.3h-7.1zm0 15.2h7.1v6.3h-7.1zm0 22.7h7.1v6.3h-7.1zm0 15.1h7.1v6.3h-7.1zm0-7.5h7.1v6.3h-7.1zm0-15.2h7.1v6.3h-7.1zm0-7.6h7.1v6.3h-7.1zm16.9 15.2h7.1v6.3h-7.1zm-8.5 7.6h7.1v6.3h-7.1zm0-7.6h7.1v6.3h-7.1zm8.5 7.6h7.1v6.3h-7.1zm-8.5-22.8h7.1v6.3h-7.1zm0 7.6h7.1v6.3h-7.1zm0 22.7h7.1v6.3h-7.1zm8.5-22.7h7.1v6.3h-7.1zm0-45.5h7.1v6.3h-7.1zm0 7.6h7.1v6.3h-7.1zm0 15.2h7.1v6.3h-7.1zm0-7.6h7.1v6.3h-7.1zm0 22.7h7.1v6.3h-7.1zm0-7.5h7.1v6.3h-7.1zm8.4 7.5h7.1v6.3h-7.1zm0-22.7h7.1v6.3h-7.1zm-16.9 7.6h7.1v6.3h-7.1zm16.9-22.8h7.1v6.3h-7.1zm0 7.6h7.1v6.3h-7.1zm-8.4 60.6h7.1v6.3h-7.1zm-8.5-53h7.1v6.3h-7.1zm0-15.2h7.1v6.3h-7.1zm0 7.6h7.1v6.3h-7.1zm16.9-15.1h7.1v6.3h-7.1z"/><path class="st7" d="M1188.7 73.6h-25.3v84.6h35V73.6h-9.7zm8.5 83.3h-7.2v-6.3h7.1l.1 6.3zm-8.5 0h-7.1v-6.3h7.1v6.3zm-8.4 0h-7.1v-6.3h7.1v6.3zm-8.5 0h-7.1v-6.3h7.1v6.3zm-7.1-82h7.1v6.3h-7.1v-6.3zm8.4 0h7.1v6.3h-7.1v-6.3zm8.5 0h7.1v6.3h-7.1v-6.3zm7.1 13.9h-7.1v-6.3h7.1v6.3zm0 7.6h-7.1v-6.3h7.1v6.3zm0 7.6h-7.1v-6.3h7.1v6.3zm0 7.5h-7.1v-6.3h7.1v6.3zm0 7.6h-7.1v-6.3h7.1v6.3zm0 7.6h-7.1v-6.3h7.1v6.3zm0 7.6h-7.1V128h7.1v6.3zm0 7.5h-7.1v-6.3h7.1v6.3zm0 7.6h-7.1v-6.3h7.1v6.3zm-15.6-6.3h7.1v6.3h-7.1v-6.3zm0-7.5h7.1v6.3h-7.1v-6.3zm0-7.6h7.1v6.3h-7.1V128zm0-7.6h7.1v6.2h-7.1v-6.2zm0-7.6h7.1v6.3h-7.1v-6.3zm0-7.6h7.1v6.3h-7.1v-6.3zm0-7.5h7.1v6.3h-7.1v-6.3zm0-7.6h7.1v6.3h-7.1v-6.3zm0-7.6h7.1v6.3h-7.1v-6.3zm-8.4 0h7.1v6.3h-7.1v-6.3zm0 7.6h7.1v6.3h-7.1v-6.3zm0 7.6h7.1v6.3h-7.1v-6.3zm0 7.5h7.1v6.3h-7.1v-6.3zm0 7.6h7.1v6.3h-7.1v-6.3zm0 7.6h7.1v6.2h-7.1v-6.2zm0 7.6h7.1v6.3h-7.1V128zm0 7.6h7.1v6.3h-7.1v-6.3zm0 7.5h7.1v6.3h-7.1v-6.3zm32.4 6.3h-7.1v-6.3h7.1v6.3zm0-7.6h-7.1v-6.3h7.1v6.3zm0-7.5h-7.1V128h7.1v6.3zm0-7.6h-7.1v-6.3h7.1v6.3zm0-7.6h-7.1v-6.3h7.1v6.3zm0-7.6h-7.1v-6.3h7.1v6.3zm0-7.5h-7.1v-6.3h7.1v6.3zm0-7.6h-7.1v-6.3h7.1v6.3zm0-7.6h-7.1v-6.3h7.1v6.3zm0-7.6h-7.1v-6.3h7.1v6.3z"/><path class="st6" d="M1190 143.1h7.1v6.3h-7.1zm0-7.6h7.1v6.3h-7.1zm0 15.1h7.1v6.3h-7.1zm0-45.4h7.1v6.3h-7.1zm-16.9 7.6h7.1v6.3h-7.1zm16.9 0h7.1v6.3h-7.1zm0 15.1h7.1v6.3h-7.1zm24.6-22.7h5.4v6.3h-5.4zm0-15.2h5.4v6.3h-5.4zm0 7.6h5.4v6.3h-5.4zm0-15.2h5.4v6.3h-5.4zm0-7.5h5.4v6.3h-5.4z"/><path class="st7" d="M1214.6 73.6h-8v84.6h14.7V73.6h-6.7zm5.5 83.3h-5.4v-6.3h5.4v6.3zm-6.7 0h-5.4v-6.3h5.4v6.3zm-5.5-82h5.4v6.3h-5.4v-6.3zm0 7.6h5.4v6.3h-5.4v-6.3zm0 7.6h5.4v6.3h-5.4v-6.3zm0 7.6h5.4v6.3h-5.4v-6.3zm0 7.5h5.4v6.3h-5.4v-6.3zm0 7.6h5.4v6.3h-5.4v-6.3zm0 7.6h5.4v6.2h-5.4v-6.2zm0 7.6h5.4v6.3h-5.4V128zm0 7.6h5.4v6.3h-5.4v-6.3zm0 7.5h5.4v6.3h-5.4v-6.3zm12.2 6.3h-5.4v-6.3h5.4v6.3zm0-7.6h-5.4v-6.3h5.4v6.3zm0-7.5h-5.4V128h5.4v6.3zm0-7.6h-5.4v-6.3h5.4v6.3zm0-7.6h-5.4v-6.3h5.4v6.3zm0-7.6h-5.4v-6.3h5.4v6.3zm0-7.5h-5.4v-6.3h5.4v6.3zm0-7.6h-5.4v-6.3h5.4v6.3zm0-7.6h-5.4v-6.3h5.4v6.3zm0-7.6h-5.4v-6.3h5.4v6.3z"/><path class="st6" d="M1214.6 112.8h5.4v6.3h-5.4zm0 37.8h5.4v6.3h-5.4zm-6.7 0h5.4v6.3h-5.4zm6.7-7.5h5.4v6.3h-5.4zm0-7.6h5.4v6.3h-5.4zm0-7.6h5.4v6.3h-5.4zm0-7.6h5.4v6.3h-5.4zm-6.7-15.1h5.4v6.3h-5.4zm0 15.1h5.4v6.3h-5.4zm0-30.3h5.4v6.3h-5.4zm0 7.6h5.4v6.3h-5.4zm0 15.2h5.4v6.3h-5.4zm0 30.3h5.4v6.3h-5.4zm0-15.2h5.4v6.3h-5.4zm0 7.6h5.4v6.3h-5.4zm0-53.1h5.4v6.3h-5.4zm0-7.5h5.4v6.3h-5.4zm3.3-28.4h4.2v5.7h-4.2zm-5.5 0h4.2v5.7h-4.2zm5.5 13.9h4.2v5.7h-4.2zm0-6.9h4.2v5.7h-4.2zm-5.5 6.9h4.2v5.7h-4.2z"/><path class="st7" d="M1211.2 67.4h5.5V45.2h-12.2v22.2h6.7zm-5.5-20.9h4.2v5.7h-4.2v-5.7zm5.5 0h4.2v5.7h-4.2v-5.7zm4.2 19.6h-4.2v-5.7h4.2v5.7zm0-7h-4.2v-5.7h4.2v5.7zm-9.7-5.7h4.2v5.7h-4.2v-5.7zm0 7h4.2v5.7h-4.2v-5.7z"/><path class="st6" d="M1205.7 53.5h4.2v5.7h-4.2zm-16.3 109h-2.8l-5.7 7.8v1.7h4.3l4.2-5.7zm-7.8 0l-.7.9v4.1l3.7-5zm5.2 9.5h2.6v-3.6zm2.6 0h8.4v-9.5h-4.1l-4.3 5.9zm2.8-9.5h-2.8v3.8zm15.1 0v1.4l1.1-1.4zm13.4 9.5v-.7l-.5.7zm0-7.8l-5.8 7.8h4l1.8-2.4z"/><path class="st28" d="M1180.9 162.5v.9l.7-.9zm3.7 0l-3.7 5v2.8l5.7-7.8zm4.8 5.9v-2.1l-4.2 5.7h1.6zm0 0l4.3-5.9h-1.5l-2.8 3.8zm24.6 3.6v-9.5h-5.6l-1.1 1.4v8.1zm6.7-9.5h-6.7v9.5h.9l5.8-7.8zm0 8.8v-1.7l-1.8 2.4h1.3z"/><g class="st18"><path class="st19" d="M1172.9 60.5l-4.2 5.7-1 1.3h9.1l.9-1.3 3.1-4.2 2-2.8 4.2-5.7 1.9-2.6 3.2-4.4 1-1.3h-9l-1 1.3-1 1.4-1.3 1.8-1.9 2.5-.9 1.3-2.7 3.7-1.3 1.8-.2.2zm-7.1 21.9l1-1.2 4.6-6.3.9-1.3h-8.9v12.1l1.3-1.8zm7.1-35.9l.9-1.3h-6.6v9.2l1.5-2.2zm18.9 7l-2.9 3.9-1.3 1.8-.9 1.3-4.2 5.7-1 1.3h1.5l.9-1.3 3.7-5 1.4-2 4.2-5.7 1-1.3.2-.3 1.3-1.8v-2l-1.3 1.8-1.7 2.3zM1166.4 90l1-1.3 4.4-6 1.3-1.8 4.5-6 .9-1.3h-1.4l-1 1.3-3 4-1.3 1.8-.3.5-.9 1.2-4.6 6.3-1 1.3-.3.4-1.3 1.8v2l1.3-1.8zm41.5 50.6l3.8-5.1 1-1.3.6-1 1.3-1.7 2.7-3.6.9-1.3 1.9-2.5 1.2-1.8v-1.9l-1.2 1.7-3.3 4.5-1 1.3-1.2 1.6-1.3 1.8-2.1 2.9-.9 1.3-2.4 3.2-1.2 1.7v2zm-10.7 12.8l-2.6 3.5-1 1.3h1.4l1-1.3 1.2-1.6 1.2-1.7v-2zm10.7-8.3l1.5-2 1-1.3 2.9-4.1 1.3-1.8.4-.4.9-1.3 4.2-5.6 1.2-1.8v-2l-1.2 1.8-1 1.3-4.5 6.1-1.3 1.8-4.4 6-.9 1.3h-.1l-1.2 1.8v1.9zm-11 13.1h1.4l.1-.2v-1.9zm-2.7-90.7h1.4l.1-.2v-1.9zm11.5-13.8l.2-.2.9-1.3 3.1-4.2 2-2.8h-1.4l-1 1.3-3.8 5.2-1.3 1.8v2zm-37.7 51.5l.9-1.3 2.9-4 1.3-1.8.4-.5 1-1.3 4.6-6.3.9-1.3.3-.3 1.3-1.8 3-4.2 1-1.2 3.1-4.3 1.3-1.8.2-.2 1-1.3h-1.5l-1 1.3-4.6 6.3-.9 1.2-1.6 2.3-1.3 1.7-1.7 2.3-1 1.3-4.5 6.2-1.3 1.7-4.3 6-1 1.3-1.8 2.5-1.3 1.7v2l1.3-1.8zm-3.1 15.1l.9-1.3 4.6-6.2 1-1.4.4-.6 1.3-1.7 2.9-3.9 1-1.3 3.3-4.6 2.2-3 4.6-6.3 1-1.3.6-.9 1.3-1.7 2.7-3.7.9-1.2 3.6-4.9 1.2-1.7v-1h-3.1l-.9 1.3-4.4 5.9-1.3 1.8-4.5 6.1-.9 1.3-1.7 2.3-1.3 1.8-1.6 2.2-1 1.3-4.6 6.2-1.3 1.8-4.2 5.8-1 1.4-1.9 2.5-1.3 1.8v5.2l1.3-1.7zm39.5-53.9l1.3-1.7 3.1-4.3.9-1.2.2-.2 1.3-1.8 2.7-3.7.9-1.3.6-.7 1.3-1.8v-4.5h-.6l-.9 1.3-4 5.4-1.3 1.8-4 5.5-1.5 2v4.4zm12 7.2l-1 1.3-.8 1.1-1.3 1.7-2.5 3.5-.9 1.2-2 2.7-1.2 1.8v16.2l1.2-1.8 2.8-3.7.9-1.3 1.7-2.4 1.3-1.7 1.6-2.2 1-1.3 2.9-3.9 1.2-1.8v-9.4zm-19.2 26.2l-3 4.1-1 1.3-3.2 4.4-1.3 1.7-.1.1-.9 1.4-4.6 6.2-1 1.3-.5.8-1.3 1.7-2.8 3.8-.9 1.3-3.5 4.7-2.1 2.9-4.6 6.3-.9 1.3-.8 1-1.3 1.7v12.4h2.8l1-1.3 4.6-6.3 1.3-1.8 4.2-5.7 1-1.3 2-2.8 1.3-1.7 1.3-1.8.9-1.3 4.6-6.3 1.6-2.1 4-5.5.9-1.3 2.3-3 1.2-1.7V98.1zm0 24.2l-2 2.6-.9 1.3-4.3 5.9-1.3 1.7-4.6 6.3-.9 1.3-1.6 2.2-1.3 1.7-1.7 2.3-1 1.3-4.5 6.2-1 1.4h3.1l1-1.3 4.1-5.6 1.4-2 4.6-6.2 1-1.3 1.4-2 1.3-1.8 1.9-2.5.9-1.3 4.4-5.9 1.2-1.8v-4.3zm10.7-10.4l.6-.8 1-1.4 3.8-5.2 1.7-2.3 4.6-6.3 1.7-2.3V91l-1.2 1.8-2.6 3.5-1 1.3-1.9 2.6-1.3 1.7-1.4 2-.9 1.3-3.1 4.1-1.2 1.8v4.2zm11.7 28.2l-1 1.3-4 5.4-1.5 2.1-4.7 6.3-.9 1.3h3.1l1-1.3 1.7-2.4 1.3-1.8 1.6-2.1.9-1.3 3-4 1.2-1.7v-4.3l-1.2 1.8z"/></g><path class="st11" d="M1195.6 20.2h-8.2c-.4 0-.8 0-1.2.1 5.5.3 10.5 2.9 14 7.2h10.6c-3.7-4.7-9.3-7.3-15.2-7.3z"/><path class="st12" d="M1200.2 27.4c2.9 3.5 4.4 7.8 4.4 12.4h10.6c0-4.5-1.5-8.9-4.4-12.4h-10.6z"/><linearGradient id="SVGID_27_" gradientUnits="userSpaceOnUse" x1="1237.508" y1="-155.86" x2="1237.508" y2="-186.62" gradientTransform="matrix(1 0 0 -1 0 1.22)"><stop offset="0" stop-color="#58b3ff"/><stop offset="1" stop-color="#9a79ff"/></linearGradient><path d="M1269 178.6h-60.5c-2.2-1.7-3.9-3.8-5.1-6.3-1.1-2.4-.9-5.3.6-7.5 1.2-1.5 3-2.4 4.4-3.6 2-1.8 3.1-4.4 4.6-6.7s3.8-4.4 6.5-4.3c2.1.1 4 1.5 6.2 1.7 3.2.3 5.9-2.1 8.8-3.5 4.9-2.3 10.6-1.6 15.8-.1 8.1 2.3 16.1 6.7 20.3 14 2.9 5.1 1.9 11.5-1.6 16.3z" fill="url(#SVGID_27_)"/><linearGradient id="SVGID_28_" gradientUnits="userSpaceOnUse" x1="1276.445" y1="-117.94" x2="1276.445" y2="-176.63" gradientTransform="matrix(1 0 0 -1 0 1.22)"><stop offset="0" stop-color="#58b3ff"/><stop offset="1" stop-color="#9a79ff"/></linearGradient><path d="M1270.7 167c-3.5-.3-7.1-1.8-9.1-4.6-2.4-3.4-2.3-8.2-4.9-11.5-3.8-4.6-12.4-5-13.4-10.8-.5-3 1.6-6 4-7.9s5.4-3.1 7.7-5.1c4.4-4 6-10.5 10.8-14.1 6.5-5 15.9-2.4 23.6.4 5 1.8 10.1 3.7 14 7.2s6.5 9.1 5 14.2c-.7 2.3-2.3 4.5-2 7 .2 2.2 1.8 3.9 2.7 5.9 2.7 6-1.9 13.2-8 15.8-5.6 2.3-10.7 1-16.4 1.4-4.9.2-9 2.5-14 2.1z" fill="url(#SVGID_28_)"/><path class="st2" d="M1289.9 147.4l-1.2-1-7.8 9.3v-34.8h-1.6V142l-6.9-9.7-1.3 1 8.2 11.3v34h1.6v-20.5z"/></g></svg>